{"glyphs":{"0":{"ha":650,"x_min":-26,"x_max":670,"o":"m 308 1027 q 309 1027 308 1027 q 479 979 400 1025 q 606 867 555 936 q 659 750 647 812 q 669 621 669 697 q 601 214 669 416 q 503 47 567 111 q 435 -3 473 18 q 317 -34 374 -34 q 281 -30 298 -34 q 149 42 206 -16 q 77 141 109 83 q -5 389 20 252 q -22 496 -18 454 q -26 578 -26 537 q -22 658 -26 618 q 23 826 -15 746 q 133 964 61 909 q 214 1010 170 993 q 308 1027 259 1027 m 425 585 q 425 615 425 604 q 426 629 426 627 q 425 656 426 632 l 425 673 q 424 677 425 674 q 423 684 423 681 q 423 690 423 688 q 422 696 423 693 q 391 745 415 720 q 321 784 358 777 q 311 784 317 784 q 292 777 304 784 q 269 761 279 770 q 252 741 259 751 q 217 579 217 682 q 221 507 217 541 q 244 375 227 444 q 293 252 262 307 l 311 228 q 316 221 312 225 q 321 216 320 217 q 324 214 323 216 q 331 220 327 217 l 336 225 q 346 239 345 236 q 350 247 347 243 q 358 262 357 258 q 362 270 359 267 q 373 300 365 275 q 407 434 392 350 q 410 453 407 434 q 425 585 419 510 z "},"1":{"ha":377,"x_min":30,"x_max":315,"o":"m 30 58 q 33 84 30 71 q 60 297 52 190 q 68 480 68 404 q 69 611 69 556 q 68 755 69 666 q 66 955 66 845 q 110 1047 66 1015 q 189 1074 145 1074 q 267 1047 232 1074 q 311 955 311 1015 q 312 755 311 841 q 313 612 313 670 q 312 467 313 555 q 301 263 311 380 q 269 31 292 146 q 239 -27 262 -4 q 208 -49 225 -41 q 149 -64 179 -64 q 117 -60 133 -64 q 65 -30 85 -50 q 40 7 50 -15 q 30 58 30 30 z "},"2":{"ha":713,"x_min":-41,"x_max":747,"o":"m 372 202 q 450 199 411 199 q 601 210 526 199 q 621 212 610 212 q 675 201 652 212 q 712 176 697 191 q 742 125 732 156 q 746 92 746 109 q 735 41 746 65 q 651 -28 709 -19 q 648 -30 650 -28 q 448 -42 548 -42 q 50 8 247 -42 q -16 52 7 19 q -39 123 -39 83 q -30 174 -39 149 q 11 227 -16 205 q 14 229 12 228 q 278 448 168 340 q 283 452 278 448 q 377 557 338 503 q 389 573 377 557 q 422 618 401 589 q 454 703 454 665 q 445 743 454 723 q 397 780 431 770 q 346 788 372 788 q 227 765 296 788 q 178 748 194 754 q 160 742 161 742 q 119 735 140 735 q 41 768 75 735 q 9 822 18 791 q 4 860 4 840 q 14 904 4 880 q 41 946 23 928 q 88 974 60 964 q 180 1004 133 990 q 347 1031 271 1031 q 500 1001 429 1031 q 656 861 602 956 q 699 705 699 789 q 694 652 699 680 q 656 538 685 589 q 594 442 628 487 q 469 294 537 361 q 372 202 422 245 m 113 133 q 145 126 129 129 q 138 152 138 138 q 113 133 126 142 z "},"3":{"ha":723,"x_min":-34,"x_max":749,"o":"m 289 528 q 338 518 301 526 q 334 551 332 533 q 289 528 312 540 m 273 175 l 307 174 q 393 180 361 174 q 409 185 401 183 q 420 189 416 187 q 438 193 425 190 q 475 213 460 203 q 481 218 477 216 q 496 236 492 227 q 500 243 498 239 q 506 262 502 247 l 506 267 q 505 274 505 271 q 480 306 494 293 q 441 334 467 319 q 300 388 385 366 q 277 392 288 391 q 248 396 258 393 q 232 399 240 396 q 159 434 189 403 q 127 484 137 456 q 121 522 121 503 q 128 563 121 541 q 153 604 136 585 q 184 625 168 617 q 285 678 236 652 q 412 757 362 718 q 435 780 425 768 q 426 789 431 784 q 373 819 396 817 q 351 821 363 821 q 277 810 316 821 q 206 791 237 800 q 150 774 175 781 q 114 768 125 768 q 96 769 103 768 q 28 803 58 773 q -5 860 4 827 q -11 899 -11 878 q -1 941 -11 920 q 80 1008 22 994 q 156 1029 117 1017 q 351 1065 270 1065 q 437 1055 400 1065 q 514 1024 473 1044 q 647 906 600 981 q 681 815 675 864 q 685 775 685 798 q 675 720 685 753 q 646 656 666 686 q 597 596 624 621 q 547 553 571 571 q 570 540 559 547 q 701 420 651 495 q 749 263 749 350 q 715 127 749 193 q 652 45 692 80 q 495 -45 583 -20 q 302 -71 400 -71 q 172 -61 240 -71 q 35 -22 103 -52 q 0 1 16 -14 q -34 88 -34 35 q -16 151 -34 122 q 3 175 -8 164 q 87 209 37 209 q 129 202 104 209 q 143 197 136 201 q 153 194 151 194 q 172 189 163 193 q 232 178 216 180 q 245 176 239 178 q 260 176 254 176 q 273 175 266 175 z "},"4":{"ha":724,"x_min":-7,"x_max":764,"o":"m 245 587 l 349 589 q 425 586 387 589 q 412 742 422 654 q 401 941 403 830 q 401 943 401 943 q 445 1035 401 1002 q 524 1062 480 1062 q 602 1035 567 1062 q 646 943 646 1002 q 650 836 646 890 q 658 727 654 783 q 669 556 667 621 q 675 553 673 555 q 730 524 708 545 q 754 487 745 509 q 764 444 764 465 q 712 338 764 377 q 665 317 690 321 q 662 262 665 290 q 658 159 658 201 q 665 79 658 118 q 667 54 667 66 q 652 -5 667 23 q 581 -64 631 -47 q 545 -69 563 -69 q 490 -56 517 -69 q 458 -33 472 -46 q 427 27 433 -8 q 415 170 415 92 q 418 263 415 228 q 422 343 420 298 q 358 346 387 346 q 294 345 330 346 q 210 343 258 343 q 115 345 163 343 q 28 382 65 345 q -5 463 -5 416 q -5 472 -5 468 q 5 696 3 583 q 16 925 8 808 q 54 1008 19 974 q 137 1043 88 1043 q 227 1005 189 1043 q 260 924 260 971 q 260 916 260 920 q 250 734 252 815 q 245 587 248 652 m 536 460 q 552 439 545 450 q 562 446 556 444 q 544 467 551 454 q 536 460 540 463 z "},"5":{"ha":746,"x_min":-34,"x_max":800,"o":"m 799 273 q 731 122 799 190 q 666 73 701 92 q 648 64 655 68 q 635 58 640 60 q 623 52 631 56 q 605 45 614 49 q 568 28 586 37 q 446 -18 528 9 q 292 -47 362 -47 q 240 -43 266 -47 q 130 4 180 -35 q 91 60 102 26 q 87 85 87 75 q 87 99 87 96 q 124 184 90 149 q 206 218 159 218 q 277 198 244 218 q 286 197 278 197 q 369 213 331 201 q 391 220 369 213 q 452 243 414 228 q 540 283 510 266 q 477 331 518 307 q 351 393 412 370 q 283 410 320 404 q 206 423 247 415 q 110 448 159 431 q 15 514 54 468 q -19 564 -5 536 q -33 625 -33 593 q -31 649 -33 636 q -27 678 -30 662 q -19 731 -23 712 q -9 784 -15 750 q 24 873 -3 833 q 98 952 54 922 q 189 1000 142 982 q 191 1000 190 1000 q 372 1031 278 1029 q 434 1031 392 1031 q 538 1028 476 1031 q 628 982 595 1025 q 655 903 655 947 q 625 823 655 859 q 538 784 593 784 q 509 785 534 784 q 420 788 456 788 q 351 784 385 788 q 347 784 350 784 q 283 773 315 781 q 239 754 251 765 q 236 751 237 753 q 232 746 235 749 q 230 739 231 743 q 227 724 229 734 q 217 670 222 708 q 300 654 255 659 q 476 606 389 643 q 552 568 515 589 q 712 460 652 518 q 765 392 743 429 q 799 273 799 338 z "},"6":{"ha":692,"x_min":-19,"x_max":732,"o":"m 248 273 q 237 182 237 217 q 239 153 237 168 q 265 163 251 157 q 297 175 279 168 q 431 244 366 205 q 457 260 446 254 q 477 273 473 270 q 484 279 480 277 q 488 283 487 282 q 464 311 479 297 q 420 331 444 328 q 377 334 396 334 q 349 333 358 334 q 339 332 340 332 q 256 320 296 330 q 248 273 254 297 m 9 312 q -19 392 -19 347 q -9 438 -19 416 q 33 488 4 469 l 38 534 q 54 620 45 578 q 262 1043 103 853 q 349 1084 294 1084 q 437 1047 401 1084 q 439 1046 438 1047 q 473 963 473 1009 q 441 879 473 916 q 296 585 336 754 q 293 574 294 579 q 372 578 331 578 q 528 552 454 578 q 667 450 609 522 q 711 378 693 418 q 731 278 731 330 q 680 132 731 197 q 658 109 671 121 q 589 54 628 79 q 500 3 536 20 q 338 -69 407 -46 q 213 -99 255 -99 q 160 -91 186 -99 q 58 -26 96 -72 q 9 64 24 15 q -5 175 -5 117 q 9 312 -5 233 m 161 430 q 170 434 165 433 q 163 439 165 437 q 161 430 161 434 z "},"7":{"ha":665,"x_min":-41,"x_max":678,"o":"m 395 774 q 338 774 381 774 q 227 774 296 774 q 91 764 159 773 q 76 764 83 764 q -7 802 27 764 q -41 887 -41 840 q 0 975 -41 941 q 73 1008 31 1002 q 225 1017 149 1017 l 461 1017 q 557 1015 509 1017 q 652 967 616 1013 q 677 894 677 935 q 673 860 677 876 q 518 340 595 586 q 469 193 486 237 q 435 96 453 149 q 387 -5 418 43 q 366 -34 378 -22 q 286 -65 334 -65 q 222 -49 252 -65 q 168 14 184 -27 q 160 56 160 34 q 176 115 160 85 l 191 145 q 195 155 193 151 q 205 176 198 165 q 223 227 214 201 q 243 282 232 254 q 395 774 316 500 z "},"8":{"ha":703,"x_min":0,"x_max":701,"o":"m 681 994 q 700 928 700 964 q 662 836 700 873 q 631 814 648 821 q 616 783 624 798 q 544 661 587 718 q 503 609 525 635 q 612 452 557 552 q 663 336 642 399 q 689 191 689 266 q 628 7 689 88 q 452 -106 563 -79 q 354 -119 403 -119 q 258 -110 305 -119 q 171 -79 212 -100 q 84 -9 118 -52 q 26 90 45 37 q 8 195 8 142 q 57 396 8 293 q 123 517 85 460 q 160 568 141 543 q 43 685 92 618 q 1 799 5 735 q 1 808 1 803 q 33 907 1 865 q 98 967 60 944 q 178 1002 137 990 q 374 1036 266 1028 q 441 1040 408 1039 q 445 1053 444 1047 q 475 1107 453 1085 q 512 1131 490 1122 q 556 1141 534 1141 q 662 1089 624 1141 q 685 1023 685 1059 q 681 994 685 1009 m 347 125 q 349 125 347 125 q 351 125 351 125 q 426 144 396 125 l 437 155 q 445 176 444 170 q 446 195 446 183 q 427 274 444 233 q 387 354 410 315 q 380 366 387 355 q 350 416 358 404 q 325 381 342 404 q 289 324 308 358 q 250 199 250 251 q 256 168 250 182 q 269 148 263 152 q 347 125 304 125 m 288 779 q 312 760 297 772 q 334 787 323 773 q 288 779 309 784 m 323 583 q 338 586 332 586 q 343 586 343 586 q 342 597 342 593 q 342 602 342 602 q 327 600 332 600 q 321 600 321 600 q 323 583 323 591 m 513 910 q 519 901 517 905 q 532 918 525 910 q 513 910 524 913 m 551 936 q 544 928 547 932 q 552 933 548 930 q 551 936 551 935 z "},"9":{"ha":651,"x_min":-34,"x_max":642,"o":"m 618 575 q 619 537 618 564 q 623 444 620 510 q 625 339 625 378 q 623 233 625 300 q 620 124 620 167 q 621 12 620 81 q 578 -80 621 -47 q 499 -107 543 -107 q 420 -80 456 -107 q 377 12 377 -47 q 377 86 377 37 q 380 199 377 136 q 382 319 382 263 q 321 316 357 316 q 250 322 286 316 q 184 334 214 328 q 3 429 58 355 q -34 549 -34 476 q -19 646 -34 593 q 1 704 -9 677 q 163 951 60 849 q 355 1072 250 1039 q 450 1088 401 1088 q 540 1062 498 1088 q 604 999 582 1036 q 633 923 625 962 q 642 849 642 884 q 640 784 642 806 q 627 669 636 720 q 618 575 618 617 m 214 578 q 335 557 296 557 q 374 562 355 557 q 374 574 374 564 q 376 602 374 590 q 388 711 387 690 q 399 819 397 773 l 399 827 q 338 781 366 810 q 235 632 271 715 q 229 624 233 632 q 214 578 218 600 m 487 458 q 487 458 487 458 q 487 458 487 458 q 487 458 487 458 q 487 458 487 457 z "},"―":{"ha":430,"x_min":0,"x_max":0,"o":""},"‖":{"ha":430,"x_min":0,"x_max":0,"o":""},"‗":{"ha":430,"x_min":0,"x_max":0,"o":""},"‛":{"ha":430,"x_min":0,"x_max":0,"o":""},"‟":{"ha":430,"x_min":0,"x_max":0,"o":""},"†":{"ha":430,"x_min":0,"x_max":0,"o":""},"‡":{"ha":430,"x_min":0,"x_max":0,"o":""},"‣":{"ha":430,"x_min":0,"x_max":0,"o":""},"․":{"ha":430,"x_min":0,"x_max":0,"o":""},"‥":{"ha":430,"x_min":0,"x_max":0,"o":""}," ":{"ha":430,"x_min":0,"x_max":0,"o":""},"!":{"ha":288,"x_min":-54,"x_max":288,"o":"m 41 970 q 83 1062 41 1028 q 162 1090 118 1090 q 241 1062 206 1090 q 283 970 283 1028 q 285 814 283 882 q 286 700 286 746 q 285 585 286 654 q 274 423 283 517 q 243 237 264 330 q 210 180 233 203 q 157 151 190 159 q 209 90 191 129 q 220 41 220 64 q 214 1 220 19 q 167 -64 202 -38 q 88 -96 134 -96 q 4 -64 38 -96 q -38 -16 -26 -42 q -54 41 -54 12 q -50 69 -54 54 q -11 136 -41 109 q -4 141 -7 138 q 20 159 8 153 q 54 170 43 168 q 26 197 38 182 q 1 266 1 227 q 7 298 1 282 q 33 460 26 378 q 42 606 41 543 q 43 711 43 669 q 42 818 43 753 q 41 970 41 883 z "},"\"":{"ha":427,"x_min":-27,"x_max":441,"o":"m 438 982 q 439 918 439 955 q 433 793 439 880 q 426 688 426 705 q 427 624 426 671 q 387 534 427 567 q 309 507 351 507 q 231 533 266 507 q 199 568 210 547 q 180 544 191 555 q 99 510 146 510 q 7 548 45 510 q -26 627 -26 581 q -26 640 -26 633 q -15 806 -16 722 q -14 978 -14 891 q 28 1070 -14 1036 q 109 1099 64 1099 q 189 1070 153 1099 q 213 1043 202 1059 q 233 1067 221 1057 q 319 1100 270 1100 q 401 1065 368 1100 q 438 982 435 1029 z "},"#":{"ha":827,"x_min":-54,"x_max":882,"o":"m 449 784 q 492 781 465 783 q 528 958 511 872 q 559 1017 533 993 q 590 1040 572 1031 q 646 1054 617 1054 q 681 1048 663 1054 q 754 987 731 1032 q 768 930 768 960 q 765 903 768 917 q 734 754 751 833 q 789 743 761 749 q 849 712 825 735 q 872 676 863 697 q 882 633 882 655 q 831 528 882 568 q 760 503 800 503 q 726 507 746 503 q 680 515 705 511 q 675 495 680 513 q 663 444 671 477 q 712 442 696 444 q 802 395 769 439 q 827 317 827 359 q 800 239 827 274 q 712 198 768 198 q 688 199 707 198 q 647 201 669 201 q 617 202 625 202 q 602 132 609 167 q 563 -1 587 65 q 510 -65 547 -42 q 449 -84 483 -84 q 414 -79 431 -84 q 343 -26 369 -66 q 324 37 324 3 q 331 76 324 57 q 369 206 351 134 q 338 206 353 206 q 285 27 313 110 q 257 -20 275 -1 q 215 -47 239 -38 q 171 -56 191 -56 q 79 -19 115 -56 q 46 60 46 15 q 53 102 46 81 q 88 216 72 157 q 60 218 69 218 q -21 258 12 225 q -54 339 -54 290 q -16 429 -54 391 q 64 463 18 463 q 144 457 64 463 q 153 500 149 483 q 157 529 156 518 q 121 525 136 526 q 99 524 106 524 q 15 562 47 524 q -18 648 -18 601 q 22 735 -18 701 q 95 768 53 762 q 169 775 138 773 q 201 777 199 777 q 237 975 224 905 q 269 1036 244 1010 q 300 1058 281 1048 q 354 1072 326 1072 q 391 1066 373 1072 q 464 1005 441 1050 q 477 951 477 979 q 470 902 477 936 q 457 833 463 868 q 449 784 452 799 m 391 449 q 416 449 403 449 q 427 505 423 491 q 435 541 433 532 q 408 541 422 541 q 398 490 403 513 q 391 449 393 467 m 252 345 q 227 324 241 331 q 232 317 229 320 q 258 338 243 331 q 252 345 255 342 m 316 675 q 289 652 305 661 q 294 647 293 650 q 321 670 305 662 q 316 675 317 673 m 594 663 q 571 648 583 652 q 578 639 575 643 q 601 655 589 650 q 594 663 597 659 m 632 930 q 632 929 632 930 l 632 930 m 507 312 q 530 332 517 326 q 526 338 528 335 q 502 319 515 326 q 507 312 505 315 m 435 47 q 435 47 435 47 q 435 47 435 47 z "},"$":{"ha":644,"x_min":-56,"x_max":727,"o":"m 94 726 q 94 726 94 726 q 94 726 94 726 q 94 726 94 726 m 328 853 q 296 818 319 829 q 308 810 302 814 q 335 846 313 833 q 328 853 331 849 m 308 533 q 302 529 305 530 q 309 524 305 526 q 308 533 308 528 m 330 487 q 331 477 331 481 q 331 473 331 473 q 342 479 336 476 q 330 487 335 483 m 293 137 q 315 114 307 127 q 320 119 317 117 q 300 144 307 129 q 293 137 296 141 m 251 122 q 227 125 244 122 q 133 138 170 137 q 148 146 133 138 l 149 149 l 152 156 l 152 159 l 149 160 l 140 167 q 267 148 167 165 q 293 137 281 145 q 251 122 274 122 m 182 270 q 191 431 182 315 q 179 438 191 433 q 77 487 118 465 q 0 545 33 510 q -49 628 -33 579 q -56 669 -56 650 q -27 754 -56 716 q 38 821 1 792 q 168 907 99 868 q 201 925 184 917 q 206 962 203 943 q 231 1044 214 1004 q 281 1107 245 1084 q 343 1127 309 1127 q 378 1122 361 1127 q 450 1067 423 1109 q 468 1005 468 1038 q 464 975 468 990 q 538 977 496 977 q 628 970 581 977 q 690 939 665 964 q 715 901 704 925 q 726 849 726 876 q 722 817 726 833 q 692 765 712 785 q 659 742 677 750 q 601 730 631 730 q 566 732 585 730 l 556 732 q 534 734 545 732 q 486 732 503 734 q 442 730 469 731 q 445 671 444 700 q 446 617 446 642 q 445 572 446 593 q 496 532 476 552 q 535 487 515 513 q 579 418 555 461 q 639 225 639 316 q 598 106 639 159 q 484 18 551 41 q 434 5 460 9 q 434 -3 434 1 q 392 -95 434 -61 q 314 -122 357 -122 q 236 -96 271 -122 q 190 -3 190 -62 q 190 23 190 11 q 130 31 157 28 q 42 79 73 35 q 16 157 16 114 q 45 235 16 201 q 132 274 77 274 q 182 270 151 274 z "},"%":{"ha":892,"x_min":-19,"x_max":925,"o":"m 225 732 q 238 774 236 755 q 240 804 240 793 q 239 822 240 815 q 237 817 239 821 q 233 804 236 812 q 232 795 233 800 q 230 786 231 791 q 228 780 229 781 q 227 766 228 772 q 225 757 225 761 l 225 735 l 225 732 m 302 483 q 203 465 255 465 q 69 510 122 465 q -12 656 5 564 q -19 731 -19 694 q -3 864 -19 796 q 54 990 12 932 q 153 1066 94 1043 q 227 1078 189 1078 q 332 1055 281 1078 q 437 968 395 1028 q 484 823 480 907 q 541 925 511 873 q 639 1042 581 989 q 719 1074 674 1074 q 736 1073 727 1074 q 811 1035 780 1066 q 848 949 848 1000 q 807 865 848 901 q 732 769 764 825 q 670 649 701 713 q 604 518 639 585 q 665 528 633 528 q 689 526 677 528 q 840 453 776 517 q 916 316 897 395 q 925 225 925 274 q 911 129 925 176 q 869 41 898 81 q 787 -31 838 -5 q 681 -56 735 -56 q 568 -33 624 -56 q 463 39 507 -8 q 408 160 418 88 l 407 163 q 404 180 404 171 q 282 28 345 91 q 175 -60 233 -20 q 110 -80 144 -80 q 67 -71 90 -80 q 27 -43 45 -62 q 8 -19 16 -33 q -9 45 -9 11 q 45 146 -9 110 q 46 148 45 148 q 132 224 94 178 q 275 435 198 300 q 302 483 289 460 m 673 189 q 682 227 682 205 q 677 264 682 248 q 674 271 675 270 q 673 274 673 273 q 656 240 662 258 q 655 236 655 237 q 652 225 654 233 q 649 215 650 217 q 648 210 648 213 q 647 203 647 205 q 648 197 647 201 q 656 193 652 194 q 664 191 659 193 q 673 189 669 190 m 718 966 q 716 966 716 966 l 718 966 z "},"&":{"ha":787,"x_min":-41,"x_max":827,"o":"m 214 134 q 220 132 216 133 q 239 130 224 130 q 262 132 255 130 q 293 139 270 133 q 338 155 316 145 q 382 180 359 164 q 412 205 406 198 q 372 256 396 224 q 324 315 347 288 q 290 355 301 342 q 218 252 247 316 q 203 187 205 220 q 214 134 203 152 m 400 194 l 400 194 l 400 194 m 210 136 q 210 136 210 136 q 210 136 210 136 m 391 780 q 361 754 373 769 q 353 739 355 746 q 391 780 378 765 m 568 220 q 571 201 571 210 q 570 186 571 193 q 573 186 571 186 q 576 186 575 186 q 574 203 574 194 q 575 220 574 212 q 572 220 574 220 q 568 220 570 220 m 308 551 q 308 538 308 547 q 307 525 308 530 q 305 519 305 519 q 313 518 309 519 q 313 524 313 521 q 319 549 313 537 q 308 551 312 549 m 675 350 l 689 357 l 690 358 l 675 350 m 821 110 q 827 78 827 92 q 825 48 827 64 q 811 16 822 33 q 738 -43 785 -28 q 709 -49 720 -49 q 693 -49 699 -49 q 639 -28 663 -46 q 575 23 606 -5 q 552 3 564 14 q 411 -79 491 -47 q 239 -114 321 -114 q 151 -102 194 -114 q 38 -34 88 -84 q -16 49 4 0 q -41 184 -41 110 q -29 276 -41 227 q 8 377 -18 326 q 146 549 57 473 q 149 552 146 551 q 155 556 152 553 q 122 641 136 598 q 109 720 109 684 q 115 787 109 757 q 199 936 133 869 q 289 1000 239 975 q 420 1032 351 1032 q 581 963 513 1032 q 643 865 624 920 q 654 798 654 834 q 636 718 654 761 q 574 618 613 663 q 502 545 540 581 q 472 518 487 532 q 480 509 476 513 q 523 456 488 499 q 562 407 557 412 q 578 435 574 427 q 593 453 583 442 q 675 486 627 486 q 739 469 709 486 q 793 407 777 448 q 802 366 802 387 q 784 304 802 334 q 728 212 747 241 q 740 201 730 210 q 766 181 750 193 q 789 161 781 170 q 821 110 811 140 z "},"'":{"ha":218,"x_min":-27,"x_max":232,"o":"m 229 982 q 231 918 231 955 q 224 793 231 880 q 217 688 217 705 q 218 624 217 671 q 178 534 218 567 q 100 507 142 507 q 22 533 57 507 q -26 624 -23 566 q -27 669 -27 646 q -24 729 -27 693 q -18 807 -22 765 q -12 915 -12 884 q -14 959 -12 945 q -15 982 -15 975 q 23 1066 -15 1032 q 110 1100 61 1100 q 193 1065 159 1100 q 229 982 227 1029 z "},"(":{"ha":355,"x_min":-14,"x_max":437,"o":"m 343 -176 q 283 -186 311 -186 q 126 -119 193 -186 q 50 9 77 -71 q 15 162 24 85 q 1 312 5 239 l -7 430 q -12 579 -12 514 q -7 718 -12 644 q 28 901 0 811 q 114 1061 56 990 q 283 1168 176 1139 q 312 1173 301 1173 q 328 1172 323 1173 q 399 1138 369 1169 q 431 1082 423 1115 q 437 1044 437 1065 q 427 1001 437 1023 q 349 933 406 948 q 306 910 320 925 q 281 875 292 895 q 279 873 281 873 q 243 749 251 819 q 232 578 232 667 q 235 481 232 534 q 241 397 239 429 q 244 330 243 366 q 250 235 245 294 q 273 114 255 175 q 278 98 275 106 q 282 84 281 90 q 285 75 283 79 l 289 65 q 293 61 290 62 q 311 62 302 62 q 393 27 359 62 q 426 -27 416 4 q 431 -66 431 -45 q 422 -109 431 -87 q 343 -176 400 -161 m 308 -46 l 308 -46 q 308 -46 308 -46 m 289 65 l 289 65 l 289 65 m 292 45 l 290 53 l 292 45 z "},")":{"ha":355,"x_min":-83,"x_max":368,"o":"m 12 1168 q 72 1177 45 1177 q 228 1111 161 1177 q 270 1057 250 1089 q 305 982 293 1020 q 339 830 331 906 q 355 670 353 720 q 361 560 357 620 q 366 412 366 477 q 361 274 366 347 q 327 91 354 180 q 241 -71 300 1 q 71 -176 178 -149 q 42 -182 53 -182 q 26 -180 31 -182 q -45 -146 -14 -178 q -77 -92 -69 -123 q -83 -54 -83 -75 q -73 -11 -83 -33 q 7 57 -52 42 q 47 80 33 65 q 76 118 62 95 q 113 243 104 172 q 123 410 123 324 q 119 509 123 456 q 113 625 115 563 q 104 757 109 697 q 83 876 100 817 q 77 892 80 884 q 69 917 75 905 q 65 926 66 922 q 64 930 64 930 q 45 928 53 928 q -38 963 -4 928 q -71 1019 -62 986 q -76 1057 -76 1036 q -66 1100 -76 1078 q 12 1168 -45 1153 m 47 1038 l 47 1038 q 47 1038 47 1038 z "},"*":{"ha":632,"x_min":-41,"x_max":673,"o":"m 576 948 q 551 878 576 910 l 552 878 q 644 836 610 878 q 673 755 673 800 q 644 675 673 711 q 553 633 610 633 q 575 540 568 586 q 575 526 575 533 q 536 444 575 477 q 453 410 498 410 q 363 450 397 410 q 331 522 336 481 q 235 445 290 476 q 172 427 205 427 q 131 435 153 427 q 90 463 109 444 q 69 488 77 473 q 53 549 53 518 q 62 602 53 579 q 0 633 26 608 q -41 726 -41 674 q -31 773 -41 751 q 52 840 -8 826 q 104 850 77 846 q 80 878 92 864 q 49 956 49 914 q 50 975 49 966 q 88 1050 57 1019 q 175 1085 126 1085 q 259 1046 222 1085 q 273 1029 259 1044 q 302 997 288 1013 q 317 981 317 981 q 369 1039 340 1012 q 407 1065 385 1057 q 450 1074 429 1074 q 465 1074 458 1074 q 539 1037 509 1067 q 576 963 570 1006 q 576 948 576 956 m 282 745 q 304 715 298 732 q 345 731 323 731 q 384 722 368 731 q 396 746 388 735 q 372 762 382 750 q 351 804 354 779 q 330 800 340 800 q 311 803 319 800 q 311 800 311 802 q 282 745 311 765 m 182 967 q 182 967 182 967 q 182 967 182 967 m 159 954 l 178 949 l 183 951 q 184 954 183 952 l 159 954 z "},"+":{"ha":579,"x_min":-69,"x_max":625,"o":"m 420 541 q 446 540 439 540 q 506 541 453 540 q 598 498 566 541 q 625 419 625 463 q 598 340 625 376 q 507 297 566 297 q 467 297 487 297 q 415 297 445 297 q 416 218 416 259 q 373 125 416 157 q 294 98 338 98 q 216 125 251 98 q 174 218 174 159 q 172 300 174 255 q 79 290 125 297 q 57 289 69 289 q -1 301 27 289 q -34 324 -19 309 q -64 376 -54 345 q -68 408 -68 392 q -54 465 -68 437 q -31 498 -45 484 q 28 528 -7 522 q 119 539 83 537 q 176 541 156 541 q 182 617 182 612 q 222 698 189 665 q 302 731 255 731 q 393 692 354 731 q 426 614 426 659 q 420 541 426 610 m 281 422 q 292 410 288 416 q 305 422 298 416 q 293 434 298 427 q 281 422 288 427 m 297 597 l 304 595 l 317 602 q 317 602 317 602 q 317 601 317 601 l 297 597 m 426 602 q 426 604 426 602 l 426 602 z "},",":{"ha":199,"x_min":-138,"x_max":240,"o":"m 0 104 q 68 186 14 163 q 111 195 90 195 q 218 141 179 195 q 240 76 240 113 q 235 42 240 60 q 171 -114 214 -43 q 23 -235 121 -197 q -16 -243 4 -243 q -101 -206 -64 -243 q -138 -118 -138 -170 q -102 -37 -138 -73 q -56 -5 -81 -15 q -24 28 -39 1 q -12 64 -18 45 q 0 104 -5 84 m 109 62 l 109 62 l 109 62 z "},"-":{"ha":647,"x_min":-42,"x_max":688,"o":"m 659 480 q 688 400 688 445 q 658 320 688 355 q 567 279 624 279 q 457 285 526 279 q 298 292 346 292 q 205 290 250 292 q 128 282 161 288 q 81 277 95 277 q 26 289 52 277 q -5 311 8 298 q -35 362 -26 332 q -41 399 -41 380 q -27 454 -41 427 q -5 486 -18 472 q 58 515 20 511 q 179 530 123 528 q 267 533 235 533 q 429 529 350 533 q 538 524 507 525 q 571 524 570 524 q 659 480 627 521 z "},".":{"ha":194,"x_min":-41,"x_max":236,"o":"m 132 168 q 224 90 195 153 q 235 41 235 64 q 228 -1 235 19 q 179 -65 213 -42 q 102 -96 146 -96 q 16 -64 50 -96 q -5 -43 5 -54 q -24 -18 -16 -33 q -41 41 -41 11 q -37 69 -41 54 q 4 136 -27 109 q 34 159 23 153 q 73 171 60 170 q 82 172 76 171 q 102 174 88 174 q 132 168 115 174 m 102 35 l 102 35 q 102 35 102 35 z "},"/":{"ha":494,"x_min":-83,"x_max":576,"o":"m 450 1116 q 513 1099 484 1116 q 566 1038 548 1078 q 575 993 575 1016 q 560 936 575 964 q 451 697 500 819 q 354 450 401 575 q 257 198 307 324 q 148 -52 208 72 q 126 -81 140 -68 q 39 -117 92 -117 q -20 -100 8 -117 q -49 -80 -37 -92 q -83 5 -83 -46 q -66 64 -83 35 q 37 304 -11 182 q 133 553 85 427 q 233 804 180 678 q 346 1053 285 930 q 369 1084 355 1070 q 450 1116 401 1116 z "},":":{"ha":216,"x_min":-41,"x_max":258,"o":"m 191 549 q 245 487 227 528 q 256 439 256 461 q 206 334 256 377 q 126 301 172 301 q 42 332 77 301 q -3 379 12 353 q -18 435 -18 406 q -14 468 -18 452 q 26 532 -3 506 q 60 555 43 548 q 83 565 76 563 q 104 568 91 567 q 122 571 113 571 q 138 569 132 571 q 148 567 145 567 q 179 555 165 563 q 186 552 183 553 q 191 549 189 551 m 132 168 q 224 90 195 153 q 235 41 235 64 q 228 -1 235 19 q 179 -65 213 -42 q 102 -96 146 -96 q 16 -64 50 -96 q -5 -43 5 -54 q -24 -18 -16 -33 q -41 41 -41 11 q -37 69 -41 54 q 4 136 -27 109 q 34 159 23 153 q 73 171 60 170 q 82 172 76 171 q 102 174 88 174 q 132 168 115 174 m 102 35 l 102 35 q 102 35 102 35 z "},";":{"ha":220,"x_min":-138,"x_max":247,"o":"m 0 104 q 68 186 14 163 q 111 195 90 195 q 218 141 179 195 q 240 76 240 113 q 235 42 240 60 q 171 -114 214 -43 q 23 -235 121 -197 q -16 -243 4 -243 q -101 -206 -64 -243 q -138 -118 -138 -170 q -102 -37 -138 -73 q -56 -5 -81 -15 q -24 28 -39 1 q -12 64 -18 45 q 0 104 -5 84 m 180 538 q 235 476 216 517 q 245 429 245 450 q 193 321 245 361 q 114 289 160 289 q 30 320 64 289 q -28 425 -28 365 q -24 457 -28 441 q 18 524 -14 498 q 22 526 20 525 q 62 551 38 541 q 80 555 73 555 q 92 557 87 556 q 109 559 98 559 q 136 555 121 559 q 168 544 153 553 q 175 541 172 543 q 180 538 178 540 m 109 62 l 109 62 l 109 62 z "},"<":{"ha":624,"x_min":-56,"x_max":663,"o":"m 544 707 q 636 665 602 707 q 663 587 663 629 q 637 509 663 544 q 552 463 606 465 l 540 458 q 505 449 515 453 q 492 445 494 445 q 372 397 431 423 q 311 369 340 384 q 363 347 336 358 q 547 270 457 313 q 578 248 563 262 q 609 191 601 225 q 612 160 612 176 q 595 99 612 127 q 519 43 568 54 q 491 39 505 39 q 433 54 461 39 q 330 99 382 77 q 224 142 278 121 q 116 186 171 163 q 8 240 61 210 q -49 312 -34 263 q -54 347 -54 330 q -33 414 -54 385 q 33 483 -3 453 q 187 579 100 538 q 273 620 244 606 q 422 680 321 642 q 467 692 425 680 q 544 707 514 707 m 479 170 l 479 170 l 479 170 m 103 343 q 100 361 100 351 q 91 350 95 355 q 103 343 96 346 z "},"=":{"ha":735,"x_min":-39,"x_max":774,"o":"m 83 610 q 216 620 156 618 q 343 621 275 621 q 482 619 411 621 q 574 617 553 617 q 654 617 594 617 q 742 576 709 617 q 769 498 769 541 q 743 420 769 456 q 699 384 726 395 q 747 349 727 373 q 774 271 774 313 q 749 193 774 228 q 656 146 716 146 q 595 146 632 146 q 498 148 557 146 q 242 155 331 155 q 84 151 153 155 q 76 151 80 151 q -11 190 22 151 q -39 267 -39 224 q -14 346 -39 311 q 30 382 4 370 q 0 407 14 392 q -31 491 -31 445 q 8 578 -31 544 q 83 610 39 605 z "},">":{"ha":590,"x_min":-41,"x_max":646,"o":"m 604 292 q 479 212 544 243 q 355 151 415 182 q 264 96 309 125 q 171 39 172 39 q 109 22 141 22 q 67 30 90 22 q 26 57 45 38 q 5 83 14 68 q -11 146 -11 113 q 22 231 -11 197 q 46 250 34 241 q 140 307 94 278 q 235 362 187 335 q 279 385 256 374 q 270 389 273 388 q 164 429 224 406 q 50 467 104 452 q -7 498 16 475 q -31 534 -22 513 q -41 578 -41 556 q 11 682 -41 643 q 80 705 42 705 q 111 703 96 705 q 235 663 176 686 q 324 629 294 639 q 354 618 354 618 q 486 560 422 594 q 609 469 553 526 q 644 379 644 433 q 604 292 644 326 z "},"?":{"ha":631,"x_min":-54,"x_max":665,"o":"m 363 260 q 313 161 363 195 q 384 88 363 138 q 393 41 393 62 q 388 1 393 20 q 340 -65 376 -39 q 262 -96 307 -96 q 176 -64 210 -96 q 155 -43 165 -54 q 136 -18 144 -33 q 119 41 119 11 q 123 69 119 54 q 164 136 133 109 q 186 153 175 145 q 153 176 168 163 q 119 256 122 209 q 119 260 119 259 q 111 307 119 282 q 92 358 103 331 q 62 463 69 419 q 60 497 60 481 q 61 524 60 513 q 79 591 64 563 q 111 635 95 618 q 210 697 151 674 q 336 726 259 715 q 415 742 389 734 q 399 760 408 751 q 342 790 377 777 q 270 812 308 803 q 65 836 182 833 q -27 880 5 837 q -54 959 -54 916 q -27 1038 -54 1002 q 66 1080 7 1080 q 179 1072 100 1080 q 313 1053 258 1065 q 419 1022 368 1040 q 511 978 471 1004 q 606 896 567 943 q 656 783 646 849 q 663 715 663 750 q 663 701 663 708 q 605 575 661 631 q 490 510 562 532 q 429 496 460 502 q 329 477 345 481 q 309 472 313 473 q 317 453 313 464 q 327 429 321 442 q 338 399 332 415 q 363 263 361 336 q 363 260 363 262 m 258 37 q 258 37 258 37 l 258 37 z "},"@":{"ha":937,"x_min":-47,"x_max":978,"o":"m 453 572 q 439 574 446 574 l 423 574 q 420 574 422 574 q 420 569 420 572 q 418 559 419 566 q 416 545 418 552 q 414 509 414 526 q 416 475 414 491 q 426 449 418 457 q 429 447 427 449 q 433 442 431 445 q 439 441 437 442 q 442 439 441 439 q 448 500 448 483 q 450 532 449 517 q 453 572 452 547 m 804 121 q 810 86 810 103 q 804 53 810 69 q 753 -16 792 9 q 644 -64 703 -53 q 540 -79 586 -76 q 469 -81 494 -81 q 433 -80 444 -81 q 100 52 229 -77 q -5 225 27 125 q -47 477 -47 350 q 20 770 -47 631 q 73 869 45 821 q 155 971 109 929 q 393 1082 258 1063 q 483 1092 456 1092 q 530 1090 510 1092 q 581 1088 549 1089 q 646 1076 613 1088 q 697 1053 675 1067 q 739 1025 719 1039 q 765 1009 751 1017 q 834 959 804 989 q 884 897 864 929 q 964 673 936 807 q 978 541 978 608 q 978 540 978 540 q 933 316 975 423 q 895 227 917 270 q 804 121 861 160 m 578 736 q 578 735 578 736 l 578 736 m 430 819 q 498 814 452 819 q 538 846 514 834 l 519 848 l 472 848 q 446 846 456 848 q 435 844 437 844 q 358 819 396 837 q 330 802 342 812 q 430 819 380 819 m 708 694 q 697 604 700 651 q 692 506 694 556 q 683 421 689 456 q 677 370 677 387 q 677 347 677 353 q 678 339 678 340 q 684 349 682 345 q 686 353 685 353 q 732 492 719 416 q 735 538 735 515 q 708 694 735 612 m 509 164 q 480 195 492 179 q 461 195 471 195 q 391 201 426 195 q 252 278 311 216 q 220 321 233 298 q 222 311 221 316 q 255 244 233 274 q 261 235 256 241 q 275 218 266 228 q 297 201 285 209 q 425 164 345 170 q 463 163 444 163 q 494 163 483 163 q 505 164 505 164 q 509 164 506 164 z "},"A":{"ha":749,"x_min":-26,"x_max":796,"o":"m 210 448 q 205 442 208 445 q 213 444 209 442 q 210 448 212 445 m 362 799 q 382 800 370 800 q 410 793 395 800 q 397 899 400 852 q 362 799 384 856 m 494 429 q 491 426 492 427 q 494 425 492 425 q 494 429 494 426 m 174 -75 q 95 -102 138 -102 q 16 -75 52 -102 q -26 18 -26 -41 q -1 229 -26 132 q 56 416 23 327 q 53 441 53 429 q 57 473 53 460 q 104 540 69 517 q 155 652 127 594 q 256 902 218 795 q 292 1029 278 964 q 330 1101 301 1073 q 410 1134 362 1134 q 500 1096 463 1134 q 533 1019 533 1063 q 532 996 533 1012 q 532 945 532 979 q 555 751 532 861 q 585 624 568 689 q 644 372 623 481 q 678 270 655 319 q 728 180 703 218 q 770 109 753 141 q 793 35 787 76 q 795 12 795 26 q 783 -46 795 -18 q 760 -79 774 -64 q 708 -109 739 -99 q 675 -113 692 -113 q 618 -99 647 -113 q 586 -76 600 -90 q 556 -18 563 -52 q 544 14 552 1 q 513 64 533 31 q 444 199 469 132 q 422 261 429 236 q 412 297 415 286 q 344 300 378 300 q 274 304 309 301 q 239 184 254 245 q 217 18 218 103 q 174 -75 217 -42 z "},"B":{"ha":693,"x_min":-19,"x_max":734,"o":"m 248 170 q 282 170 260 170 q 336 171 304 170 q 456 195 397 175 q 444 220 449 210 q 434 240 439 229 q 397 302 420 271 q 370 336 384 317 q 349 355 354 351 q 342 359 343 358 q 275 395 309 384 q 274 366 275 381 q 263 251 273 308 q 256 203 262 236 q 248 170 250 171 m 486 777 q 467 790 481 781 q 450 800 453 799 q 445 802 446 800 q 297 844 381 827 q 290 674 294 757 q 396 703 351 685 q 405 707 397 704 q 430 719 412 709 q 454 735 448 728 q 473 756 468 749 q 484 774 479 764 q 486 777 486 776 m 157 518 q 182 538 167 532 q 164 555 171 545 q 144 532 157 541 q 157 518 152 526 m 279 534 q 346 513 315 526 q 346 526 346 517 q 351 548 346 536 q 279 534 320 541 m 151 982 l 152 987 l 146 1000 l 145 1001 q 183 970 170 993 l 151 982 m 56 898 q 16 987 16 933 l 16 987 q 47 1070 16 1032 q 89 1101 66 1092 q 133 1109 111 1109 q 222 1100 144 1109 q 354 1081 301 1090 q 566 1013 479 1058 q 658 948 617 989 q 731 807 720 886 q 732 781 732 793 q 716 701 732 742 q 544 505 663 572 q 662 330 610 435 l 693 266 q 716 164 716 216 q 671 49 716 98 q 585 -15 635 8 q 363 -69 476 -61 q 267 -73 317 -73 q 164 -69 217 -73 q 122 -76 144 -76 q 37 -38 69 -76 q 8 -8 20 -26 q -12 58 -12 20 q -12 58 -12 58 q 0 111 -12 85 q 7 187 0 149 l 20 271 q 30 361 28 320 q 33 431 31 401 q 14 449 23 438 q -19 534 -19 486 q 20 621 -19 587 q 41 636 30 629 q 51 765 49 700 q 56 898 53 830 z "},"C":{"ha":688,"x_min":-49,"x_max":749,"o":"m -35 589 q -17 652 -28 623 q 3 704 -5 682 q 14 746 11 726 q 26 793 18 766 q 172 978 61 921 q 269 1020 220 1004 q 460 1057 359 1047 q 507 1058 481 1058 q 560 1055 532 1058 q 642 1016 609 1048 q 674 936 674 983 q 636 845 674 883 q 557 812 604 812 q 538 812 545 812 q 505 815 526 815 q 391 800 453 815 q 347 788 368 793 q 285 762 316 780 q 282 761 283 762 q 273 753 279 760 l 266 745 q 251 688 258 726 q 233 621 243 644 q 213 571 224 597 q 197 503 197 526 q 199 475 197 491 q 202 443 201 460 q 209 392 203 426 q 278 235 227 281 q 334 205 301 216 q 406 191 368 195 q 420 189 407 191 q 454 187 433 187 q 494 190 475 187 q 563 216 530 194 q 628 236 593 236 q 670 228 647 236 q 712 201 693 220 q 730 176 723 190 q 749 110 749 146 q 693 9 749 45 q 525 -52 614 -43 q 450 -56 491 -56 q 356 -48 408 -56 q 248 -24 304 -41 q 142 31 193 -7 q 15 193 57 94 q -34 372 -20 277 q -47 505 -47 465 q -35 589 -47 545 z "},"D":{"ha":773,"x_min":-19,"x_max":779,"o":"m 277 802 q 274 751 274 776 q 277 649 274 696 q 281 580 281 602 q 281 545 281 557 q 270 317 270 317 q 259 157 267 237 q 271 158 267 157 q 275 159 275 159 q 362 180 317 163 q 495 259 452 217 q 509 276 505 271 q 519 290 514 281 q 533 359 533 321 q 533 377 533 359 q 514 476 533 412 q 492 549 503 514 q 474 602 481 585 q 467 620 467 618 q 441 675 457 646 q 414 718 426 704 q 395 741 403 731 q 331 784 365 770 q 277 802 305 795 m 31 743 q 53 916 31 846 q 53 929 53 922 q 62 978 53 955 q 129 1044 83 1027 q 198 1067 160 1067 q 263 1050 233 1067 q 388 1024 327 1043 q 526 949 464 1001 q 646 808 602 890 q 718 643 690 727 q 739 574 728 609 q 779 365 779 456 q 662 83 779 199 q 580 18 625 46 q 477 -35 534 -9 q 262 -85 362 -85 q 180 -81 228 -85 q 117 -98 151 -98 q 85 -94 100 -98 q 31 -64 53 -85 q 4 -22 14 -46 q -19 50 -19 9 q 12 132 -19 98 q 28 319 23 214 q 31 353 28 320 q 37 530 37 456 q 34 652 37 605 q 31 743 31 699 m 127 54 q 122 47 125 50 q 123 46 122 47 q 130 50 126 49 q 127 54 129 53 z "},"E":{"ha":705,"x_min":-42,"x_max":718,"o":"m 148 551 q 141 556 144 553 q 137 551 140 553 q 142 544 140 548 q 148 551 145 548 m -41 867 q -27 922 -41 895 q -4 955 -18 941 q 58 986 22 981 q 331 1008 194 1006 q 508 1010 419 1009 q 597 1012 597 1012 q 597 1012 597 1012 q 688 971 654 1012 q 718 891 718 936 q 689 811 718 846 q 598 769 655 769 q 401 766 491 766 q 241 761 312 766 q 247 680 243 742 q 382 689 316 684 q 503 694 449 694 q 602 692 556 694 q 689 646 656 689 q 716 566 716 610 q 686 487 716 522 q 600 448 654 448 q 574 449 595 448 q 505 450 553 450 q 395 445 457 450 q 266 435 334 439 q 283 194 279 267 q 322 201 292 195 q 405 214 353 208 q 511 221 457 221 q 620 212 571 221 q 678 182 654 205 q 701 149 692 168 q 715 92 715 121 q 711 60 715 76 q 650 -15 696 8 q 591 -28 623 -28 q 559 -24 579 -28 q 521 -20 538 -20 q 316 -49 442 -20 q 243 -66 267 -60 q 212 -73 220 -72 q 191 -75 205 -75 q 136 -61 161 -75 q 76 -27 100 -53 q 43 53 43 4 q 18 483 39 224 q -1 552 -1 514 q 9 601 -1 578 q -4 777 1 689 q -35 834 -27 800 q -41 867 -41 850 z "},"F":{"ha":633,"x_min":-14,"x_max":798,"o":"m 254 574 q 363 575 326 575 q 543 557 463 575 q 601 525 578 549 q 625 490 616 511 q 635 446 635 468 q 585 340 635 381 q 515 316 555 316 q 483 320 499 316 q 372 334 429 334 q 329 332 359 334 q 251 330 298 330 q 245 184 248 264 q 232 4 241 103 q 193 -77 227 -43 q 111 -111 159 -111 q 20 -72 60 -111 q -12 5 -12 -39 q -12 18 -12 12 q 9 445 9 332 q 8 863 9 654 q -4 917 -4 890 q 20 989 -4 959 q 42 1021 28 1008 q 94 1050 64 1042 q 129 1055 111 1055 q 163 1051 146 1055 q 270 1063 222 1062 q 351 1065 317 1065 q 477 1062 385 1065 q 601 1059 570 1059 q 655 1061 632 1059 q 682 1062 678 1062 q 769 1023 736 1062 q 798 945 798 989 q 772 867 798 902 q 682 818 741 821 q 611 815 644 815 q 534 818 578 815 q 353 822 416 822 q 252 818 290 822 l 254 574 z "},"G":{"ha":814,"x_min":-62,"x_max":834,"o":"m 696 283 q 697 328 696 312 q 699 346 699 343 q 690 359 699 351 q 675 372 682 368 q 680 342 680 361 q 661 263 680 312 q 644 228 654 245 q 652 228 648 228 q 693 214 675 228 q 696 283 694 248 m 581 772 q 570 773 575 773 q 558 773 566 773 q 548 773 551 773 q 532 770 545 773 q 512 764 519 766 q 503 760 505 761 q 372 675 449 739 q 269 572 316 627 q 191 457 222 518 q 182 406 182 431 q 206 278 182 353 q 282 144 228 212 q 319 119 297 125 q 325 118 320 119 q 343 117 330 117 q 388 129 363 117 l 404 137 l 408 141 q 431 160 416 145 q 498 244 464 193 q 515 273 509 263 q 521 282 521 282 q 476 279 505 282 q 404 275 448 275 q 312 319 345 275 q 285 397 285 354 q 312 476 285 441 q 404 518 346 518 q 473 522 437 518 q 562 528 525 528 q 637 524 600 528 q 719 500 675 519 q 808 427 773 480 q 834 345 834 392 q 833 323 834 339 q 831 294 831 307 q 830 252 831 281 q 828 165 829 222 q 826 50 827 107 q 780 -43 826 -11 q 702 -69 745 -69 q 624 -42 659 -69 q 600 -15 610 -31 q 518 -77 566 -49 q 414 -118 471 -104 q 335 -126 374 -126 q 294 -125 315 -126 q 175 -80 231 -117 q 88 -5 126 -49 q 22 91 50 39 q -50 298 -31 189 q -61 410 -61 357 q -11 595 -61 506 q 33 663 9 631 q 159 810 90 741 q 312 933 229 880 q 557 1016 438 1016 q 692 986 628 1016 q 724 964 711 978 q 755 909 747 941 q 758 878 758 892 q 742 817 758 845 q 723 792 734 803 q 637 758 689 758 q 581 772 608 758 z "},"H":{"ha":735,"x_min":-27,"x_max":734,"o":"m 140 422 q 134 426 137 423 q 137 420 136 423 q 140 422 138 422 m 460 286 q 416 285 434 285 q 262 293 338 285 q 252 294 258 293 q 256 224 254 259 q 279 87 262 155 q 285 58 285 69 q 283 42 285 47 q 250 -28 281 1 q 194 -61 227 -53 q 155 -66 176 -66 q 113 -57 134 -66 q 45 24 58 -34 q 15 204 20 117 q 8 374 9 292 q -3 427 -3 399 q 8 480 -3 456 q 8 557 8 505 q 7 689 8 609 q -22 901 3 795 q -27 928 -27 917 q -26 945 -27 939 q 8 1013 -22 983 q 65 1047 33 1038 q 104 1053 83 1053 q 146 1043 125 1053 q 214 962 199 1020 q 247 715 244 840 q 248 591 248 635 q 248 537 248 547 q 286 533 260 536 q 342 529 312 530 q 391 528 372 528 q 473 533 441 528 q 481 613 476 568 q 488 716 487 658 q 489 728 488 718 q 490 768 490 738 q 473 964 490 817 q 473 978 473 971 q 510 1060 473 1025 q 595 1095 547 1095 q 684 1054 650 1095 q 716 979 712 1021 q 728 859 723 914 q 734 768 734 803 q 722 579 734 675 q 712 458 715 521 q 712 457 712 457 q 701 206 701 298 q 707 41 701 114 q 707 33 707 37 q 666 -57 707 -24 q 588 -84 631 -84 q 510 -58 545 -84 q 463 33 465 -26 q 457 168 457 107 q 460 286 457 229 z "},"I":{"ha":617,"x_min":-81,"x_max":700,"o":"m 433 490 q 428 436 433 490 q 423 304 423 382 q 434 164 423 225 q 555 174 536 174 q 642 134 609 174 q 670 57 670 100 q 644 -22 670 14 q 551 -70 612 -66 q 425 -80 490 -73 q 227 -94 313 -94 q 151 -91 189 -94 q 5 -65 77 -87 q -46 -35 -26 -57 q -72 4 -62 -19 q -81 47 -81 27 q -30 152 -81 114 q 37 175 0 175 q 72 170 56 175 q 191 151 126 153 q 182 275 182 213 q 190 475 182 376 l 205 670 q 208 750 208 719 q 208 795 208 781 q 57 807 125 799 q -24 846 8 814 q -57 926 -57 879 q -19 1017 -57 979 q 60 1050 14 1050 q 100 1047 66 1050 q 289 1035 209 1035 q 540 1073 433 1035 q 572 1080 557 1080 q 663 1042 625 1080 q 700 955 700 1005 q 665 872 700 907 q 613 841 643 850 q 452 802 534 814 q 452 749 452 784 q 448 663 452 715 q 433 490 442 598 z "},"J":{"ha":639,"x_min":-104,"x_max":827,"o":"m -103 213 q -94 256 -103 233 q -71 293 -85 278 q 23 332 -30 332 q 125 275 88 332 q 252 136 184 178 q 294 117 273 122 q 309 115 307 115 q 314 116 312 115 q 317 117 316 117 q 330 142 327 132 q 343 277 343 191 q 332 452 343 349 q 318 623 320 555 q 309 742 316 692 q 282 742 301 742 q 100 757 189 742 q 41 787 65 762 q 18 819 27 800 q 4 876 4 848 q 8 909 4 892 q 69 983 23 960 q 127 997 96 997 q 153 994 140 997 q 277 983 216 983 q 418 987 336 983 q 576 990 500 990 q 730 977 654 990 q 789 945 765 971 q 812 914 803 932 q 826 859 826 887 q 821 823 826 841 q 762 751 804 773 q 703 736 734 736 q 677 739 690 736 q 552 749 621 749 q 557 681 555 723 q 569 525 564 572 q 575 460 574 477 q 587 271 583 393 q 589 247 589 259 q 566 85 589 164 q 534 5 555 41 q 463 -79 505 -47 q 460 -80 461 -80 q 302 -129 391 -129 q 218 -115 260 -129 q 122 -69 165 -99 q -85 151 0 11 q -103 213 -103 180 z "},"K":{"ha":665,"x_min":-41,"x_max":768,"o":"m 96 924 q 96 924 96 924 q 96 924 96 924 q 96 924 95 924 m 251 431 q 251 439 251 434 q 252 452 251 445 q 231 444 241 448 q 251 431 241 437 m 149 441 q 141 445 145 442 q 138 431 141 438 q 149 441 142 437 m 251 274 q 247 129 247 171 q 255 39 247 87 q 256 18 256 30 q 244 -41 256 -12 q 221 -73 236 -58 q 170 -103 201 -94 q 137 -107 153 -107 q 80 -94 109 -107 q 47 -71 61 -84 q 18 -11 23 -46 q 3 163 3 75 q 5 236 3 182 q 7 381 7 290 q -1 422 -1 401 q 5 463 -1 444 q -12 682 0 572 q -32 847 -24 791 q -39 908 -39 903 q -39 922 -39 913 q -27 982 -39 955 q -5 1013 -18 1000 q 47 1043 16 1034 q 80 1047 64 1047 q 132 1036 109 1047 q 201 948 193 1009 q 240 594 229 736 q 281 613 260 602 q 418 720 369 658 q 456 781 438 749 q 499 865 476 822 q 557 947 522 907 q 642 986 594 986 q 652 985 647 986 q 729 950 699 981 q 766 876 760 920 q 768 859 768 867 q 735 780 768 814 q 697 719 711 751 q 651 632 675 674 q 518 479 601 545 q 446 429 490 456 q 525 327 480 395 q 567 271 544 298 q 617 221 591 245 q 677 165 663 179 q 699 132 690 152 q 708 90 708 111 q 708 75 708 81 q 671 1 701 31 q 598 -37 642 -30 q 581 -38 589 -38 q 500 -5 536 -38 q 422 71 435 57 q 336 172 370 122 q 278 252 292 237 q 251 274 264 266 z "},"L":{"ha":597,"x_min":-7,"x_max":720,"o":"m 115 -79 q 30 -45 64 -79 q -5 42 -5 -8 q 0 81 -5 61 q 20 119 5 102 q 22 147 22 134 q 20 172 22 160 l 9 264 q 4 340 4 309 q 7 408 4 370 q 35 621 9 472 q 69 966 61 773 q 114 1058 71 1024 q 193 1085 149 1085 q 273 1055 237 1085 q 312 968 312 1023 q 305 853 312 936 q 292 697 298 753 q 275 584 285 642 q 261 497 264 526 q 256 468 258 468 q 250 365 250 415 q 256 262 250 315 q 262 205 259 240 q 264 161 264 171 q 418 153 334 159 q 553 144 503 146 q 605 142 604 142 q 694 95 662 140 q 720 17 720 60 q 693 -61 720 -26 q 605 -102 661 -102 q 537 -99 601 -102 q 354 -87 473 -96 q 115 -79 235 -79 z "},"M":{"ha":880,"x_min":15,"x_max":859,"o":"m 259 27 q 216 -65 259 -33 q 137 -92 180 -92 q 58 -65 94 -92 q 15 27 15 -33 q 20 462 15 245 q 46 897 26 678 q 83 974 52 944 q 168 1010 121 1010 q 228 996 199 1010 q 285 928 269 974 q 336 769 313 848 q 380 619 359 690 q 419 484 400 548 q 479 659 450 572 q 570 1019 534 834 q 618 1093 579 1067 q 688 1114 650 1114 q 758 1093 727 1114 q 808 1017 799 1067 q 817 914 817 966 q 814 862 817 898 q 812 766 812 826 q 819 644 812 705 q 849 260 840 476 q 859 20 859 37 q 859 3 859 3 q 817 -91 859 -57 q 739 -118 781 -118 q 661 -92 696 -118 q 614 1 614 -60 q 604 285 612 149 q 530 100 568 193 q 494 47 518 69 q 416 19 461 19 q 357 35 385 19 q 309 81 326 52 q 295 113 308 83 q 260 198 282 142 q 259 27 259 113 m 202 674 q 224 671 213 674 q 176 826 195 769 q 164 663 170 745 q 202 674 180 674 m 681 666 q 677 771 677 716 q 680 883 677 826 q 624 671 656 776 q 650 675 635 675 q 681 666 666 675 m 399 216 q 415 176 407 197 q 431 216 423 197 q 415 214 423 214 q 399 216 407 214 z "},"N":{"ha":693,"x_min":-34,"x_max":727,"o":"m 534 129 q 534 155 534 138 q 533 205 534 171 q 530 288 532 240 q 490 274 513 274 q 472 277 480 274 q 534 129 510 174 m 533 85 l 533 85 l 533 85 m 165 741 q 127 787 146 764 q 127 728 127 757 q 165 741 144 741 m 91 966 q 109 964 103 966 q 115 963 115 963 q 186 941 152 963 q 233 871 224 917 q 348 728 296 796 q 441 591 400 659 l 468 804 q 483 1031 481 916 q 526 1123 483 1090 q 605 1150 562 1150 q 684 1123 648 1150 q 727 1031 727 1090 q 727 1029 727 1031 q 710 783 726 903 q 680 544 694 663 q 666 342 666 423 q 668 238 666 302 q 670 144 670 174 q 669 77 670 102 q 633 -3 666 30 q 576 -34 609 -26 q 544 -38 562 -38 q 503 -31 526 -38 q 460 -3 480 -23 q 444 18 452 5 q 386 125 410 69 q 345 232 362 182 q 262 415 302 342 q 237 457 250 437 q 237 456 237 457 q 251 268 240 362 q 274 77 262 174 q 274 64 274 71 q 235 -20 274 12 q 153 -53 197 -53 q 64 -14 98 -53 q 31 60 37 18 q 7 254 18 157 q -7 437 -4 351 q -9 556 -9 522 q -8 769 -9 590 q -34 838 -34 800 q 4 929 -34 891 q 44 956 22 947 q 91 966 66 966 z "},"O":{"ha":758,"x_min":-61,"x_max":806,"o":"m 243 747 q 216 657 228 709 q 191 515 203 605 q 183 437 186 480 q 187 405 183 422 q 203 359 191 388 q 241 288 221 323 q 286 227 260 252 q 288 224 288 225 q 312 209 300 212 q 351 202 334 205 q 381 197 369 199 q 384 198 382 198 q 414 221 401 210 q 449 256 433 239 q 553 411 525 342 q 564 460 564 437 q 563 468 564 464 q 541 511 562 488 q 475 572 513 543 q 400 634 430 608 q 342 683 370 661 q 283 724 315 705 q 281 726 282 726 q 243 747 262 739 m -61 429 q -60 452 -61 441 q -16 732 -50 602 q -1 791 -9 758 q 61 920 19 865 q 134 977 91 958 q 224 996 178 996 q 250 994 236 996 q 434 917 340 983 q 503 865 471 891 q 561 816 533 841 q 604 780 589 791 q 620 766 618 769 q 677 717 655 736 q 709 688 700 697 q 764 616 742 655 q 804 495 799 556 q 806 464 806 479 q 755 277 806 370 q 701 186 727 222 q 600 60 647 107 q 463 -37 534 -5 q 365 -57 416 -57 q 270 -30 305 -57 q 233 -20 251 -26 q 167 9 198 -11 q 163 12 165 11 q 45 144 96 61 q -53 363 -31 258 q -61 429 -61 396 z "},"P":{"ha":553,"x_min":-14,"x_max":643,"o":"m 384 765 q 247 838 313 800 q 236 844 241 841 q 241 810 241 811 q 245 722 245 766 q 250 620 248 662 q 252 552 251 578 q 357 711 309 623 q 370 739 363 727 q 384 765 380 755 m 1 760 l 0 776 q 0 776 0 776 l 0 781 q -6 819 -3 799 q -11 863 -9 840 q -12 895 -12 879 q 41 1059 -12 997 q 118 1107 71 1093 q 179 1115 146 1115 q 339 1065 235 1115 q 416 1023 380 1044 q 482 987 453 1001 q 536 960 511 974 q 623 873 594 929 q 642 795 642 837 q 629 723 642 754 q 441 399 559 545 q 353 308 401 350 q 285 266 321 282 q 338 27 307 142 q 343 -1 343 9 q 342 -18 343 -12 q 308 -88 339 -58 q 254 -121 285 -111 q 216 -126 236 -126 q 172 -117 195 -126 q 103 -37 118 -95 q 34 304 58 133 q 4 648 16 433 q 3 684 3 673 q 3 696 3 696 l 1 741 q 1 741 1 741 l 1 760 z "},"Q":{"ha":765,"x_min":-41,"x_max":772,"o":"m 519 439 q 528 512 528 476 q 521 582 528 548 q 498 644 514 616 q 427 734 464 704 q 340 779 382 772 q 335 779 338 779 q 327 780 332 780 q 300 772 308 780 q 297 769 298 772 q 235 658 258 735 q 235 656 235 656 q 205 505 210 582 q 203 464 203 484 q 216 358 203 410 q 251 270 228 311 q 286 227 264 244 q 373 180 339 224 q 397 205 385 193 q 357 260 377 233 q 326 345 326 298 q 362 427 326 392 q 452 463 399 463 q 519 439 490 463 m 553 233 q 547 233 549 233 q 544 233 544 233 q 548 221 547 228 q 553 233 551 228 m 549 183 q 547 179 548 182 q 551 179 549 179 q 549 183 549 182 m 312 26 q 316 25 313 26 q 321 24 319 24 q 326 23 323 23 q 331 23 330 23 q 300 54 311 33 q 312 26 304 39 m 311 26 q 312 26 312 26 l 311 26 m -38 407 q -39 476 -39 437 q -19 658 -39 548 q 50 849 3 765 q 115 935 79 898 q 330 1023 206 1023 q 454 997 392 1023 q 624 883 549 959 q 719 750 684 823 q 770 518 770 643 q 750 357 770 435 q 696 212 730 279 q 727 175 711 194 q 761 95 761 140 q 760 77 761 87 q 722 3 753 34 q 646 -31 692 -27 q 635 -33 640 -33 q 552 7 587 -33 q 548 9 549 8 q 525 -11 536 -1 q 490 -41 514 -20 q 437 -79 467 -61 q 327 -113 377 -113 q 286 -109 307 -113 q 193 -39 222 -92 q 172 8 180 -16 q 69 104 113 47 q -5 247 20 170 q -38 407 -31 324 z "},"R":{"ha":632,"x_min":-61,"x_max":688,"o":"m 575 -57 q 544 -62 557 -62 q 473 -39 505 -62 q 403 17 435 -11 q 336 65 370 45 q 318 75 335 65 q 275 100 301 85 q 228 126 248 114 q 233 35 231 68 q 236 -5 236 1 q 199 -87 236 -54 q 113 -121 161 -121 q 26 -81 60 -121 q -7 -4 -3 -49 q -16 206 -16 115 q -14 363 -16 297 q -47 416 -39 400 q -61 471 -61 444 q -24 556 -61 521 q 5 579 -12 570 q 9 610 7 590 q 14 646 11 629 q 18 674 16 663 q 27 730 24 709 q 31 755 30 750 q 32 768 31 760 q 35 789 33 776 q 38 804 37 796 q 39 834 39 821 q 45 908 39 868 q 60 979 50 948 q 88 1039 69 1010 q 155 1095 114 1077 q 237 1111 193 1111 q 336 1093 283 1111 q 381 1077 359 1085 q 484 1033 431 1058 q 582 964 537 1008 q 654 865 623 925 q 686 742 686 806 q 667 651 686 694 q 633 590 655 620 q 374 324 515 425 q 416 301 389 315 q 549 209 477 267 q 608 163 578 184 q 658 94 646 137 q 663 60 663 77 q 647 0 663 28 q 575 -57 624 -42 m 283 853 q 283 851 283 852 q 283 849 283 850 q 263 655 279 751 q 244 532 252 594 q 338 614 292 566 q 385 666 362 640 q 401 688 395 678 q 441 741 426 716 q 440 745 441 741 q 434 760 439 750 q 394 803 419 785 q 335 833 369 821 q 321 840 334 834 q 283 853 308 845 m 187 354 q 175 354 182 354 q 122 369 142 354 q 121 328 122 349 q 159 339 137 339 q 183 335 172 339 q 187 354 183 345 m 99 439 q 100 454 99 448 q 100 467 100 461 q 84 460 94 463 q 99 439 90 453 z "},"S":{"ha":571,"x_min":-76,"x_max":701,"o":"m 586 834 q 536 831 552 831 q 391 834 519 831 q 319 833 357 834 q 206 802 264 830 q 170 769 182 789 q 210 705 172 746 q 244 670 224 690 q 297 625 264 650 q 365 571 330 600 q 446 498 410 536 q 560 316 532 414 q 570 250 570 281 q 515 79 570 148 q 441 8 483 39 q 358 -45 400 -23 q 281 -87 316 -66 q 220 -104 251 -104 q 176 -96 198 -104 q 138 -72 153 -87 q 98 23 98 -31 q 157 123 98 90 q 224 160 191 144 q 312 217 286 191 q 321 227 316 221 q 327 243 327 233 q 315 275 326 259 q 277 324 298 301 q 273 327 275 324 q 211 383 245 355 q 138 441 176 411 q 55 515 88 481 q -4 583 22 548 q -60 686 -39 631 q -75 768 -75 727 q -69 821 -75 795 q 3 951 -54 895 q 113 1027 53 1000 q 114 1028 113 1028 q 235 1064 175 1054 q 340 1076 296 1074 q 399 1077 385 1077 q 518 1076 414 1077 q 565 1076 548 1076 q 586 1077 582 1077 q 674 1036 642 1077 q 701 958 701 1001 q 674 879 701 914 q 586 834 643 837 z "},"T":{"ha":532,"x_min":-103,"x_max":692,"o":"m 300 882 q 297 882 298 882 q 298 879 298 880 q 300 882 300 880 m 156 457 q 151 605 151 524 q 163 776 151 686 q 56 773 94 776 q 14 770 19 770 q -68 807 -34 770 q -103 892 -103 844 q -64 981 -103 947 q 14 1015 -30 1010 q 150 1020 84 1020 q 281 1016 216 1020 q 307 1019 292 1019 q 343 1012 323 1019 q 595 979 468 1002 q 654 949 629 972 q 677 917 667 936 q 690 861 690 890 q 685 826 690 844 q 655 774 675 795 q 624 753 642 762 q 564 741 597 741 q 541 742 551 741 q 406 762 471 754 q 395 605 395 682 q 427 266 395 450 q 464 69 445 168 q 467 42 467 56 q 454 -14 467 12 q 433 -45 445 -31 q 381 -75 411 -65 q 350 -80 363 -80 q 258 -43 294 -80 q 228 14 235 -20 q 186 234 206 125 q 156 457 165 343 z "},"U":{"ha":671,"x_min":-56,"x_max":699,"o":"m -54 913 q -16 996 -54 963 q 71 1028 23 1028 q 157 989 123 1028 q 190 914 184 958 q 204 750 199 830 q 214 571 209 670 q 233 354 218 472 q 233 346 233 353 q 243 269 239 294 q 267 174 255 209 q 271 165 270 170 q 284 170 281 168 q 288 174 288 172 q 335 220 313 190 q 407 366 376 278 q 454 650 454 500 q 454 675 454 662 q 435 909 450 792 q 435 922 435 916 q 473 1005 435 971 q 559 1039 511 1039 q 646 998 612 1039 q 678 926 673 967 q 697 644 697 781 q 662 374 697 506 q 590 172 631 254 q 538 85 566 122 q 491 27 511 47 q 452 -8 471 7 q 350 -66 406 -45 q 266 -81 308 -81 q 122 -30 182 -81 q 60 43 84 3 q 60 46 60 45 q 7 205 19 123 q -17 393 -5 288 q -34 633 -28 499 q -54 898 -39 766 q -54 913 -54 906 z "},"V":{"ha":637,"x_min":-62,"x_max":720,"o":"m -58 935 q -61 959 -61 948 q -26 1047 -61 1010 q 31 1080 -1 1072 q 70 1085 49 1085 q 113 1076 91 1085 q 179 993 167 1053 q 227 753 205 872 q 274 517 248 635 q 283 471 274 515 q 316 331 294 418 q 442 719 388 505 q 476 958 472 838 q 522 1050 476 1017 q 600 1076 557 1076 q 678 1048 643 1076 q 719 960 719 1016 q 719 954 719 958 q 681 670 716 810 q 601 397 646 530 q 494 130 553 260 q 450 44 481 102 q 382 -57 418 -14 q 331 -92 363 -83 q 297 -99 312 -99 q 205 -64 240 -99 q 182 -31 190 -49 q 96 208 132 85 q 36 451 61 330 q -11 694 11 572 q -58 935 -33 815 m 309 73 q 305 73 307 73 q 285 76 293 73 q 294 52 289 64 q 309 73 302 62 z "},"W":{"ha":1150,"x_min":-69,"x_max":1206,"o":"m 321 -20 q 279 -48 301 -41 q 237 -56 256 -56 q 145 -15 183 -56 q 113 58 117 15 q 110 80 111 71 q 106 100 107 91 q 104 114 106 110 q 94 164 100 127 q 85 214 88 201 q 74 261 81 227 q 50 362 66 296 q 19 498 34 429 l -39 742 q -50 784 -46 764 q -57 814 -54 804 q -68 879 -68 857 q -30 975 -68 936 q 52 1009 4 1009 q 144 971 106 1009 q 176 892 176 939 q 178 886 176 890 q 182 867 179 880 q 189 833 184 853 q 198 793 194 814 q 228 669 213 730 q 263 524 252 571 q 283 437 274 476 q 294 388 292 399 q 372 535 334 456 q 444 705 411 614 q 483 888 477 796 q 521 970 486 937 q 608 1004 559 1004 q 666 990 637 1004 q 692 971 680 982 q 722 914 713 948 q 764 736 746 826 q 802 559 783 647 q 857 349 830 434 q 897 446 882 395 q 897 448 897 448 q 939 652 928 547 q 955 814 949 758 q 960 869 960 869 q 1000 950 967 917 q 1081 983 1034 983 q 1172 945 1134 983 q 1204 867 1204 913 q 1204 854 1204 861 l 1180 614 q 1128 368 1166 490 q 1127 366 1128 366 q 1042 181 1095 266 q 921 19 990 96 q 864 -16 898 -7 q 837 -20 849 -20 q 746 15 781 -20 q 726 42 734 26 q 609 330 656 165 q 585 418 597 373 q 469 205 532 309 q 339 0 406 102 q 321 -20 331 -11 m 264 142 q 236 149 248 142 q 237 141 236 148 q 240 123 239 134 q 243 109 241 113 q 244 103 244 104 q 270 142 256 123 q 264 142 267 142 m 613 869 l 613 869 l 613 869 m 586 701 q 633 699 610 708 q 627 730 632 703 q 610 806 621 757 q 586 701 601 753 m 840 132 q 831 133 836 132 q 834 126 833 129 q 840 132 837 129 z "},"X":{"ha":677,"x_min":-41,"x_max":760,"o":"m 365 479 q 357 479 361 479 q 350 479 354 479 q 353 473 351 477 q 358 463 355 469 q 365 479 359 471 m 349 404 q 356 404 350 404 q 370 401 362 404 q 359 427 361 422 q 349 404 357 415 m -39 935 q -31 979 -39 956 q -3 1019 -22 1001 q 22 1038 8 1029 q 85 1055 52 1055 q 168 1023 134 1055 q 187 997 180 1010 q 304 787 248 891 l 361 684 q 425 803 395 743 q 521 1034 480 914 q 548 1080 530 1062 q 589 1108 566 1099 q 633 1118 613 1118 q 726 1081 689 1118 q 758 1002 758 1047 q 751 962 758 982 q 638 686 703 814 q 502 442 574 557 q 584 285 538 363 q 685 119 629 206 q 704 56 704 90 q 696 14 704 37 q 669 -27 688 -8 q 643 -47 658 -39 q 579 -64 613 -64 q 495 -31 529 -64 q 477 -8 486 -20 q 345 210 410 98 q 324 184 332 194 q 258 77 271 115 q 252 52 252 64 q 210 -42 252 -8 q 132 -69 175 -69 q 54 -43 90 -69 q 8 52 8 -9 q 45 199 8 129 q 115 309 76 259 q 171 387 146 353 q 213 446 195 420 q 100 652 159 545 q -24 875 42 760 q -39 935 -39 905 z "},"Y":{"ha":540,"x_min":-165,"x_max":742,"o":"m -28 951 l -37 967 l -39 968 l -28 951 m 172 27 q 164 230 164 132 q 168 445 164 328 q 164 452 167 448 q 84 567 114 507 q 30 685 54 627 q -26 785 5 743 q -102 849 -54 823 q -133 871 -119 859 q -164 951 -164 903 q -148 1015 -164 985 q -85 1069 -126 1053 q -43 1077 -65 1077 q 15 1062 -14 1077 q 154 951 99 1019 q 244 803 209 884 q 286 705 285 707 q 446 954 359 789 q 514 1072 492 1039 q 614 1128 549 1128 q 678 1112 648 1128 q 732 1050 716 1090 q 741 1008 741 1029 q 723 947 741 977 q 653 825 688 887 q 581 701 618 764 q 415 491 500 574 q 408 233 408 330 q 416 37 408 136 q 416 28 416 33 q 378 -56 416 -22 q 292 -90 340 -90 q 209 -54 243 -90 q 172 27 175 -19 m 614 993 l 628 1000 l 629 1001 l 614 993 m 281 529 q 277 529 279 529 q 281 525 278 528 q 281 529 281 528 z "},"Z":{"ha":723,"x_min":-34,"x_max":779,"o":"m 453 798 q 302 814 384 814 q 117 795 212 814 q 90 792 103 792 q 33 806 60 792 q 3 827 15 814 q -28 882 -20 850 q -33 914 -33 898 q -20 970 -33 943 q 3 1001 -11 987 q 62 1032 27 1027 q 301 1057 189 1057 q 384 1053 301 1057 q 703 958 564 1039 q 728 939 716 949 q 760 886 750 917 q 764 854 764 868 q 746 789 764 817 q 604 598 680 688 l 492 467 l 456 423 q 292 205 355 304 q 336 216 321 212 q 351 221 350 221 q 482 267 416 240 q 583 308 548 294 q 620 321 618 321 q 652 328 637 328 q 742 290 704 328 q 779 203 779 254 q 742 121 779 156 q 693 90 722 99 q 547 32 620 62 q 392 -20 475 1 q 220 -46 302 -46 q 37 1 119 -46 q 8 22 20 11 q -26 109 -26 57 q -12 164 -26 137 q 114 379 43 278 q 266 574 184 480 l 361 685 l 392 722 q 453 798 423 758 z "},"[":{"ha":420,"x_min":-3,"x_max":502,"o":"m 247 963 q 244 903 244 941 q 248 806 244 864 q 251 730 251 747 q 250 678 251 712 q 251 604 250 644 q 256 399 251 499 q 259 251 259 345 q 256 100 259 157 q 277 100 266 100 q 358 106 316 100 q 373 107 365 107 q 456 68 422 107 q 490 -15 490 30 q 449 -104 490 -71 q 376 -137 418 -132 q 270 -144 323 -144 q 221 -142 258 -144 q 153 -140 184 -141 q 119 -140 122 -140 q 45 -109 80 -137 q 11 -64 22 -90 q 4 -23 4 -45 q 4 -9 4 -16 q 15 186 15 88 q 12 393 15 258 q 8 621 8 529 q 4 804 8 713 q 4 966 -1 884 q 12 1036 5 986 q 69 1149 22 1101 q 233 1207 127 1207 q 315 1201 277 1207 q 382 1195 353 1195 q 476 1149 442 1195 q 502 1071 502 1114 q 475 993 502 1028 q 382 951 441 951 q 313 956 351 951 q 247 963 275 962 z "},"\\":{"ha":472,"x_min":-83,"x_max":555,"o":"m 553 -5 q 518 -88 553 -53 q 463 -121 495 -113 q 424 -126 445 -126 q 381 -117 403 -126 q 313 -34 327 -94 q 237 212 283 91 q 136 453 190 334 l 26 697 q -75 952 -31 823 q -81 993 -81 972 q -49 1072 -81 1038 q 5 1103 -26 1095 q 43 1108 23 1108 q 87 1099 64 1108 q 130 1071 111 1089 q 157 1024 148 1053 q 254 781 201 901 q 354 557 290 700 q 468 287 418 414 q 551 26 518 160 q 553 -5 553 11 z "},"]":{"ha":420,"x_min":-95,"x_max":406,"o":"m 159 92 q 163 138 163 119 q 156 330 163 156 q 157 387 156 343 q 156 439 157 430 q 154 545 155 484 q 152 633 153 606 q 148 806 148 713 q 151 955 148 898 q 115 955 141 955 q 65 952 90 955 q 34 949 41 949 q -50 988 -18 949 q -83 1073 -83 1027 q -43 1160 -83 1126 q 31 1192 -12 1187 q 142 1199 87 1199 q 235 1197 186 1199 q 285 1195 285 1195 q 362 1164 327 1192 q 396 1119 385 1145 q 403 1078 403 1100 q 403 1065 403 1072 q 391 859 391 962 q 396 621 391 755 q 399 442 399 543 q 401 277 399 342 q 406 156 406 190 q 403 86 406 115 q 395 20 400 57 q 338 -94 385 -46 q 174 -152 279 -152 q 92 -146 130 -152 q 24 -140 53 -140 q -69 -94 -35 -140 q -95 -16 -95 -58 q -68 62 -95 27 q 24 104 -34 104 q 93 99 56 104 q 159 92 130 94 z "},"^":{"ha":538,"x_min":-41,"x_max":581,"o":"m 530 663 q 562 567 541 600 q 576 530 574 547 q 579 499 579 514 q 571 462 579 484 q 544 420 563 439 q 518 400 533 408 q 454 384 488 384 q 372 416 404 384 q 351 442 361 427 q 318 514 330 477 q 300 586 307 551 q 290 644 293 621 q 283 678 286 666 q 260 639 274 659 q 233 597 247 618 q 203 521 206 552 q 165 439 198 472 q 84 406 132 406 q -7 444 31 406 q -39 521 -39 476 q -39 534 -39 528 q -20 618 -35 579 q 49 754 3 680 q 77 808 65 780 q 100 864 90 836 q 122 922 110 892 q 194 1046 149 993 q 234 1077 212 1067 q 278 1086 256 1086 q 368 1054 330 1086 q 461 928 427 1002 q 522 724 510 818 q 530 663 525 693 m 283 941 q 289 941 286 941 q 286 944 288 943 q 283 941 285 943 z "},"_":{"ha":1146,"x_min":-68,"x_max":1214,"o":"m 1187 95 q 1214 16 1214 60 q 1187 -62 1214 -27 q 1095 -104 1153 -104 q 859 -100 1016 -104 q 517 -95 633 -95 q 295 -97 401 -95 q 60 -110 189 -99 q 50 -110 56 -110 q -34 -72 0 -110 q -68 14 -68 -34 q -30 99 -68 65 q 49 134 4 130 q 290 147 180 145 q 465 149 400 149 q 806 144 647 149 q 1095 138 966 140 q 1187 95 1154 138 z "},"`":{"ha":764,"x_min":161,"x_max":602,"o":"m 601 848 q 583 785 601 815 q 521 732 560 749 q 476 723 499 723 q 419 738 446 723 q 206 872 308 795 q 173 914 183 890 q 163 962 163 939 q 199 1051 163 1016 q 280 1088 235 1088 q 365 1057 326 1088 q 536 952 434 1002 q 568 928 555 943 q 601 848 601 897 m 475 831 q 475 831 475 831 l 475 831 z "},"a":{"ha":674,"x_min":-26,"x_max":674,"o":"m 456 -41 q 304 -62 378 -62 q 132 -26 213 -62 q 33 52 69 3 q -26 236 -26 130 q -1 376 -26 308 q 28 452 11 411 q 66 522 46 492 q 104 569 87 552 q 138 600 122 586 q 239 640 182 631 q 315 647 277 647 q 430 636 366 647 q 461 631 446 635 q 547 663 498 663 q 632 625 598 663 q 667 549 662 593 q 674 429 674 490 q 670 297 674 368 q 663 127 663 175 q 664 62 663 80 q 665 39 665 43 q 623 -49 665 -18 q 544 -76 587 -76 q 465 -49 500 -76 q 456 -41 460 -45 m 232 308 q 220 267 225 288 q 216 236 216 245 q 217 218 216 227 q 224 199 218 210 q 230 197 225 198 q 236 195 235 195 q 312 183 274 183 q 420 208 369 183 q 429 382 429 317 q 415 389 425 385 q 332 403 397 399 q 309 403 321 403 q 283 401 288 403 q 279 400 279 400 q 232 308 256 372 m 521 487 q 537 476 533 479 q 536 496 536 487 q 521 487 529 491 m 528 114 q 517 106 524 111 q 528 99 522 103 q 528 114 528 106 z "},"b":{"ha":699,"x_min":-7,"x_max":732,"o":"m 22 575 l 22 614 q 11 799 22 701 q -5 1008 0 897 q -5 1016 -5 1012 q 34 1103 -5 1070 q 113 1133 69 1133 q 193 1105 157 1133 q 239 1015 236 1073 q 254 819 244 907 q 266 662 263 731 q 395 677 339 677 q 507 663 452 677 q 612 618 563 648 q 699 519 670 582 q 732 355 732 445 q 650 110 732 213 q 576 31 618 69 q 481 -33 534 -8 q 479 -34 480 -34 q 402 -52 439 -52 q 334 -42 365 -52 q 224 11 282 -26 q 212 19 214 18 q 195 4 203 11 q 117 -23 160 -23 q 38 4 73 -23 q -5 98 -5 37 q -5 123 -5 110 q 1 279 -5 202 q 15 434 8 357 q 3 487 3 461 q 22 553 3 524 l 22 575 m 430 429 q 419 431 430 430 q 382 433 408 433 q 256 407 332 433 q 247 300 255 384 q 284 265 266 283 q 328 233 302 247 q 353 217 335 229 q 388 194 376 199 q 453 252 426 217 q 487 331 486 292 q 488 340 487 332 q 488 360 488 347 q 488 386 488 373 q 480 412 487 399 q 472 418 477 416 q 430 429 452 426 m 163 517 q 156 522 159 519 q 155 513 156 517 q 163 517 159 515 m 164 191 q 142 210 151 203 q 133 217 134 216 q 132 172 132 195 q 164 191 145 187 z "},"c":{"ha":513,"x_min":-34,"x_max":567,"o":"m 449 438 q 416 439 449 438 q 307 415 362 439 q 240 376 256 391 q 222 357 228 365 q 212 319 212 342 q 217 283 212 301 q 245 240 227 254 q 343 208 289 208 q 372 210 358 208 q 397 213 385 213 q 454 199 427 213 q 515 125 500 176 q 519 92 519 109 q 506 35 519 64 q 483 3 496 16 q 421 -28 458 -22 q 342 -34 384 -34 q 254 -26 300 -34 q 92 50 164 -7 q -15 202 16 110 q -34 315 -34 258 q -26 388 -34 351 q 58 540 -5 475 q 183 625 114 594 q 412 684 305 684 q 453 682 437 684 q 534 643 500 675 q 567 562 567 610 q 529 472 567 510 q 449 438 495 438 z "},"d":{"ha":623,"x_min":-47,"x_max":614,"o":"m 260 174 q 306 168 282 170 q 370 165 330 167 q 365 380 369 273 q 297 345 327 363 q 286 338 296 343 q 221 290 241 311 q 197 247 198 267 q 203 217 198 233 q 216 193 209 199 q 260 174 228 182 m -46 240 q 54 467 -46 365 q 171 553 100 513 q 286 610 225 586 q 355 629 320 623 q 345 1024 347 829 q 345 1025 345 1025 q 387 1118 345 1084 q 465 1145 422 1145 q 544 1118 509 1145 q 587 1025 587 1085 q 594 760 589 892 l 605 490 q 614 144 614 260 q 612 -56 614 -7 q 566 -145 609 -113 q 487 -172 530 -172 q 408 -145 444 -172 q 369 -79 376 -119 l 353 -79 q 243 -71 317 -79 q 159 -50 199 -65 q 156 -49 157 -50 q 81 -9 117 -34 q 11 64 38 18 q -30 149 -14 103 q -46 240 -46 194 z "},"e":{"ha":609,"x_min":-47,"x_max":643,"o":"m 435 693 q 530 639 488 674 q 602 543 576 601 q 625 450 621 499 q 625 437 625 444 q 570 309 625 365 q 552 293 562 301 q 604 263 582 285 q 636 210 625 241 q 642 178 642 193 q 621 109 642 137 q 511 1 574 46 q 338 -50 437 -50 q 214 -24 275 -50 q 98 56 151 4 q 15 175 45 109 q -23 307 -15 241 q -39 336 -31 317 q -47 380 -47 355 q -26 452 -47 418 q 0 480 -15 469 q 122 643 38 579 q 217 696 167 675 q 326 716 270 716 q 435 693 382 716 m 103 366 q 118 378 111 373 q 109 391 113 384 q 96 378 103 384 q 103 366 100 373 m 416 240 q 354 236 388 236 q 259 239 302 236 q 309 201 278 216 q 327 195 320 197 q 334 194 328 195 q 345 193 343 193 q 369 199 361 195 q 387 210 377 203 q 416 240 399 221 z "},"f":{"ha":450,"x_min":-137,"x_max":680,"o":"m 52 670 q 50 726 50 694 q 57 803 50 761 q 129 989 72 903 q 260 1131 183 1072 q 373 1184 313 1173 q 407 1187 389 1187 q 509 1158 458 1187 q 575 1119 545 1138 q 625 1080 605 1100 q 659 1035 646 1059 q 678 970 678 1001 q 669 926 678 948 q 646 888 661 903 q 552 849 605 849 q 472 880 505 849 q 452 909 460 892 q 433 921 442 916 q 406 939 420 929 q 390 923 399 933 q 372 903 381 913 q 312 815 331 861 q 293 715 293 769 q 294 682 293 703 q 399 689 395 689 q 481 652 448 689 q 514 566 514 614 q 476 480 514 514 q 396 446 444 449 l 330 441 q 340 375 332 423 q 366 232 349 327 q 392 37 384 137 q 392 23 392 30 q 355 -59 392 -26 q 269 -92 317 -92 q 183 -54 217 -92 q 148 22 153 -23 q 148 24 148 23 q 121 229 140 129 q 85 427 102 328 q -16 425 34 425 q -110 468 -77 425 q -137 547 -137 503 q -110 625 -137 590 q -18 669 -77 669 q 52 670 16 669 m 201 551 q 182 566 190 556 q 175 557 179 562 l 201 551 z "},"g":{"ha":570,"x_min":-90,"x_max":604,"o":"m 213 197 q 226 191 220 193 q 235 187 232 189 q 240 186 239 186 q 342 171 294 172 q 275 419 324 263 q 271 408 273 412 q 264 391 267 399 q 212 217 216 283 l 212 201 q 212 197 212 198 q 213 197 213 197 m 119 -298 q 159 -321 137 -315 q 193 -328 180 -328 q 213 -327 206 -328 q 262 -312 239 -324 q 297 -281 283 -301 q 297 -279 297 -281 q 349 -155 338 -222 q 358 -73 355 -114 q 332 -73 350 -73 q 288 -71 315 -73 q 69 -3 163 -60 q 1 72 26 23 q -31 203 -31 133 q -7 359 -31 281 q 37 479 12 419 q 64 540 39 487 q 122 621 85 585 q 214 677 160 659 q 267 743 228 719 q 328 760 296 760 q 359 757 343 760 q 416 726 393 749 q 438 696 431 711 q 460 640 450 667 q 553 336 506 517 q 602 -16 602 157 q 564 -288 602 -176 q 513 -399 545 -346 q 422 -499 477 -457 q 307 -557 370 -540 q 202 -571 255 -571 q 62 -545 127 -571 q -54 -469 -7 -517 q -88 -391 -88 -435 q -88 -376 -88 -382 q -51 -302 -81 -332 q 23 -264 -20 -271 q 38 -264 30 -264 q 119 -298 83 -264 m 464 58 q 465 58 464 58 q 464 60 465 58 q 464 58 464 60 z "},"h":{"ha":670,"x_min":-27,"x_max":677,"o":"m 354 438 l 343 438 q 263 404 298 438 q 255 241 260 321 q 212 42 247 141 q 160 -24 198 1 q 98 -43 132 -43 q 12 -7 47 -43 q -26 79 -26 31 q -19 118 -26 98 q 9 233 1 174 q 19 358 16 293 q 20 373 19 359 q 20 399 20 387 q 22 431 20 412 q 20 452 20 439 q 26 481 20 465 l 30 551 q 53 753 33 598 q 62 866 60 808 q 69 979 65 924 q 103 1109 73 1047 q 127 1142 113 1127 q 208 1175 159 1175 q 269 1158 240 1175 q 323 1096 305 1137 q 332 1051 332 1074 q 319 996 332 1023 q 305 926 307 970 q 305 875 305 901 q 304 818 305 834 l 288 678 q 342 682 316 682 q 467 661 404 682 q 590 575 543 635 q 632 505 617 541 q 667 353 661 433 q 675 258 673 288 q 677 197 677 229 q 673 26 677 110 q 627 -66 673 -34 q 549 -92 591 -92 q 471 -65 506 -92 q 430 23 430 -33 q 431 89 430 23 q 433 180 433 155 q 431 239 433 205 q 427 294 429 267 q 422 339 426 320 q 417 370 419 358 q 413 389 415 381 q 410 399 411 396 q 408 406 410 403 q 406 410 407 408 q 404 415 406 412 q 402 420 403 418 q 400 422 401 422 q 391 429 395 425 q 354 438 372 438 m 164 532 l 163 495 q 189 518 175 507 q 164 532 175 522 z "},"i":{"ha":312,"x_min":-5,"x_max":297,"o":"m 161 715 l 164 716 q 163 715 164 715 l 161 715 m 137 704 l 137 704 q 137 704 137 704 m 42 277 q 45 330 45 312 q 43 425 45 347 q 53 532 43 477 q 77 586 57 563 q 33 637 45 606 q 24 664 28 650 q 19 700 19 678 q 26 742 19 722 q 65 808 35 784 q 95 831 77 823 q 165 850 126 850 q 237 825 206 850 q 258 807 251 814 q 282 770 274 791 q 289 755 285 764 q 296 719 296 738 q 292 685 296 709 q 273 640 288 661 q 256 620 263 627 q 241 606 250 613 q 279 562 266 590 q 292 503 292 533 q 289 474 292 490 q 286 447 286 458 q 288 399 286 435 q 289 363 289 363 q 258 98 289 245 q 240 5 245 37 q 235 -27 235 -27 q 205 -85 228 -61 q 172 -109 191 -99 q 115 -122 144 -122 q 83 -118 99 -122 q 8 -57 31 -103 q -5 0 -5 -30 q 23 157 -5 33 q 42 277 37 216 z "},"j":{"ha":313,"x_min":-374,"x_max":368,"o":"m 20 761 q 21 771 20 766 q 22 780 22 776 q 58 870 22 837 q 142 903 94 903 l 155 903 q 201 892 175 903 q 205 891 202 892 q 275 834 254 875 q 292 774 292 807 q 275 713 292 747 q 221 654 259 674 q 164 639 193 639 q 149 640 156 639 q 142 640 145 640 q 57 675 92 640 q 31 713 41 690 q 20 761 20 735 m 163 762 q 163 762 163 762 q 163 762 163 762 m 368 -232 q 317 -439 368 -351 q 244 -524 290 -488 q 145 -573 198 -559 q 41 -587 92 -587 q 39 -587 41 -587 q -161 -546 -64 -586 q -332 -438 -258 -506 q -373 -355 -373 -403 q -373 -340 -373 -349 q -336 -268 -366 -298 q -263 -231 -307 -237 q -245 -229 -254 -229 q -167 -262 -202 -229 q -58 -324 -121 -301 q 35 -343 -11 -343 q 60 -342 46 -343 q 85 -336 75 -340 q 98 -329 96 -331 q 101 -326 100 -327 q 103 -323 102 -324 q 118 -286 114 -308 q 123 -229 123 -259 q 102 -70 123 -152 q 61 100 81 12 q 23 300 38 199 q 14 415 14 362 q 18 513 14 468 q 57 595 24 563 q 137 628 90 628 q 229 590 191 628 q 262 511 262 557 q 260 485 262 506 q 258 429 258 464 q 270 301 258 363 q 315 91 289 197 q 357 -102 346 -35 q 368 -232 368 -175 z "},"k":{"ha":605,"x_min":-7,"x_max":689,"o":"m 155 338 q 155 324 155 328 q 153 312 155 320 q 157 292 156 305 q 157 259 157 278 q 187 273 171 270 q 180 301 180 286 q 184 327 180 316 q 155 338 167 330 m 570 24 q 570 24 570 24 l 570 24 m 23 -7 q 24 26 23 -4 q 26 94 26 57 q 20 282 26 198 q 18 309 18 297 q 19 331 18 321 q -1 648 9 491 q -7 811 -7 727 q 0 985 -7 895 q 0 987 0 986 q 39 1068 7 1035 q 121 1101 72 1101 q 212 1063 174 1101 q 244 986 244 1031 q 244 972 244 979 q 237 821 237 891 q 242 677 237 751 q 252 511 247 602 q 309 545 281 529 q 456 637 384 589 q 522 659 487 659 q 563 651 541 659 q 604 624 585 643 q 624 598 616 613 q 640 534 640 568 q 586 433 640 469 q 434 335 511 381 q 374 300 404 319 q 468 236 420 269 q 646 102 559 172 q 678 60 669 84 q 688 14 688 37 q 651 -76 688 -41 q 650 -79 651 -77 q 568 -111 614 -111 q 484 -81 521 -111 q 327 37 407 -19 q 269 77 298 57 q 266 -7 269 35 q 221 -96 263 -65 q 142 -123 186 -123 q 64 -96 99 -123 q 23 -7 23 -64 z "},"l":{"ha":292,"x_min":-3,"x_max":283,"o":"m 57 1095 q 145 1133 95 1133 q 235 1092 201 1133 q 267 1017 262 1059 q 282 696 282 869 q 264 232 282 479 q 245 -25 245 -24 q 245 -27 245 -26 q 206 -108 239 -75 q 125 -141 174 -141 q 35 -103 73 -141 q 1 -14 -3 -66 l 22 243 q 39 696 39 476 q 24 1002 39 863 q 24 1016 24 1009 q 57 1095 24 1061 z "},"m":{"ha":1015,"x_min":15,"x_max":1062,"o":"m 151 467 q 151 450 151 458 q 163 463 156 457 q 151 467 156 464 m 555 366 q 514 365 534 359 q 538 270 528 323 q 555 366 544 324 m 334 423 q 259 368 290 399 q 265 218 260 296 q 282 60 270 141 q 283 38 283 50 q 271 -22 283 5 q 250 -53 262 -39 q 198 -83 229 -73 q 163 -88 180 -88 q 107 -75 134 -88 q 75 -52 88 -65 q 45 9 49 -27 q 20 252 24 132 q 15 492 15 372 q 47 575 15 543 q 138 612 84 612 q 170 608 155 612 q 342 669 259 669 q 502 598 435 669 q 533 563 518 582 q 665 648 585 628 q 715 655 692 655 q 785 636 754 655 q 850 568 822 613 q 936 419 895 503 q 970 345 954 381 q 1002 273 986 308 q 1039 186 1023 231 q 1061 91 1055 142 q 1061 79 1061 84 q 1022 -5 1061 27 q 936 -38 983 -38 q 852 0 886 -38 q 817 79 821 34 q 803 123 815 99 q 749 243 762 210 q 693 359 720 309 q 670 225 677 311 q 669 198 669 212 q 670 170 669 184 q 671 134 671 156 q 665 80 671 113 q 636 24 659 47 q 605 3 623 11 q 547 -12 576 -12 q 514 -8 530 -12 q 448 41 471 4 q 426 106 430 68 q 400 266 412 216 q 374 352 388 316 q 338 418 359 388 q 334 423 336 420 z "},"n":{"ha":564,"x_min":-20,"x_max":562,"o":"m 174 481 q 172 460 172 471 q 191 472 179 467 q 174 481 182 475 m 88 -1 q 88 -1 88 -1 l 88 -1 m 312 212 q 309 258 309 241 q 310 298 309 274 q 307 338 311 321 q 301 362 302 354 q 273 357 288 361 q 252 218 264 320 q 247 157 248 189 q 237 23 245 72 q 184 -95 221 -60 q 104 -127 153 -127 q 43 -110 72 -127 q -9 -49 8 -90 q -19 -3 -19 -27 q -7 52 -19 26 q 0 77 0 64 q 3 132 1 99 q 11 258 3 194 l 30 400 q 38 518 38 458 q 38 536 38 518 q 79 627 38 593 q 158 656 114 656 q 237 629 202 656 q 260 606 251 618 q 308 608 301 608 q 469 544 406 608 q 528 450 509 505 q 551 342 548 396 q 555 228 553 288 q 559 100 556 168 q 562 -39 562 31 q 518 -133 562 -100 q 440 -160 483 -160 q 362 -133 397 -160 q 319 -38 319 -100 q 312 212 319 52 z "},"o":{"ha":742,"x_min":-33,"x_max":789,"o":"m 467 454 l 456 454 q 319 423 391 454 q 316 422 317 423 q 251 388 285 410 q 216 350 227 372 q 213 346 214 349 q 212 342 212 343 q 229 283 212 317 q 233 274 231 279 q 249 273 241 273 q 262 274 256 273 q 275 275 269 275 q 290 277 282 275 q 301 279 298 279 q 411 317 357 290 q 506 376 479 350 q 509 378 506 376 q 524 391 518 385 q 530 399 529 397 q 535 406 532 400 q 541 414 538 411 q 545 420 544 418 q 545 425 545 422 q 534 437 541 430 q 523 444 524 444 q 522 445 522 445 q 467 454 496 454 m 382 693 q 444 697 415 697 q 486 696 472 697 q 596 677 543 694 q 694 623 650 659 q 769 521 743 583 q 789 429 789 475 q 697 220 789 312 q 681 206 689 213 q 392 52 557 94 q 321 35 358 42 q 241 28 283 28 q 80 71 149 28 q 56 90 66 79 q 26 142 34 113 q 11 179 19 160 q -24 269 -15 233 q -33 335 -33 304 q -8 448 -33 396 q 62 545 19 505 q 212 644 127 606 q 382 693 296 681 z "},"p":{"ha":643,"x_min":-7,"x_max":670,"o":"m 195 681 q 278 713 247 704 q 399 734 340 734 q 468 720 435 734 q 562 651 525 699 q 616 564 594 612 q 650 480 632 525 q 669 377 669 431 q 579 165 669 255 q 453 81 529 115 q 364 47 411 62 q 260 27 317 33 l 264 -141 q 277 -387 269 -263 q 277 -395 277 -391 q 237 -481 277 -449 q 160 -510 203 -510 q 81 -484 117 -510 q 34 -395 37 -452 q 16 37 19 -176 q 5 458 14 250 q -7 505 -7 481 q 0 545 -7 528 q -3 593 -3 589 q 34 677 -3 646 q 116 708 71 708 q 195 681 161 708 m 410 338 q 426 368 426 354 q 425 373 426 370 q 425 377 425 376 q 414 415 423 393 q 396 460 406 437 q 386 479 389 472 q 382 486 382 486 q 321 472 354 486 q 250 438 286 457 q 252 356 251 397 q 255 273 254 315 q 304 284 279 278 q 349 301 328 290 q 360 307 349 301 q 386 321 372 312 q 410 338 400 330 m 149 175 q 151 161 149 168 q 160 168 155 165 q 149 175 153 172 m 137 537 q 137 533 137 534 q 137 530 137 532 q 142 534 140 533 q 137 537 140 536 z "},"q":{"ha":612,"x_min":-34,"x_max":826,"o":"m 594 191 l 594 167 q 595 123 594 145 q 602 18 601 49 q 606 -71 604 -14 q 627 -176 609 -129 q 633 -187 628 -179 q 644 -192 635 -187 q 674 -208 654 -197 q 701 -203 689 -203 q 788 -241 750 -203 q 826 -328 826 -278 q 789 -411 826 -374 q 739 -442 769 -430 q 680 -454 709 -454 q 624 -446 650 -454 q 544 -415 581 -434 q 484 -378 519 -403 q 423 -313 448 -353 q 380 -184 391 -260 q 358 -11 362 -99 q 358 -9 358 -9 q 358 -2 358 -8 q 358 16 358 4 q 270 33 313 23 q 121 90 189 49 q 39 162 71 121 q -14 255 7 203 q -33 370 -33 307 q 8 529 -33 454 q 72 604 33 572 q 73 605 72 604 q 163 656 115 637 q 408 715 277 701 q 454 755 426 742 q 510 768 481 768 q 544 764 528 768 q 597 734 575 754 q 618 703 609 720 q 631 643 631 675 q 629 621 631 631 q 613 479 618 551 q 599 277 604 330 q 594 191 594 225 m 227 415 q 210 372 210 403 q 218 332 210 355 q 221 327 220 330 q 232 311 225 320 q 235 307 235 308 q 238 304 236 307 q 243 301 240 302 q 258 293 248 298 q 354 264 285 278 l 359 331 q 368 464 363 411 q 338 457 349 460 q 313 450 328 454 q 227 415 255 435 z "},"r":{"ha":568,"x_min":8,"x_max":636,"o":"m 157 456 q 144 465 151 460 q 144 448 144 456 q 157 456 148 450 m 240 614 q 399 644 324 644 q 595 575 514 644 q 625 536 614 559 q 636 490 636 513 q 600 403 636 439 q 526 366 570 373 q 507 365 517 365 q 430 393 465 365 q 406 401 422 401 q 339 389 378 401 q 254 354 294 376 q 260 266 256 311 q 269 155 266 210 q 289 57 273 100 q 296 15 296 37 q 263 -64 296 -30 q 209 -95 240 -87 q 171 -100 191 -100 q 127 -91 151 -100 q 84 -64 103 -81 q 38 61 50 -28 q 28 143 30 127 q 24 191 27 159 q 16 277 20 222 q 8 430 8 359 q 12 556 8 500 q 60 646 16 614 q 138 671 95 671 q 216 643 182 671 q 240 614 231 631 z "},"s":{"ha":661,"x_min":-27,"x_max":688,"o":"m 500 515 q 500 515 500 515 l 500 515 m 433 172 q 385 184 412 182 q 320 186 357 186 q 201 195 254 186 q 225 174 209 182 q 321 155 266 155 q 408 164 361 155 q 433 172 420 167 m 444 423 q 361 441 411 441 q 290 431 321 441 q 375 427 332 429 q 458 416 418 425 q 444 423 450 419 m 688 161 q 621 8 688 75 q 514 -57 574 -39 q 407 -83 452 -77 q 335 -88 362 -88 q 290 -87 308 -88 q 76 -20 164 -80 q -9 71 24 15 q -26 132 -26 99 q -17 176 -26 153 q 11 216 -8 198 q 69 250 35 241 q -1 340 20 286 q -14 406 -14 373 q -3 469 -14 439 q 62 574 18 529 q 237 667 127 639 q 354 684 298 684 q 563 635 469 684 q 594 613 581 625 q 625 533 625 581 q 609 471 625 500 q 545 416 587 433 q 503 408 525 408 q 492 408 498 408 q 610 342 566 387 q 652 286 635 317 q 688 161 688 227 z "},"t":{"ha":540,"x_min":-83,"x_max":593,"o":"m 473 541 q 566 499 532 541 q 593 420 593 464 q 566 342 593 377 q 475 298 533 298 q 446 298 461 298 q 414 298 430 298 q 410 155 414 227 q 387 -65 406 43 q 357 -129 382 -103 q 326 -151 343 -141 q 270 -164 298 -164 q 233 -159 251 -164 q 182 -129 203 -149 q 160 -98 170 -115 q 148 -42 148 -72 q 151 -16 148 -28 q 168 180 165 83 q 168 261 168 224 q 168 328 168 298 q 106 339 144 332 q 18 351 68 346 q -46 382 -20 357 q -71 420 -60 396 q -81 472 -81 445 q -77 505 -81 488 q -47 556 -68 536 q -15 579 -33 571 q 43 591 14 591 q 155 576 60 591 q 165 575 160 575 l 164 769 q 176 1005 164 886 q 216 1086 182 1053 q 297 1120 250 1120 q 388 1081 349 1120 q 420 1004 420 1048 q 420 990 420 997 q 407 753 407 871 q 410 544 407 675 q 473 541 442 541 m 275 441 q 296 416 289 431 q 304 425 300 422 q 283 448 290 434 q 275 441 279 444 z "},"u":{"ha":739,"x_min":-12,"x_max":768,"o":"m 564 206 q 595 198 582 206 q 583 302 587 254 q 556 206 574 247 q 564 206 560 206 m 681 572 q 689 562 685 568 q 711 490 711 526 q 709 475 711 481 q 764 28 712 267 q 766 4 766 15 q 731 -81 766 -46 q 674 -115 707 -106 q 635 -121 656 -121 q 593 -111 614 -121 q 526 -27 538 -88 q 521 0 524 -14 q 316 -62 427 -62 q 224 -50 267 -62 q 79 45 130 -24 q 14 180 33 106 q -8 328 -5 255 q -12 451 -12 438 q -12 464 -12 464 q 30 556 -12 522 q 109 583 65 583 q 187 556 152 583 q 232 467 231 524 q 234 359 233 411 q 244 264 235 307 q 247 252 244 263 q 267 201 252 222 q 270 197 269 198 q 281 189 277 191 q 317 183 297 183 q 362 190 338 183 q 439 283 419 210 q 452 345 449 313 q 458 414 456 377 q 465 488 460 450 q 499 579 467 547 q 518 594 509 587 q 587 614 551 614 q 681 572 639 614 z "},"v":{"ha":538,"x_min":-56,"x_max":579,"o":"m -52 567 q -54 591 -54 581 q -19 677 -54 642 q 38 711 5 701 q 77 716 56 716 q 119 707 98 716 q 186 623 174 684 q 203 576 190 601 q 233 519 217 551 q 261 450 250 484 q 282 387 273 416 q 320 538 312 476 q 339 627 327 583 q 369 680 347 659 q 408 705 385 696 q 452 715 431 715 q 556 663 518 715 q 579 597 579 633 q 574 560 579 578 q 556 477 562 522 q 536 382 551 431 q 507 294 522 336 q 476 208 491 251 q 457 145 468 179 q 372 -16 426 38 q 264 -69 319 -69 q 210 -56 236 -69 q 151 11 171 -33 q 123 77 145 22 q 84 182 94 151 q 66 251 75 214 q 52 304 57 288 q 46 324 46 321 q 5 426 33 374 q -22 484 -1 441 q -52 567 -43 526 m 288 96 q 281 95 283 95 q 262 96 270 95 q 270 75 266 85 q 288 96 279 83 z "},"w":{"ha":898,"x_min":-34,"x_max":945,"o":"m 624 -110 q 596 -113 612 -113 q 557 -104 581 -113 q 511 -73 533 -95 q 480 -26 488 -52 q 444 114 454 43 q 442 118 442 115 q 432 96 441 114 q 404 46 423 77 q 297 -83 363 -41 q 237 -102 267 -102 q 185 -90 208 -102 q 145 -61 163 -79 q 118 -15 126 -42 q 80 114 96 49 q 14 362 31 302 q -26 480 -3 422 q -33 519 -33 499 q 5 605 -33 567 q 91 642 41 642 q 174 605 138 642 q 205 556 195 585 q 270 353 244 456 q 275 330 273 340 q 309 422 292 368 q 315 439 309 423 q 329 483 320 454 q 339 540 338 511 q 374 617 342 587 q 464 654 414 654 q 522 639 494 654 q 578 566 564 617 q 612 445 597 498 q 639 354 628 392 q 705 564 682 453 q 736 624 712 600 q 768 646 749 636 q 822 659 793 659 q 859 654 841 659 q 932 593 909 637 q 945 536 945 566 q 943 507 945 521 q 897 350 925 427 q 889 330 897 349 q 867 271 882 311 q 791 123 842 203 q 760 64 773 96 q 731 -2 747 33 q 688 -69 715 -37 q 624 -110 662 -102 m 627 96 q 608 95 620 95 q 583 102 597 95 q 601 42 590 72 q 627 96 608 54 m 240 45 q 262 69 251 54 q 232 73 245 68 q 240 45 236 58 m 442 392 q 464 395 452 395 q 487 391 476 395 q 481 410 487 391 q 465 467 476 429 q 442 392 460 444 z "},"x":{"ha":612,"x_min":-41,"x_max":681,"o":"m 126 578 l 132 582 l 126 578 m 313 368 q 317 354 316 361 q 321 368 319 361 q 313 368 317 368 m 316 324 q 319 324 317 324 q 321 324 320 324 q 319 334 319 330 q 316 324 317 330 m 85 -30 q 72 -30 79 -30 q -4 7 27 -23 q -39 84 -35 38 q -41 95 -41 90 q -1 178 -41 142 q 119 294 98 273 q 163 342 141 316 q 30 510 119 396 q 0 595 0 549 q 35 675 0 642 q 126 713 72 713 q 214 671 180 713 q 302 557 296 566 q 316 586 302 560 q 355 661 330 612 q 377 692 365 678 q 457 723 410 723 q 521 705 491 723 q 574 644 556 685 q 583 600 583 623 q 568 541 583 570 q 513 437 537 484 q 468 351 490 389 q 648 129 505 305 q 680 43 680 91 q 646 -38 680 -4 q 553 -76 608 -76 q 467 -34 500 -76 l 317 151 q 167 3 267 96 q 85 -30 130 -30 z "},"y":{"ha":609,"x_min":-49,"x_max":671,"o":"m 331 111 q 321 111 326 111 q 312 111 317 111 q 317 102 315 106 q 321 95 320 98 q 331 111 326 104 m 62 536 l 62 536 q 62 536 62 536 m 515 681 q 545 686 532 686 q 574 683 559 686 q 608 670 590 680 q 666 598 651 644 q 671 566 671 581 q 650 498 671 529 q 608 411 623 458 q 514 171 572 285 q 456 58 487 115 q 452 50 454 54 q 416 -31 452 4 q 395 -49 407 -41 q 290 -224 343 -136 q 180 -407 236 -313 q 160 -434 171 -423 q 79 -467 127 -467 q 15 -450 45 -467 q -39 -388 -23 -429 q -47 -346 -47 -368 q -30 -285 -47 -315 q 81 -98 27 -186 q 180 69 134 -11 q 77 267 129 163 q -31 481 26 370 q -46 536 -46 509 q -9 624 -46 586 q 16 643 3 635 q 80 661 46 661 q 160 629 127 661 q 182 598 172 616 q 267 433 233 500 q 319 328 300 366 q 347 397 334 362 q 387 512 368 450 q 446 629 407 574 q 515 681 472 669 z "},"z":{"ha":636,"x_min":-27,"x_max":669,"o":"m 407 228 q 548 227 514 227 q 639 186 605 227 q 669 106 669 151 q 640 26 669 61 q 549 -16 606 -16 q 505 -16 519 -16 q 433 -16 491 -16 q 320 -15 376 -15 l 198 -16 q 87 -9 138 -16 q 12 27 42 -3 q -23 113 -23 64 q -16 155 -23 132 q 28 213 -4 189 q 126 300 81 252 q 240 406 176 354 q 65 429 153 410 q 5 460 30 437 q -18 496 -8 475 q -27 538 -27 517 q 26 644 -27 604 q 96 667 56 667 q 123 665 110 667 q 223 650 172 655 q 328 643 274 646 l 437 637 q 549 625 494 635 q 610 594 583 621 q 647 525 639 566 q 648 500 648 515 q 640 467 648 486 q 586 382 621 418 q 467 274 530 326 q 407 228 438 251 m 133 122 q 178 121 156 121 q 165 151 168 134 q 133 122 151 137 m 479 498 q 487 476 486 488 q 503 495 496 486 q 479 498 491 496 z "},"{":{"ha":490,"x_min":-41,"x_max":600,"o":"m 564 50 q 600 -38 600 14 q 593 -71 600 -53 q 545 -137 581 -110 q 403 -187 476 -187 q 384 -187 393 -187 q 206 -100 283 -178 q 148 -24 174 -66 q 98 111 107 41 q 91 168 91 145 q 93 216 91 190 q 103 279 95 243 q 117 355 117 343 q 115 372 117 366 q 113 378 113 378 q 88 396 100 388 l 46 422 q -8 465 16 442 q -41 545 -41 498 q -35 581 -41 563 q -4 632 -26 610 q 45 663 18 654 q 68 672 58 669 q 83 678 77 675 q 92 682 84 680 q 102 689 95 685 q 102 692 102 692 q 102 697 102 693 q 104 707 103 701 q 104 713 104 712 l 104 734 q 103 762 103 749 q 98 823 102 774 q 94 890 94 872 q 95 928 94 909 q 114 1038 99 985 q 194 1152 134 1107 q 262 1184 227 1176 q 349 1195 305 1195 q 446 1184 382 1195 q 509 1154 483 1180 q 532 1122 522 1141 q 544 1066 544 1095 q 540 1032 544 1048 q 510 981 530 1001 q 477 958 495 966 q 419 945 449 945 q 394 947 404 945 q 351 952 384 949 l 346 952 q 345 952 346 952 q 342 951 343 952 q 339 940 339 944 q 338 925 339 936 q 336 903 336 914 q 338 852 336 869 q 341 822 340 836 q 345 779 342 808 q 347 716 347 749 q 319 579 347 637 q 294 540 309 557 q 317 510 309 524 q 350 432 342 469 q 358 362 358 395 q 351 283 358 321 q 340 228 343 244 q 336 203 338 212 q 335 176 335 195 q 339 136 335 157 q 374 72 347 99 q 395 57 387 60 q 404 62 400 58 q 475 87 438 87 q 511 81 494 87 q 564 50 543 71 m 123 534 q 123 539 123 536 q 125 548 123 543 q 116 545 119 547 q 110 543 113 544 q 123 534 114 540 m 345 963 q 345 963 345 963 q 345 963 345 963 l 345 963 z "},"|":{"ha":320,"x_min":1,"x_max":304,"o":"m 37 343 q 35 419 37 343 q 37 488 35 453 q 50 735 39 613 q 61 978 61 857 q 103 1070 61 1036 q 183 1099 138 1099 q 263 1069 228 1099 q 304 978 304 1035 q 293 728 304 852 q 278 425 278 567 q 279 347 278 425 q 255 118 279 254 q 245 19 245 69 q 202 -75 245 -42 q 123 -102 167 -102 q 45 -75 80 -102 q 1 19 1 -42 q 1 20 1 20 q 14 145 3 85 q 37 343 37 264 z "},"}":{"ha":530,"x_min":-83,"x_max":557,"o":"m 222 496 q 157 678 157 568 q 165 756 157 719 q 177 817 172 793 q 182 859 182 841 q 178 899 182 878 q 146 959 170 933 q 121 978 132 975 q 113 974 117 977 q 42 949 79 949 q 5 955 23 949 q -65 1009 -41 970 q -83 1070 -83 1039 q -76 1107 -83 1089 q -26 1172 -62 1146 q 115 1223 42 1223 q 133 1222 125 1223 q 311 1137 233 1214 q 369 1061 343 1103 q 419 925 410 996 q 426 869 426 891 q 424 820 426 846 q 414 757 422 793 q 400 681 400 692 q 403 662 400 670 q 407 655 406 656 q 433 637 416 647 q 524 572 498 598 q 557 491 557 538 q 552 456 557 473 q 520 402 543 425 q 468 370 498 380 q 437 359 444 363 q 428 355 433 357 q 422 351 423 353 l 415 346 q 415 343 415 346 q 415 338 415 340 q 414 328 414 335 q 413 318 414 321 q 412 313 412 315 q 413 306 412 312 q 414 286 414 300 q 415 260 414 273 q 421 198 419 236 q 423 142 423 160 q 404 -1 423 65 q 323 -115 384 -71 q 174 -160 263 -160 q 68 -149 122 -160 q 9 -119 34 -142 q -14 -87 -4 -106 q -27 -30 -27 -58 q -23 3 -27 -14 q 38 77 -8 54 q 95 91 65 91 q 121 88 109 91 q 161 84 142 84 l 175 84 q 177 93 176 87 q 178 104 178 99 q 180 133 180 122 q 176 198 180 167 q 170 317 170 270 q 222 496 170 429 m 395 500 q 395 500 395 500 q 393 488 395 494 q 406 492 399 491 q 395 500 401 496 m 95 -45 q 96 -45 95 -45 l 95 -45 z "},"~":{"ha":734,"x_min":-41,"x_max":774,"o":"m 647 547 q 662 547 655 547 q 736 509 705 540 q 773 435 766 479 q 773 420 773 429 q 739 339 773 376 q 670 275 707 307 q 586 220 633 243 q 469 193 529 193 q 370 214 420 193 q 278 270 320 236 q 220 302 251 292 q 201 307 208 307 q 144 283 180 307 q 80 263 114 263 q 37 272 60 263 q -3 300 15 281 q -22 324 -14 311 q -39 388 -39 354 q 15 490 -39 453 q 18 492 16 491 q 194 552 115 552 q 232 549 213 552 q 333 518 286 541 q 420 464 380 495 q 467 438 444 448 q 475 437 471 437 q 483 438 479 437 q 518 461 502 445 q 555 498 543 486 q 568 513 567 511 q 647 547 602 547 z "}," ":{"ha":430,"x_min":0,"x_max":0,"o":""},"¡":{"ha":288,"x_min":1,"x_max":343,"o":"m 4 24 l 3 277 q 4 405 3 331 q 15 571 5 479 q 46 755 24 663 q 77 814 54 791 q 132 844 99 836 q 79 905 96 864 q 68 954 68 930 q 75 997 68 977 q 119 1058 90 1034 q 201 1090 153 1090 q 286 1058 251 1090 q 323 1020 308 1040 q 326 1015 324 1017 q 343 955 343 985 q 339 926 343 940 q 297 860 330 886 l 293 854 q 251 829 277 838 q 233 825 241 826 q 262 796 250 812 q 285 727 285 765 q 282 696 285 711 q 254 534 262 617 q 245 392 247 452 q 244 290 244 332 q 246 179 244 247 q 248 24 248 111 q 205 -68 248 -35 q 126 -95 170 -95 q 47 -68 83 -95 q 4 24 4 -35 m 201 955 q 199 955 201 955 l 201 955 m 203 959 q 205 958 203 959 l 203 959 z "},"¢":{"ha":571,"x_min":-56,"x_max":618,"o":"m 193 502 q 197 488 194 491 q 197 507 197 496 q 193 502 194 505 m 288 307 q 304 283 298 296 q 312 290 308 288 q 297 312 302 301 q 288 307 292 309 m 292 705 q 292 712 292 708 q 293 722 292 716 q 281 711 288 716 q 292 705 286 709 m 309 761 q 308 753 309 757 q 315 758 311 755 q 309 761 312 760 m 433 666 q 441 500 441 583 q 437 425 441 477 q 494 441 464 441 q 533 434 513 441 q 601 380 576 418 q 618 319 618 350 q 612 282 618 300 q 564 217 598 244 q 452 168 514 179 q 408 163 430 164 q 399 28 403 95 q 353 -61 396 -28 q 273 -88 317 -88 q 195 -60 229 -88 q 156 28 156 -27 q 161 117 156 54 q 168 212 165 180 q 84 263 126 232 q 5 340 39 296 q -45 437 -28 384 q -54 500 -54 469 q -46 563 -54 532 q -9 640 -35 606 q 43 700 16 674 q 45 703 43 701 q 168 799 104 757 q 154 884 164 822 q 143 951 144 945 q 142 966 142 956 q 155 1024 142 996 q 178 1057 163 1042 q 229 1086 198 1077 q 262 1090 245 1090 q 313 1080 290 1090 q 351 1055 336 1069 q 381 996 376 1031 q 396 910 389 949 q 463 917 429 917 q 555 873 522 917 q 582 795 582 838 q 555 716 582 751 q 465 673 522 674 q 445 670 456 671 q 433 666 439 667 z "},"£":{"ha":852,"x_min":-54,"x_max":892,"o":"m 435 202 q 455 202 449 202 q 570 202 461 202 q 776 195 673 202 q 779 195 777 195 q 859 155 826 189 q 892 75 892 122 q 854 -15 892 23 q 776 -47 821 -47 q 764 -47 770 -47 q 589 -41 678 -41 q 409 -39 500 -41 q 224 -31 317 -38 q 37 0 130 -24 q -30 45 -5 11 q -54 118 -54 79 q -20 202 -54 168 q 31 235 4 227 q 52 242 46 240 q 73 251 58 244 q 197 309 153 282 q 247 351 225 328 q 259 385 259 365 l 119 385 q 26 429 58 385 q -1 507 -1 464 q 26 586 -1 551 q 119 629 58 629 l 197 629 q 180 743 180 686 q 199 857 180 800 q 273 968 221 924 q 536 1065 384 1065 q 618 1057 576 1065 q 768 978 704 1042 q 860 831 815 930 q 872 774 872 803 q 840 690 872 724 q 812 671 827 680 q 751 654 784 654 q 665 688 699 654 q 642 723 650 703 q 605 795 618 774 q 589 812 593 811 q 540 822 571 822 q 438 788 476 822 q 423 745 423 776 q 430 697 423 726 q 449 629 444 648 l 591 629 q 684 586 651 629 q 711 507 711 551 q 684 429 711 464 q 591 385 651 385 l 502 385 q 499 342 502 363 q 446 214 490 275 q 435 202 444 210 m 189 142 q 189 152 189 148 q 115 122 157 138 q 198 109 156 113 q 189 142 189 123 m 340 518 q 351 514 347 517 q 345 522 347 518 q 340 518 343 521 m 370 500 q 374 495 373 498 q 377 498 376 496 q 370 500 373 499 z "},"¤":{"ha":708,"x_min":-68,"x_max":754,"o":"m 349 773 q 450 753 400 773 q 571 836 515 802 q 633 854 601 854 q 676 846 654 854 q 713 822 699 837 q 753 728 753 781 q 720 646 753 680 q 686 621 709 636 q 614 572 650 597 q 635 455 635 515 q 614 339 635 395 q 644 298 628 321 q 682 250 659 274 q 716 170 716 214 q 716 155 716 161 q 679 81 709 111 q 605 43 648 50 q 590 43 598 43 q 509 80 544 43 q 449 153 475 115 q 434 174 442 164 q 315 153 368 153 q 212 178 263 153 q 189 157 201 167 q 115 106 153 127 q 54 88 85 88 q 10 97 33 88 q -27 121 -12 106 q -68 216 -68 161 q -35 296 -68 263 q -3 319 -24 307 q 33 345 18 332 q 57 365 49 358 q 52 419 52 393 q 83 568 52 491 q 85 576 83 570 q 94 594 88 582 q 20 707 45 650 q 8 762 8 734 q 42 848 8 814 q 68 867 54 860 q 129 883 96 883 q 160 880 144 883 q 216 849 193 872 q 239 815 229 834 q 271 762 250 791 q 349 773 309 773 m 297 426 q 297 425 297 426 q 297 420 297 425 q 299 412 297 416 q 303 405 301 407 q 308 401 305 403 q 313 399 311 400 q 321 397 316 397 q 351 401 338 397 q 377 412 372 408 l 385 423 q 389 435 388 431 q 391 448 389 442 l 391 465 q 387 487 389 469 q 384 494 385 490 q 378 507 380 503 q 377 510 377 510 q 369 521 369 521 q 362 526 362 526 l 351 528 l 345 528 q 335 526 338 528 q 332 524 334 525 q 330 518 331 521 q 307 473 315 498 q 297 426 298 448 z "},"¥":{"ha":754,"x_min":-69,"x_max":808,"o":"m 682 894 l 696 901 l 696 902 l 682 894 m 370 335 q 384 349 376 343 q 373 361 378 354 q 358 346 366 353 q 370 335 365 340 m 374 159 q 382 167 378 163 q 365 186 372 175 q 357 178 361 180 q 374 159 368 170 m 363 477 q 363 479 363 479 q 362 479 362 479 q 363 477 362 479 m 498 39 q 498 30 498 35 q 460 -55 498 -20 q 374 -90 423 -90 q 288 -50 321 -90 q 254 26 258 -16 q 251 58 252 42 q 198 60 225 60 q 106 103 138 60 q 79 182 79 138 q 106 260 79 225 q 125 279 114 271 q 102 354 102 312 q 129 431 102 396 q 197 471 155 464 q 121 609 157 529 q 115 623 121 610 q 100 656 110 636 q 77 692 91 677 q 74 697 77 693 q 62 708 71 701 q -4 755 35 736 q -35 780 -22 765 q -68 860 -68 811 q -52 921 -68 892 q 11 975 -30 958 q 56 985 33 985 q 113 970 85 985 q 244 869 190 929 q 334 732 298 808 q 370 652 351 692 q 449 758 411 699 q 517 869 487 817 q 582 974 548 922 q 684 1029 617 1029 q 747 1012 718 1029 q 800 948 785 990 q 807 914 807 929 q 804 883 807 899 q 788 848 802 867 q 722 738 755 793 q 651 625 688 682 q 537 477 597 540 q 579 481 574 481 q 633 471 610 481 q 670 446 655 461 q 700 395 690 426 q 704 362 704 378 q 693 311 704 334 q 616 244 669 255 q 650 160 650 206 q 613 71 650 106 q 533 38 582 38 q 498 39 526 38 z "},"¦":{"ha":278,"x_min":-26,"x_max":277,"o":"m 8 363 q 8 382 8 363 q 50 475 8 441 q 113 500 79 496 q 50 536 77 509 q 18 614 18 568 q 18 628 18 621 q 31 802 28 715 q 33 978 33 890 q 75 1070 33 1036 q 155 1099 110 1099 q 235 1070 199 1099 q 277 978 277 1036 q 275 795 277 887 q 262 612 273 704 q 224 530 255 563 q 157 499 197 503 q 206 476 183 492 q 252 384 252 444 q 252 349 252 374 q 235 190 252 305 q 222 104 228 146 q 217 19 217 61 q 174 -75 217 -42 q 95 -102 138 -102 q 16 -75 52 -102 q -26 19 -26 -41 q -20 117 -26 69 q -8 210 -15 165 q 3 293 -1 255 q 8 363 8 331 z "},"§":{"ha":689,"x_min":-41,"x_max":730,"o":"m 397 495 q 404 497 397 495 q 415 502 411 499 q 422 507 419 505 q 429 511 425 509 q 430 514 431 513 q 422 524 427 518 q 410 534 416 529 q 362 566 400 545 q 313 535 335 553 q 283 484 290 517 q 282 478 283 483 q 279 469 281 473 q 308 475 294 473 q 397 495 354 479 m 283 857 q 372 827 331 842 q 386 831 377 829 q 403 836 395 833 q 419 840 411 838 q 446 841 427 841 q 487 831 465 841 q 538 789 519 818 q 562 724 559 760 q 675 549 656 647 q 678 506 678 530 q 670 452 678 481 q 602 339 651 382 q 659 294 636 317 q 728 144 722 231 q 728 132 728 138 q 699 12 728 72 q 624 -90 671 -45 q 621 -92 623 -91 q 517 -149 574 -132 q 427 -164 473 -164 q 393 -163 411 -164 q 288 -138 338 -156 q 104 -52 205 -109 q 22 -5 64 -28 q -8 16 5 4 q -39 96 -39 49 q -23 160 -39 130 q 39 214 -1 198 q 81 222 60 222 q 141 208 113 222 q 267 136 206 171 q 389 85 327 100 q 422 80 410 80 q 442 81 434 80 q 479 115 456 81 q 483 123 481 119 q 475 130 479 127 q 390 170 439 155 q 291 200 340 186 q 191 236 241 214 q 50 372 87 281 q 34 458 34 410 q 35 486 34 472 q 104 666 45 586 q 37 726 65 688 q 1 846 -3 777 q 38 963 4 914 q 107 1033 68 1005 q 189 1081 146 1061 q 368 1143 278 1122 q 536 1164 457 1164 q 583 1162 560 1164 q 673 1115 642 1158 q 699 1037 699 1080 q 671 959 699 994 q 583 918 639 918 q 549 920 583 918 q 330 878 456 920 q 283 857 305 869 m 395 311 q 392 331 392 320 q 395 353 392 342 q 323 339 359 343 l 321 339 q 316 334 319 336 q 342 326 323 332 q 395 311 362 320 m 568 142 q 591 146 583 145 q 591 148 591 148 l 568 142 m 296 684 q 328 699 312 692 q 292 712 311 705 q 296 684 297 699 m 420 689 q 420 693 420 690 q 422 700 420 696 q 407 696 414 699 q 420 689 414 693 z "},"¨":{"ha":764,"x_min":153,"x_max":610,"o":"m 380 1013 q 468 1050 416 1050 q 564 1004 528 1050 q 606 937 595 978 q 609 906 609 922 q 567 814 609 856 q 515 780 545 791 q 476 773 496 773 q 427 784 450 773 q 380 819 399 798 q 313 779 354 787 q 285 774 298 774 q 225 791 254 774 q 168 861 183 814 q 167 871 167 865 q 155 924 155 897 q 190 1008 155 972 q 209 1024 198 1017 q 245 1044 225 1036 q 285 1051 264 1051 q 311 1049 294 1051 q 336 1042 327 1047 q 380 1013 359 1032 z "},"©":{"ha":958,"x_min":-41,"x_max":997,"o":"m 944 766 q 997 540 997 655 q 945 320 997 425 q 793 145 891 212 q 541 61 686 75 q 476 58 510 58 q 283 85 380 58 q 281 85 282 85 q 138 168 198 113 q 43 278 84 218 q 43 279 43 279 q -24 425 0 347 q -41 530 -41 477 q -34 598 -41 564 q 14 751 -19 677 q 133 926 57 850 q 366 1061 233 1027 q 490 1078 431 1078 q 810 951 677 1078 q 944 766 895 868 m 636 387 q 636 387 636 387 q 636 387 636 387 m 467 514 q 514 511 507 511 q 610 519 557 511 q 636 522 624 522 q 687 512 665 522 q 722 489 709 502 q 742 464 735 476 q 755 536 755 499 q 732 640 755 585 q 682 730 712 690 q 656 686 674 704 q 593 654 632 663 q 521 630 555 646 q 464 593 487 614 q 446 574 454 585 q 439 565 442 568 q 433 555 437 562 q 429 548 429 549 q 427 541 429 547 q 422 529 425 536 l 422 529 q 444 519 423 528 q 450 518 446 519 q 467 514 452 518 z "},"ª":{"ha":555,"x_min":-41,"x_max":582,"o":"m 378 963 q 454 990 412 990 q 544 951 510 990 q 576 873 571 920 q 582 776 582 826 q 574 555 582 701 q 572 518 572 530 q 574 450 572 506 q 537 366 574 397 q 454 335 500 335 q 389 353 420 335 q 374 363 381 358 q 254 346 315 346 q 113 374 180 346 q 19 441 54 399 q -39 616 -39 513 q -19 736 -39 680 q 8 804 -7 769 q 47 872 23 840 q 110 936 73 909 q 199 971 148 963 q 271 975 236 975 q 378 963 328 975 m 208 598 q 256 591 236 591 q 294 593 277 591 q 332 605 311 595 q 335 666 334 636 q 338 723 336 696 q 277 732 327 728 q 261 732 269 732 q 245 732 254 732 q 218 678 228 703 q 203 612 203 632 q 205 600 203 604 q 208 598 206 600 m 445 819 q 444 830 445 825 q 435 825 439 827 q 445 819 442 821 m 437 500 q 437 505 437 503 q 437 509 437 507 q 431 505 435 507 q 437 500 434 503 z "},"«":{"ha":624,"x_min":-69,"x_max":663,"o":"m 656 66 q 656 53 656 60 q 620 -21 650 9 q 547 -58 590 -52 q 529 -60 537 -60 q 450 -27 484 -60 q 365 43 408 9 q 331 -19 357 7 q 255 -56 300 -49 q 241 -56 248 -56 q 159 -19 194 -56 q 78 58 114 27 q 17 115 42 90 q -31 166 -8 140 q -60 214 -53 193 q -68 254 -68 235 q -61 293 -68 273 q 41 460 -27 384 q 172 586 103 529 q 258 617 210 617 q 340 581 305 617 q 370 528 362 557 q 480 604 434 576 q 543 623 510 623 q 584 614 562 623 q 625 587 606 606 q 646 562 637 576 q 662 498 662 532 q 629 414 662 448 q 600 392 617 401 q 515 331 563 370 q 514 330 514 331 q 457 282 483 307 q 523 229 483 260 q 591 173 563 198 q 623 145 620 148 q 656 66 656 111 m 526 76 l 524 75 l 521 71 l 526 76 m 526 496 l 528 494 l 529 491 l 533 490 q 552 490 543 490 l 526 496 m 430 437 q 534 511 484 481 l 430 437 z "},"¬":{"ha":731,"x_min":-42,"x_max":758,"o":"m 719 491 q 757 397 755 456 q 757 361 757 381 q 752 281 757 317 q 745 221 747 245 q 742 155 742 197 q 699 61 742 94 q 620 34 663 34 q 541 61 576 34 q 498 155 498 94 q 500 224 498 197 q 505 264 503 251 q 509 285 507 278 q 305 292 359 292 q 203 290 251 292 q 109 279 156 288 q 81 277 95 277 q 26 289 52 277 q -5 311 8 298 q -35 362 -26 332 q -41 399 -41 380 q -27 454 -41 427 q -5 486 -18 472 q 58 515 20 511 q 189 530 123 528 q 293 533 254 533 q 484 529 391 533 q 608 524 576 525 q 640 524 639 524 q 719 491 688 521 z "},"­":{"ha":647,"x_min":-42,"x_max":688,"o":"m 659 480 q 688 400 688 445 q 658 320 688 355 q 567 279 624 279 q 457 285 526 279 q 298 292 346 292 q 205 290 250 292 q 128 282 161 288 q 81 277 95 277 q 26 289 52 277 q -5 311 8 298 q -35 362 -26 332 q -41 399 -41 380 q -27 454 -41 427 q -5 486 -18 472 q 58 515 20 511 q 179 530 123 528 q 267 533 235 533 q 429 529 350 533 q 538 524 507 525 q 571 524 570 524 q 659 480 627 521 z "},"®":{"ha":949,"x_min":-41,"x_max":990,"o":"m 985 628 q 989 546 989 590 q 979 450 989 502 q 909 282 962 358 q 727 123 838 178 q 472 65 605 65 q 271 108 366 65 q 95 228 176 151 q 92 229 94 228 q 88 233 91 231 q 75 248 81 239 q 23 320 43 283 q -41 578 -41 437 q 1 789 -41 688 q 109 954 39 884 q 256 1048 171 1016 q 437 1081 340 1081 q 636 1044 538 1081 q 830 922 750 1002 q 921 803 882 871 q 985 628 971 719 m 551 319 q 481 362 506 346 q 449 382 456 378 q 418 313 444 342 q 474 308 442 308 q 551 319 506 308 m 237 722 q 203 576 203 658 q 204 561 203 576 q 205 542 205 545 q 206 534 206 538 q 207 526 206 530 q 209 518 208 522 q 216 491 212 506 q 237 722 232 671 m 743 594 q 743 594 743 594 q 743 594 743 594 m 735 476 q 747 553 747 513 q 747 570 747 564 q 745 578 746 575 q 745 587 745 582 q 743 598 745 594 q 739 609 741 602 q 730 640 735 628 q 659 538 712 581 l 696 514 q 735 476 720 499 m 357 552 q 391 562 373 562 q 424 553 408 562 q 454 537 439 545 q 454 544 454 540 q 460 571 454 559 q 404 562 412 562 q 359 579 378 562 q 357 552 359 579 z "},"¯":{"ha":764,"x_min":133,"x_max":632,"o":"m 605 1004 q 632 924 632 968 q 602 845 632 880 q 518 807 571 807 q 493 808 513 807 q 444 810 473 810 q 259 799 381 810 q 251 799 255 799 q 167 837 201 799 q 133 922 133 875 q 171 1008 133 974 q 248 1043 205 1039 q 418 1053 362 1053 q 515 1050 475 1053 q 605 1004 572 1047 z "},"°":{"ha":404,"x_min":-41,"x_max":445,"o":"m 385 1076 q 445 910 445 1008 q 389 741 445 810 q 311 680 357 700 q 210 661 264 661 q 106 680 155 661 q 16 742 54 701 q -35 844 -23 783 q -37 849 -35 846 q -41 888 -41 861 q -32 950 -41 916 q -4 1023 -23 985 q 47 1093 16 1063 q 110 1139 77 1123 q 208 1161 156 1161 q 306 1138 260 1161 q 385 1076 351 1115 z "},"±":{"ha":591,"x_min":-69,"x_max":662,"o":"m 420 541 q 446 540 439 540 q 506 541 453 540 q 598 498 566 541 q 625 419 625 463 q 598 340 625 376 q 507 297 566 297 q 467 297 487 297 q 415 297 445 297 q 416 218 416 259 q 373 125 416 157 q 294 98 338 98 q 216 125 251 98 q 174 218 174 159 q 172 300 174 255 q 79 290 125 297 q 57 289 69 289 q -1 301 27 289 q -34 324 -19 309 q -64 376 -54 345 q -68 408 -68 392 q -54 465 -68 437 q -31 498 -45 484 q 28 528 -7 522 q 119 539 83 537 q 176 541 156 541 q 182 617 182 612 q 222 698 189 665 q 302 731 255 731 q 393 692 354 731 q 426 614 426 659 q 420 541 426 610 m 281 422 q 292 410 288 416 q 305 422 298 416 q 293 434 298 427 q 281 422 288 427 m 297 597 l 304 595 l 317 602 q 317 602 317 602 q 317 601 317 601 l 297 597 m 426 602 q 426 604 426 602 l 426 602 m 633 134 q 662 54 662 99 q 632 -26 662 9 q 541 -66 598 -66 q 431 -61 500 -66 q 272 -54 320 -54 q 180 -56 224 -54 q 102 -64 136 -58 q 56 -69 69 -69 q 0 -57 26 -69 q -31 -35 -18 -47 q -61 16 -52 -14 q -66 53 -66 34 q -53 109 -66 81 q -31 140 -43 126 q 33 170 -5 165 q 153 184 98 182 q 241 187 209 187 q 403 183 324 187 q 513 178 481 179 q 545 178 544 178 q 633 134 601 175 z "},"²":{"ha":487,"x_min":-34,"x_max":514,"o":"m 467 803 q 431 688 467 746 q 480 655 460 678 q 514 570 514 617 q 475 483 514 517 q 399 450 442 454 q 314 445 355 445 q 233 449 273 445 q 132 459 183 454 q 79 465 80 464 q 1 500 30 472 q -28 552 -19 521 q -34 589 -34 570 q -25 631 -34 609 q -1 669 -16 654 q 31 693 14 685 q 170 772 117 734 q 193 788 180 780 q 185 788 189 788 q 179 787 182 788 q 140 781 159 781 q 61 815 95 781 q 24 903 24 850 q 34 951 24 928 q 62 992 43 974 q 110 1020 80 1010 q 189 1032 148 1032 q 237 1028 213 1032 q 351 987 301 1017 q 406 947 381 971 q 467 823 458 894 q 467 803 467 812 m 92 600 l 92 600 l 92 600 m 197 624 q 197 628 197 625 q 138 594 168 610 q 208 587 180 590 q 197 624 197 604 z "},"³":{"ha":465,"x_min":-19,"x_max":506,"o":"m 235 747 q 229 768 229 760 q 229 780 229 776 q 212 770 220 774 q 180 757 197 764 q 186 757 183 757 q 235 747 189 757 m -16 928 q -14 960 -16 944 q 18 1016 -5 993 q 50 1038 31 1029 q 187 1067 110 1067 q 358 1008 290 1067 q 418 868 418 958 q 404 800 418 831 q 463 751 438 780 q 505 637 505 701 q 498 590 505 613 q 444 505 483 543 q 338 437 403 463 q 227 408 283 415 q 118 400 171 400 q 24 442 58 400 q -3 521 -3 477 q 24 600 -3 564 q 72 635 43 624 q 15 667 39 644 q -19 753 -19 703 q 3 823 -19 789 q 20 844 11 834 q 0 868 8 854 q -16 928 -16 897 z "},"´":{"ha":764,"x_min":163,"x_max":602,"o":"m 399 1057 q 484 1088 438 1088 q 563 1053 529 1088 q 601 962 601 1016 q 560 875 601 909 q 557 872 559 873 q 345 738 456 795 q 290 723 317 723 q 201 760 239 723 q 180 787 189 772 q 164 849 164 817 q 195 929 164 897 q 228 952 209 943 q 399 1057 330 1002 m 288 830 q 289 831 289 830 l 288 830 z "},"µ":{"ha":713,"x_min":-47,"x_max":762,"o":"m 205 -46 q 197 -231 197 -182 q 153 -323 197 -290 q 75 -350 118 -350 q -4 -323 31 -350 q -47 -231 -47 -290 q -45 -151 -47 -199 q -38 -52 -38 -52 q -28 96 -31 65 q -20 240 -26 138 q -15 370 -15 342 q -16 441 -15 420 q -18 463 -18 461 q -18 464 -18 464 q 24 556 -18 522 q 102 583 60 583 q 180 557 145 583 q 227 464 227 524 l 227 441 q 227 429 227 433 q 229 406 229 415 q 228 369 229 396 q 231 313 229 339 q 250 222 233 275 q 263 199 254 210 q 279 187 278 187 q 314 183 296 183 q 357 190 332 183 q 414 235 391 202 q 435 285 429 258 q 453 411 450 339 q 460 488 454 450 q 511 594 461 562 q 579 614 544 614 q 610 610 595 614 q 659 587 642 602 q 675 572 671 576 q 684 562 680 568 q 705 490 705 526 q 704 475 705 481 q 758 28 707 267 q 761 4 761 15 q 726 -81 761 -47 q 669 -115 701 -106 q 630 -121 651 -121 q 587 -111 609 -121 q 521 -27 533 -88 q 515 0 518 -14 q 311 -62 422 -62 q 205 -46 252 -62 m 559 206 q 590 198 576 206 q 578 301 583 254 q 552 206 568 243 q 559 206 555 206 m 142 136 q 122 176 127 159 q 114 206 117 194 q 109 126 111 161 q 142 136 123 136 z "},"¶":{"ha":818,"x_min":-41,"x_max":845,"o":"m -41 750 q -22 840 -41 799 q 87 964 14 914 q 151 1001 118 986 q 313 1059 229 1040 q 481 1082 397 1077 q 576 1085 526 1085 q 674 1074 625 1085 q 707 1066 689 1072 q 783 1035 742 1057 q 811 1013 798 1027 q 844 930 844 981 q 834 884 844 907 q 781 823 818 845 q 773 454 779 643 q 768 61 768 264 q 724 -33 768 0 q 646 -60 689 -60 q 567 -33 602 -60 q 545 -11 555 -23 q 522 -35 536 -26 q 444 -62 487 -62 q 365 -35 400 -62 q 323 57 323 -1 q 331 265 323 168 q 339 449 339 362 q 237 463 288 452 q 142 495 190 473 q 38 564 83 521 q -41 750 -41 644 m 235 770 q 227 766 231 768 q 218 760 224 765 q 210 753 213 755 q 205 746 208 750 q 209 738 208 741 q 288 700 237 712 q 334 693 309 694 q 330 770 331 757 q 330 811 330 784 q 235 770 273 795 m 680 933 q 672 935 675 935 q 667 936 669 936 q 671 926 670 932 q 680 933 675 930 z "},"·":{"ha":221,"x_min":-27,"x_max":250,"o":"m 183 583 q 237 521 218 562 q 248 472 248 495 q 209 378 248 418 q 194 365 202 372 q 115 334 161 334 q 30 366 65 334 q -27 471 -27 412 q -23 499 -27 486 q 19 567 -14 540 q 52 589 35 582 q 75 599 68 597 q 96 602 83 601 q 114 605 104 605 q 133 602 123 605 q 167 591 149 601 q 183 583 180 585 z "},"¸":{"ha":764,"x_min":140,"x_max":625,"o":"m 151 -85 q 151 -77 151 -85 q 149 -64 152 -69 q 140 -19 140 -42 q 157 42 140 12 q 229 98 184 84 q 258 103 247 103 q 273 103 269 103 q 347 66 316 99 q 387 -8 376 38 q 490 -23 439 -8 q 572 -73 538 -39 q 624 -197 624 -125 q 574 -339 624 -275 q 429 -452 514 -415 q 331 -473 378 -473 q 224 -438 270 -473 q 175 -373 189 -412 q 168 -341 168 -355 q 172 -311 168 -327 q 184 -279 175 -296 q 205 -252 194 -263 q 233 -231 217 -240 q 168 -159 189 -205 q 151 -85 151 -123 m 380 -191 l 381 -187 l 384 -190 l 380 -191 m 380 -191 q 378 -193 380 -191 l 380 -191 z "},"¹":{"ha":279,"x_min":1,"x_max":278,"o":"m 1 956 q 45 1048 1 1016 q 123 1076 80 1076 q 202 1048 167 1076 q 245 956 245 1016 q 275 617 245 796 q 277 595 277 608 q 264 537 277 566 q 241 505 256 519 q 190 475 221 484 q 157 471 174 471 q 100 484 129 471 q 68 507 81 494 q 38 567 43 533 q 1 955 4 779 q 1 956 1 956 z "},"º":{"ha":586,"x_min":-41,"x_max":627,"o":"m 471 947 q 578 861 534 920 q 625 716 625 799 q 586 578 625 644 q 463 452 541 506 q 392 411 426 427 q 194 358 282 358 q 56 399 113 358 q 4 471 14 426 q -11 513 -3 491 q -41 646 -41 590 q -37 688 -41 669 q 19 808 -24 754 q 111 894 58 859 q 224 949 163 929 q 352 970 290 970 q 471 947 414 970 m 377 723 q 370 726 374 724 q 357 728 365 728 q 290 713 332 728 q 246 691 264 703 q 220 672 228 680 q 209 658 213 665 q 205 648 205 651 q 205 640 205 646 q 213 604 205 628 q 252 615 235 609 q 288 631 270 621 q 292 633 289 632 q 330 655 315 646 q 363 688 346 669 l 372 697 q 378 708 374 703 q 380 713 380 711 q 381 715 381 715 q 380 720 380 718 q 377 723 378 722 z "},"»":{"ha":624,"x_min":-41,"x_max":693,"o":"m 464 581 q 560 490 510 534 q 655 395 610 445 q 684 349 677 370 q 692 308 692 327 q 685 270 692 289 q 583 103 650 179 q 452 -24 521 33 q 368 -56 414 -56 q 285 -22 321 -56 q 252 33 262 0 q 145 -42 201 -7 q 80 -61 114 -61 q 39 -53 61 -61 q -3 -26 16 -45 q -23 0 -15 -15 q -39 64 -39 30 q -7 148 -39 114 q 24 171 7 160 q 167 279 81 202 q 100 332 141 301 q 7 412 60 363 q -23 451 -12 429 q -34 496 -34 473 q 3 583 -34 547 q 76 620 33 613 q 95 621 85 621 q 174 589 138 621 q 259 518 216 552 q 293 581 267 555 q 368 617 324 610 q 382 617 374 617 q 464 581 427 617 z "},"¼":{"ha":948,"x_min":-69,"x_max":967,"o":"m 75 956 q 117 1048 75 1015 q 195 1076 152 1076 q 274 1048 239 1076 q 317 956 317 1016 q 347 618 320 780 q 350 593 350 605 q 336 536 350 563 q 315 506 328 518 q 262 475 293 484 q 229 471 245 471 q 172 484 201 471 q 140 507 153 494 q 110 567 115 533 q 75 956 75 785 m 918 33 q 872 -61 918 -27 q 794 -87 837 -87 q 716 -60 751 -87 q 674 33 674 -26 q 675 71 674 52 l 918 33 m 490 202 q 500 319 490 262 q 507 359 505 339 q 349 193 431 273 l 136 1 q 52 -31 99 -31 q -30 4 4 -31 q -68 95 -68 41 q -27 180 -68 146 q 176 362 77 269 q 646 997 479 650 q 667 1029 654 1016 q 723 1061 690 1053 q 754 1063 739 1063 q 815 1047 787 1063 q 840 1028 829 1039 q 875 941 875 993 q 861 886 875 913 q 718 631 799 751 q 650 536 685 582 q 727 498 694 530 q 738 484 734 491 q 768 515 750 503 q 848 543 803 543 q 930 509 897 543 q 964 426 964 475 q 957 340 964 392 q 945 269 949 289 q 967 199 967 237 q 941 122 967 157 q 921 102 932 111 l 490 202 m 818 206 q 796 190 808 197 q 803 184 800 187 q 822 202 811 195 q 818 206 819 205 m 739 943 l 739 943 l 739 943 z "},"½":{"ha":899,"x_min":-54,"x_max":939,"o":"m 892 283 q 856 167 892 227 q 907 133 886 157 q 939 52 939 95 q 899 -38 939 -4 q 823 -71 868 -65 q 736 -76 777 -76 q 658 -72 694 -76 q 557 -62 608 -66 q 505 -56 506 -57 q 427 -20 457 -50 q 397 31 407 1 q 392 68 392 49 q 401 111 392 88 q 453 171 416 149 q 471 180 454 172 q 567 235 534 212 q 589 248 568 235 q 617 267 609 260 q 612 267 616 267 q 604 266 608 267 q 566 260 585 260 q 487 294 521 260 q 458 336 468 313 q 396 271 433 308 q 316 185 359 233 q 237 89 273 137 q 176 -15 201 41 q 153 -49 168 -34 q 96 -80 130 -72 q 65 -83 80 -83 q 4 -66 33 -83 q -20 -47 -9 -58 q -54 38 -54 -14 q -42 95 -54 66 q 31 222 -12 163 q 121 332 73 281 q 201 416 168 382 q 251 471 233 450 q 250 471 251 471 q 193 484 221 471 q 160 507 174 494 q 130 568 134 532 q 104 760 114 663 q 94 956 94 856 q 137 1048 94 1016 q 216 1076 172 1076 q 294 1048 259 1076 q 338 956 338 1016 q 368 620 338 798 q 435 737 396 666 q 505 873 475 808 q 557 1005 536 937 q 586 1053 567 1035 q 675 1090 623 1090 q 709 1085 692 1090 q 779 1038 751 1074 q 798 974 798 1009 q 792 936 798 955 q 731 779 766 854 q 655 632 696 704 q 586 510 621 570 q 618 511 600 511 q 662 507 637 511 q 777 469 726 498 q 829 429 803 453 q 892 283 892 363 m 521 79 l 519 79 q 521 79 519 79 m 562 75 q 633 66 606 69 q 623 103 623 83 q 623 109 623 106 q 562 75 600 94 z "},"¾":{"ha":1002,"x_min":-19,"x_max":1021,"o":"m 972 33 q 926 -61 972 -27 q 848 -87 891 -87 q 770 -60 806 -87 q 728 33 728 -26 q 730 71 728 52 l 972 33 m 544 202 q 555 319 544 262 q 562 359 559 339 q 403 193 486 273 l 190 1 q 106 -31 153 -31 q 24 4 58 -31 q -14 95 -14 41 q 27 180 -14 146 q 231 362 132 269 q 290 420 260 391 q 117 400 216 400 q 24 442 58 400 q -3 521 -3 477 q 24 600 -3 564 q 72 635 43 624 q 15 667 39 644 q -19 753 -19 703 q 3 823 -19 789 q 20 844 11 834 q 0 868 8 854 q -16 928 -16 897 q -14 960 -16 944 q 18 1016 -5 993 q 50 1038 31 1029 q 187 1067 110 1067 q 358 1008 290 1067 q 418 868 418 958 q 404 800 418 831 q 463 751 438 780 q 502 669 494 713 q 700 997 617 823 q 722 1029 708 1016 q 777 1061 745 1053 q 808 1063 793 1063 q 869 1047 841 1063 q 894 1028 883 1039 q 929 941 929 993 q 916 886 929 913 q 772 631 853 751 q 704 536 739 582 l 544 202 m 872 206 q 850 190 863 197 q 857 184 854 187 q 876 202 865 195 q 872 206 873 205 m 1000 269 q 1021 199 1021 237 q 996 122 1021 157 q 975 102 986 111 l 1000 269 m 793 943 l 793 943 l 793 943 m 235 747 q 229 768 229 760 q 229 780 229 776 q 212 770 220 774 q 180 757 197 764 q 186 757 183 757 q 235 747 189 757 z "},"¿":{"ha":631,"x_min":-34,"x_max":684,"o":"m 372 948 q 372 947 372 948 q 372 948 372 947 m 267 728 q 317 823 267 789 q 247 894 269 845 q 236 943 236 920 q 243 986 236 966 q 289 1048 258 1023 q 368 1080 321 1080 q 454 1047 419 1080 q 491 1009 476 1029 q 494 1004 492 1006 q 511 944 511 974 q 507 916 511 929 q 465 848 498 875 q 444 831 454 838 q 477 807 463 821 q 510 726 510 774 q 519 677 511 703 q 538 621 528 651 q 567 526 556 574 q 572 483 572 505 q 548 391 572 435 q 419 286 510 321 q 294 259 376 270 q 214 241 248 252 q 229 225 218 235 q 231 225 229 225 q 359 172 267 193 q 460 155 410 160 q 566 148 511 151 q 658 102 625 146 q 684 24 684 66 q 656 -54 684 -19 q 564 -96 623 -96 q 450 -90 530 -96 q 213 -38 327 -79 q 117 7 159 -19 q 26 85 62 42 q -27 202 -16 134 q -33 255 -33 235 q -33 283 -33 275 q 4 381 -30 336 q 67 441 31 420 q 138 473 103 463 q 203 490 174 484 q 272 501 240 495 q 316 510 304 507 l 320 510 q 313 530 317 519 q 303 555 308 541 q 296 576 298 568 q 275 646 285 605 q 267 728 267 686 z "},"À":{"ha":749,"x_min":-26,"x_max":796,"o":"m 210 448 q 205 442 208 445 q 213 444 209 442 q 210 448 212 445 m 362 799 q 382 800 370 800 q 410 793 395 800 q 397 899 400 852 q 362 799 384 856 m 494 429 q 491 426 492 427 q 494 425 492 425 q 494 429 494 426 m 174 -75 q 95 -102 138 -102 q 16 -75 52 -102 q -26 18 -26 -41 q -1 229 -26 132 q 56 416 23 327 q 53 441 53 429 q 57 473 53 460 q 104 540 69 517 q 155 652 127 594 q 256 902 218 795 q 292 1029 278 964 q 330 1101 301 1073 q 410 1134 362 1134 q 500 1096 463 1134 q 533 1019 533 1063 q 532 996 533 1012 q 532 945 532 979 q 555 751 532 861 q 585 624 568 689 q 644 372 623 481 q 678 270 655 319 q 728 180 703 218 q 770 109 753 141 q 793 35 787 76 q 795 12 795 26 q 783 -46 795 -18 q 760 -79 774 -64 q 708 -109 739 -99 q 675 -113 692 -113 q 618 -99 647 -113 q 586 -76 600 -90 q 556 -18 563 -52 q 544 14 552 1 q 513 64 533 31 q 444 199 469 132 q 422 261 429 236 q 412 297 415 286 q 344 300 378 300 q 274 304 309 301 q 239 184 254 245 q 217 18 218 103 q 174 -75 217 -42 m 635 1208 q 617 1146 635 1176 q 555 1093 594 1109 q 510 1084 533 1084 q 453 1099 480 1084 q 240 1233 342 1156 q 207 1275 217 1251 q 197 1322 197 1299 q 233 1412 197 1377 q 314 1449 269 1449 q 399 1417 359 1449 q 570 1313 468 1363 q 602 1289 589 1303 q 635 1208 635 1257 m 509 1192 q 509 1192 509 1192 l 509 1192 z "},"Á":{"ha":749,"x_min":-26,"x_max":814,"o":"m 210 448 q 205 442 208 445 q 213 444 209 442 q 210 448 212 445 m 362 799 q 382 800 370 800 q 410 793 395 800 q 397 899 400 852 q 362 799 384 856 m 494 429 q 491 426 492 427 q 494 425 492 425 q 494 429 494 426 m 174 -75 q 95 -102 138 -102 q 16 -75 52 -102 q -26 18 -26 -41 q -1 229 -26 132 q 56 416 23 327 q 53 441 53 429 q 57 473 53 460 q 104 540 69 517 q 155 652 127 594 q 256 902 218 795 q 292 1029 278 964 q 330 1101 301 1073 q 410 1134 362 1134 q 500 1096 463 1134 q 533 1019 533 1063 q 532 996 533 1012 q 532 945 532 979 q 555 751 532 861 q 585 624 568 689 q 644 372 623 481 q 678 270 655 319 q 728 180 703 218 q 770 109 753 141 q 793 35 787 76 q 795 12 795 26 q 783 -46 795 -18 q 760 -79 774 -64 q 708 -109 739 -99 q 675 -113 692 -113 q 618 -99 647 -113 q 586 -76 600 -90 q 556 -18 563 -52 q 544 14 552 1 q 513 64 533 31 q 444 199 469 132 q 422 261 429 236 q 412 297 415 286 q 344 300 378 300 q 274 304 309 301 q 239 184 254 245 q 217 18 218 103 q 174 -75 217 -42 m 612 1417 q 696 1449 651 1449 q 776 1413 742 1449 q 814 1322 814 1377 q 773 1236 814 1270 q 770 1233 772 1234 q 557 1099 669 1156 q 503 1084 530 1084 q 414 1120 452 1084 q 393 1147 401 1133 q 377 1210 377 1177 q 408 1290 377 1257 q 441 1313 422 1303 q 612 1417 543 1363 m 500 1191 q 502 1192 502 1191 l 500 1191 z "},"Â":{"ha":749,"x_min":-26,"x_max":796,"o":"m 210 448 q 205 442 208 445 q 213 444 209 442 q 210 448 212 445 m 362 799 q 382 800 370 800 q 410 793 395 800 q 397 899 400 852 q 362 799 384 856 m 494 429 q 491 426 492 427 q 494 425 492 425 q 494 429 494 426 m 174 -75 q 95 -102 138 -102 q 16 -75 52 -102 q -26 18 -26 -41 q -1 229 -26 132 q 56 416 23 327 q 53 441 53 429 q 57 473 53 460 q 104 540 69 517 q 155 652 127 594 q 256 902 218 795 q 292 1029 278 964 q 330 1101 301 1073 q 410 1134 362 1134 q 500 1096 463 1134 q 533 1019 533 1063 q 532 996 533 1012 q 532 945 532 979 q 555 751 532 861 q 585 624 568 689 q 644 372 623 481 q 678 270 655 319 q 728 180 703 218 q 770 109 753 141 q 793 35 787 76 q 795 12 795 26 q 783 -46 795 -18 q 760 -79 774 -64 q 708 -109 739 -99 q 675 -113 692 -113 q 618 -99 647 -113 q 586 -76 600 -90 q 556 -18 563 -52 q 544 14 552 1 q 513 64 533 31 q 444 199 469 132 q 422 261 429 236 q 412 297 415 286 q 344 300 378 300 q 274 304 309 301 q 239 184 254 245 q 217 18 218 103 q 174 -75 217 -42 m 766 1175 q 730 1085 766 1120 q 648 1050 696 1050 q 564 1080 601 1050 q 505 1133 533 1105 q 498 1139 502 1137 q 450 1098 464 1111 q 435 1084 435 1085 q 354 1051 399 1051 q 340 1051 347 1051 q 264 1088 296 1058 q 228 1176 228 1124 q 267 1260 228 1223 q 434 1397 347 1337 q 496 1416 461 1416 q 562 1400 534 1416 q 655 1325 613 1369 q 724 1263 688 1291 q 756 1221 746 1245 q 766 1175 766 1198 m 650 1185 q 650 1185 650 1185 l 650 1185 z "},"Ã":{"ha":749,"x_min":-26,"x_max":817,"o":"m 210 448 q 205 442 208 445 q 213 444 209 442 q 210 448 212 445 m 362 799 q 382 800 370 800 q 410 793 395 800 q 397 899 400 852 q 362 799 384 856 m 494 429 q 491 426 492 427 q 494 425 492 425 q 494 429 494 426 m 174 -75 q 95 -102 138 -102 q 16 -75 52 -102 q -26 18 -26 -41 q -1 229 -26 132 q 56 416 23 327 q 53 441 53 429 q 57 473 53 460 q 104 540 69 517 q 155 652 127 594 q 256 902 218 795 q 292 1029 278 964 q 330 1101 301 1073 q 410 1134 362 1134 q 500 1096 463 1134 q 533 1019 533 1063 q 532 996 533 1012 q 532 945 532 979 q 555 751 532 861 q 585 624 568 689 q 644 372 623 481 q 678 270 655 319 q 728 180 703 218 q 770 109 753 141 q 793 35 787 76 q 795 12 795 26 q 783 -46 795 -18 q 760 -79 774 -64 q 708 -109 739 -99 q 675 -113 692 -113 q 618 -99 647 -113 q 586 -76 600 -90 q 556 -18 563 -52 q 544 14 552 1 q 513 64 533 31 q 444 199 469 132 q 422 261 429 236 q 412 297 415 286 q 344 300 378 300 q 274 304 309 301 q 239 184 254 245 q 217 18 218 103 q 174 -75 217 -42 m 601 1062 q 486 1103 537 1062 q 442 1142 463 1120 q 438 1145 441 1143 q 416 1128 426 1137 q 335 1092 380 1092 q 320 1092 327 1092 q 246 1128 277 1099 q 209 1200 216 1158 q 208 1218 208 1210 q 244 1299 208 1264 q 388 1381 305 1362 q 437 1388 415 1388 q 477 1385 460 1388 q 563 1354 522 1378 q 598 1328 578 1345 q 647 1367 618 1355 q 690 1377 667 1377 q 783 1339 745 1377 q 817 1259 817 1305 q 784 1173 817 1211 q 738 1119 753 1135 q 665 1074 707 1089 q 601 1062 633 1062 z "},"Ä":{"ha":749,"x_min":-26,"x_max":796,"o":"m 210 448 q 205 442 208 445 q 213 444 209 442 q 210 448 212 445 m 362 799 q 382 800 370 800 q 410 793 395 800 q 397 899 400 852 q 362 799 384 856 m 494 429 q 491 426 492 427 q 494 425 492 425 q 494 429 494 426 m 174 -75 q 95 -102 138 -102 q 16 -75 52 -102 q -26 18 -26 -41 q -1 229 -26 132 q 56 416 23 327 q 53 441 53 429 q 57 473 53 460 q 104 540 69 517 q 155 652 127 594 q 256 902 218 795 q 292 1029 278 964 q 330 1101 301 1073 q 410 1134 362 1134 q 500 1096 463 1134 q 533 1019 533 1063 q 532 996 533 1012 q 532 945 532 979 q 555 751 532 861 q 585 624 568 689 q 644 372 623 481 q 678 270 655 319 q 728 180 703 218 q 770 109 753 141 q 793 35 787 76 q 795 12 795 26 q 783 -46 795 -18 q 760 -79 774 -64 q 708 -109 739 -99 q 675 -113 692 -113 q 618 -99 647 -113 q 586 -76 600 -90 q 556 -18 563 -52 q 544 14 552 1 q 513 64 533 31 q 444 199 469 132 q 422 261 429 236 q 412 297 415 286 q 344 300 378 300 q 274 304 309 301 q 239 184 254 245 q 217 18 218 103 q 174 -75 217 -42 m 510 1318 q 598 1355 547 1355 q 694 1309 658 1355 q 736 1242 726 1283 q 739 1211 739 1227 q 697 1119 739 1161 q 646 1085 675 1096 q 606 1078 627 1078 q 557 1089 581 1078 q 510 1124 529 1103 q 444 1084 484 1092 q 415 1080 429 1080 q 355 1096 384 1080 q 298 1166 313 1119 q 297 1176 297 1171 q 285 1229 285 1202 q 320 1313 285 1278 q 339 1329 328 1322 q 375 1349 355 1341 q 415 1356 395 1356 q 441 1354 425 1356 q 467 1347 457 1352 q 510 1318 490 1337 z "},"Å":{"ha":749,"x_min":-26,"x_max":796,"o":"m 608 1325 q 666 1154 666 1255 q 652 1067 666 1109 q 595 972 633 1012 q 532 930 568 947 q 556 743 533 848 q 586 620 570 682 q 644 372 625 468 q 678 270 655 319 q 728 180 703 218 q 770 109 753 141 q 793 35 787 76 q 795 12 795 26 q 783 -46 795 -18 q 760 -79 774 -64 q 708 -109 739 -99 q 675 -113 692 -113 q 618 -99 647 -113 q 586 -76 600 -90 q 556 -18 563 -52 q 544 14 552 1 q 513 64 533 31 q 444 199 469 132 q 422 261 429 236 q 412 297 415 286 q 344 300 378 300 q 274 304 309 301 q 239 184 254 245 q 217 18 218 103 q 174 -75 217 -42 q 95 -102 138 -102 q 16 -75 52 -102 q -26 18 -26 -41 q -1 229 -26 132 q 56 416 23 327 q 53 441 53 429 q 57 473 53 460 q 104 540 69 517 q 152 647 126 591 q 250 887 218 798 q 273 959 263 922 q 186 1093 202 1010 q 183 1114 184 1097 q 182 1147 182 1127 q 190 1201 182 1168 q 217 1272 198 1234 q 268 1343 237 1313 q 332 1389 298 1373 q 431 1411 378 1411 q 529 1388 483 1411 q 608 1325 575 1364 m 494 425 q 494 429 494 426 q 491 426 492 427 q 494 425 492 425 m 205 442 q 213 444 209 442 q 210 448 212 445 q 205 442 208 445 m 362 799 q 382 800 370 800 q 408 793 395 800 q 396 898 399 852 q 362 799 382 853 z "},"Æ":{"ha":1225,"x_min":-110,"x_max":1308,"o":"m 522 117 q 538 178 522 149 q 530 224 534 201 q 412 213 479 220 q 264 191 346 206 q 258 190 260 191 q 189 103 225 149 q 115 1 153 57 q 45 -50 90 -38 q 11 -56 28 -56 q -72 -22 -38 -56 q -104 33 -95 1 q -110 64 -110 50 q -90 132 -110 103 q 81 357 -8 250 q 256 575 170 465 q 419 800 343 685 q 555 1040 495 916 q 576 1073 563 1059 q 632 1104 600 1096 q 663 1107 648 1107 q 749 1072 713 1107 q 760 1059 754 1066 q 992 1054 959 1054 q 1046 1054 1025 1054 q 1157 1066 1103 1055 q 1184 1069 1171 1069 q 1241 1055 1214 1069 q 1271 1034 1259 1047 q 1302 979 1294 1010 q 1306 948 1306 963 q 1291 890 1306 918 q 1270 859 1283 872 q 1211 829 1246 836 q 971 808 1105 808 q 861 811 911 808 q 796 814 810 814 q 772 642 783 736 q 887 636 830 636 l 1077 636 q 1169 593 1137 636 q 1196 514 1196 557 q 1169 435 1196 471 q 1077 392 1137 392 q 901 393 981 392 q 760 400 822 395 q 776 236 762 312 q 917 234 840 236 q 1085 231 994 232 q 1177 187 1145 231 q 1204 109 1204 152 q 1177 31 1204 66 q 1085 -12 1145 -12 q 927 -10 998 -12 q 796 -8 856 -8 q 784 -22 791 -15 q 719 -58 757 -50 q 692 -61 705 -61 q 637 -49 663 -61 q 581 11 600 -30 q 553 34 566 20 q 522 117 522 71 m 517 517 q 477 464 498 490 l 517 467 q 517 517 517 491 m 258 359 q 229 326 244 343 q 239 324 233 326 q 274 331 256 328 q 258 359 262 343 m 690 930 q 662 952 674 937 q 606 846 636 898 q 612 846 610 846 q 613 846 613 846 q 661 827 642 846 q 674 898 667 863 q 690 930 678 917 m 696 106 q 682 111 689 107 q 692 100 688 106 q 696 106 694 103 m 667 123 q 671 122 669 122 q 669 125 670 123 q 667 123 667 123 z "},"Ç":{"ha":688,"x_min":-49,"x_max":749,"o":"m 633 -54 q 686 -180 686 -109 q 680 -229 686 -203 q 600 -347 659 -301 q 437 -425 525 -407 q 395 -429 411 -429 q 370 -429 378 -429 q 236 -365 285 -423 q 205 -293 210 -334 q 205 -278 205 -286 q 241 -195 205 -233 q 292 -165 263 -175 q 245 -80 256 -130 q 241 -47 241 -62 q 243 -22 241 -33 q 222 -14 233 -18 q 142 31 180 3 q 15 193 57 94 q -34 372 -20 277 q -47 505 -47 465 q -35 589 -47 545 q -17 652 -28 623 q 3 704 -5 682 q 14 746 11 726 q 26 793 18 766 q 172 978 61 921 q 269 1020 220 1004 q 460 1057 359 1047 q 507 1058 481 1058 q 560 1055 532 1058 q 642 1016 609 1048 q 674 936 674 983 q 636 845 674 883 q 557 812 604 812 q 538 812 545 812 q 505 815 526 815 q 391 800 453 815 q 347 788 368 793 q 285 762 316 780 q 282 761 283 762 q 273 753 279 760 l 266 745 q 251 688 258 726 q 233 621 243 644 q 213 571 224 597 q 197 503 197 526 q 199 475 197 491 q 202 443 201 460 q 209 392 203 426 q 278 235 227 281 q 334 205 301 216 q 406 191 368 195 q 420 189 407 191 q 454 187 433 187 q 494 190 475 187 q 563 216 530 194 q 628 236 593 236 q 670 228 647 236 q 712 201 693 220 q 730 176 723 190 q 749 110 749 146 q 693 9 749 45 q 608 -33 652 -18 q 633 -54 621 -43 z "},"È":{"ha":705,"x_min":-42,"x_max":718,"o":"m 148 551 q 141 556 144 553 q 137 551 140 553 q 142 544 140 548 q 148 551 145 548 m -41 867 q -27 922 -41 895 q -4 955 -18 941 q 58 986 22 981 q 331 1008 194 1006 q 508 1010 419 1009 q 597 1012 597 1012 q 597 1012 597 1012 q 688 971 654 1012 q 718 891 718 936 q 689 811 718 846 q 598 769 655 769 q 401 766 491 766 q 241 761 312 766 q 247 680 243 742 q 382 689 316 684 q 503 694 449 694 q 602 692 556 694 q 689 646 656 689 q 716 566 716 610 q 686 487 716 522 q 600 448 654 448 q 574 449 595 448 q 505 450 553 450 q 395 445 457 450 q 266 435 334 439 q 283 194 279 267 q 322 201 292 195 q 405 214 353 208 q 511 221 457 221 q 620 212 571 221 q 678 182 654 205 q 701 149 692 168 q 715 92 715 121 q 711 60 715 76 q 650 -15 696 8 q 591 -28 623 -28 q 559 -24 579 -28 q 521 -20 538 -20 q 316 -49 442 -20 q 243 -66 267 -60 q 212 -73 220 -72 q 191 -75 205 -75 q 136 -61 161 -75 q 76 -27 100 -53 q 43 53 43 4 q 18 483 39 224 q -1 552 -1 514 q 9 601 -1 578 q -4 777 1 689 q -35 834 -27 800 q -41 867 -41 850 m 612 1084 q 594 1021 612 1051 q 532 968 571 985 q 487 959 510 959 q 430 974 457 959 q 217 1108 319 1031 q 184 1150 194 1126 q 174 1198 174 1175 q 210 1287 174 1252 q 291 1324 245 1324 q 376 1293 336 1324 q 547 1188 445 1238 q 579 1164 566 1179 q 612 1084 612 1133 m 486 1067 q 486 1067 486 1067 l 486 1067 z "},"É":{"ha":705,"x_min":-42,"x_max":718,"o":"m 148 551 q 141 556 144 553 q 137 551 140 553 q 142 544 140 548 q 148 551 145 548 m -41 867 q -27 922 -41 895 q -4 955 -18 941 q 58 986 22 981 q 331 1008 194 1006 q 508 1010 419 1009 q 597 1012 597 1012 q 597 1012 597 1012 q 688 971 654 1012 q 718 891 718 936 q 689 811 718 846 q 598 769 655 769 q 401 766 491 766 q 241 761 312 766 q 247 680 243 742 q 382 689 316 684 q 503 694 449 694 q 602 692 556 694 q 689 646 656 689 q 716 566 716 610 q 686 487 716 522 q 600 448 654 448 q 574 449 595 448 q 505 450 553 450 q 395 445 457 450 q 266 435 334 439 q 283 194 279 267 q 322 201 292 195 q 405 214 353 208 q 511 221 457 221 q 620 212 571 221 q 678 182 654 205 q 701 149 692 168 q 715 92 715 121 q 711 60 715 76 q 650 -15 696 8 q 591 -28 623 -28 q 559 -24 579 -28 q 521 -20 538 -20 q 316 -49 442 -20 q 243 -66 267 -60 q 212 -73 220 -72 q 191 -75 205 -75 q 136 -61 161 -75 q 76 -27 100 -53 q 43 53 43 4 q 18 483 39 224 q -1 552 -1 514 q 9 601 -1 578 q -4 777 1 689 q -35 834 -27 800 q -41 867 -41 850 m 477 1321 q 562 1352 517 1352 q 642 1317 608 1352 q 680 1226 680 1280 q 639 1139 680 1173 q 636 1137 637 1138 q 423 1002 534 1059 q 369 987 396 987 q 279 1024 317 987 q 259 1051 267 1036 q 243 1114 243 1081 q 274 1194 243 1161 q 307 1217 288 1207 q 477 1321 408 1267 m 366 1095 q 368 1096 368 1095 l 366 1095 z "},"Ê":{"ha":705,"x_min":-42,"x_max":718,"o":"m 148 551 q 141 556 144 553 q 137 551 140 553 q 142 544 140 548 q 148 551 145 548 m -41 867 q -27 922 -41 895 q -4 955 -18 941 q 58 986 22 981 q 331 1008 194 1006 q 508 1010 419 1009 q 597 1012 597 1012 q 597 1012 597 1012 q 688 971 654 1012 q 718 891 718 936 q 689 811 718 846 q 598 769 655 769 q 401 766 491 766 q 241 761 312 766 q 247 680 243 742 q 382 689 316 684 q 503 694 449 694 q 602 692 556 694 q 689 646 656 689 q 716 566 716 610 q 686 487 716 522 q 600 448 654 448 q 574 449 595 448 q 505 450 553 450 q 395 445 457 450 q 266 435 334 439 q 283 194 279 267 q 322 201 292 195 q 405 214 353 208 q 511 221 457 221 q 620 212 571 221 q 678 182 654 205 q 701 149 692 168 q 715 92 715 121 q 711 60 715 76 q 650 -15 696 8 q 591 -28 623 -28 q 559 -24 579 -28 q 521 -20 538 -20 q 316 -49 442 -20 q 243 -66 267 -60 q 212 -73 220 -72 q 191 -75 205 -75 q 136 -61 161 -75 q 76 -27 100 -53 q 43 53 43 4 q 18 483 39 224 q -1 552 -1 514 q 9 601 -1 578 q -4 777 1 689 q -35 834 -27 800 q -41 867 -41 850 m 689 1104 q 652 1015 689 1050 q 571 979 618 979 q 487 1009 524 979 q 427 1062 456 1035 q 420 1069 425 1066 q 372 1027 387 1040 q 358 1013 358 1015 q 277 981 321 981 q 263 981 270 981 q 187 1017 218 987 q 151 1105 151 1054 q 190 1190 151 1153 q 357 1326 270 1267 q 419 1345 384 1345 q 484 1329 457 1345 q 578 1255 536 1298 q 647 1192 610 1221 q 679 1151 669 1175 q 689 1104 689 1127 m 572 1115 q 572 1115 572 1115 l 572 1115 z "},"Ë":{"ha":705,"x_min":-42,"x_max":718,"o":"m 148 551 q 141 556 144 553 q 137 551 140 553 q 142 544 140 548 q 148 551 145 548 m -41 867 q -27 922 -41 895 q -4 955 -18 941 q 58 986 22 981 q 331 1008 194 1006 q 508 1010 419 1009 q 597 1012 597 1012 q 597 1012 597 1012 q 688 971 654 1012 q 718 891 718 936 q 689 811 718 846 q 598 769 655 769 q 401 766 491 766 q 241 761 312 766 q 247 680 243 742 q 382 689 316 684 q 503 694 449 694 q 602 692 556 694 q 689 646 656 689 q 716 566 716 610 q 686 487 716 522 q 600 448 654 448 q 574 449 595 448 q 505 450 553 450 q 395 445 457 450 q 266 435 334 439 q 283 194 279 267 q 322 201 292 195 q 405 214 353 208 q 511 221 457 221 q 620 212 571 221 q 678 182 654 205 q 701 149 692 168 q 715 92 715 121 q 711 60 715 76 q 650 -15 696 8 q 591 -28 623 -28 q 559 -24 579 -28 q 521 -20 538 -20 q 316 -49 442 -20 q 243 -66 267 -60 q 212 -73 220 -72 q 191 -75 205 -75 q 136 -61 161 -75 q 76 -27 100 -53 q 43 53 43 4 q 18 483 39 224 q -1 552 -1 514 q 9 601 -1 578 q -4 777 1 689 q -35 834 -27 800 q -41 867 -41 850 m 418 1222 q 506 1259 454 1259 q 602 1213 566 1259 q 644 1146 633 1187 q 647 1115 647 1131 q 605 1023 647 1065 q 553 989 583 1000 q 514 982 534 982 q 465 993 488 982 q 418 1028 437 1006 q 351 987 392 996 q 323 983 336 983 q 263 1000 292 983 q 206 1070 221 1023 q 205 1080 205 1074 q 193 1133 193 1105 q 228 1217 193 1181 q 247 1233 236 1226 q 283 1253 263 1245 q 323 1260 302 1260 q 349 1258 332 1260 q 374 1251 365 1256 q 418 1222 397 1241 z "},"Ì":{"ha":617,"x_min":-81,"x_max":700,"o":"m 433 490 q 428 436 433 490 q 423 304 423 382 q 434 164 423 225 q 555 174 536 174 q 642 134 609 174 q 670 57 670 100 q 644 -22 670 14 q 551 -70 612 -66 q 425 -80 490 -73 q 227 -94 313 -94 q 151 -91 189 -94 q 5 -65 77 -87 q -46 -35 -26 -57 q -72 4 -62 -19 q -81 47 -81 27 q -30 152 -81 114 q 37 175 0 175 q 72 170 56 175 q 191 151 126 153 q 182 275 182 213 q 190 475 182 376 l 205 670 q 208 750 208 719 q 208 795 208 781 q 57 807 125 799 q -24 846 8 814 q -57 926 -57 879 q -19 1017 -57 979 q 60 1050 14 1050 q 100 1047 66 1050 q 289 1035 209 1035 q 540 1073 433 1035 q 572 1080 557 1080 q 663 1042 625 1080 q 700 955 700 1005 q 665 872 700 907 q 613 841 643 850 q 452 802 534 814 q 452 749 452 784 q 448 663 452 715 q 433 490 442 598 m 543 1139 q 525 1077 543 1107 q 463 1024 502 1040 q 418 1015 441 1015 q 361 1029 388 1015 q 148 1164 250 1086 q 115 1206 125 1181 q 104 1253 104 1230 q 141 1343 104 1308 q 222 1379 176 1379 q 307 1348 267 1379 q 477 1244 376 1294 q 510 1219 496 1234 q 543 1139 543 1188 m 416 1123 q 416 1123 416 1123 l 416 1123 z "},"Í":{"ha":617,"x_min":-81,"x_max":700,"o":"m 433 490 q 428 436 433 490 q 423 304 423 382 q 434 164 423 225 q 555 174 536 174 q 642 134 609 174 q 670 57 670 100 q 644 -22 670 14 q 551 -70 612 -66 q 425 -80 490 -73 q 227 -94 313 -94 q 151 -91 189 -94 q 5 -65 77 -87 q -46 -35 -26 -57 q -72 4 -62 -19 q -81 47 -81 27 q -30 152 -81 114 q 37 175 0 175 q 72 170 56 175 q 191 151 126 153 q 182 275 182 213 q 190 475 182 376 l 205 670 q 208 750 208 719 q 208 795 208 781 q 57 807 125 799 q -24 846 8 814 q -57 926 -57 879 q -19 1017 -57 979 q 60 1050 14 1050 q 100 1047 66 1050 q 289 1035 209 1035 q 540 1073 433 1035 q 572 1080 557 1080 q 663 1042 625 1080 q 700 955 700 1005 q 665 872 700 907 q 613 841 643 850 q 452 802 534 814 q 452 749 452 784 q 448 663 452 715 q 433 490 442 598 m 450 1335 q 535 1366 490 1366 q 614 1331 581 1366 q 652 1240 652 1294 q 612 1153 652 1187 q 609 1150 610 1152 q 396 1016 507 1073 q 342 1001 369 1001 q 252 1038 290 1001 q 232 1065 240 1050 q 216 1127 216 1095 q 247 1207 216 1175 q 279 1230 260 1221 q 450 1335 381 1280 m 339 1108 q 340 1109 340 1108 l 339 1108 z "},"Î":{"ha":617,"x_min":-81,"x_max":700,"o":"m 433 490 q 428 436 433 490 q 423 304 423 382 q 434 164 423 225 q 555 174 536 174 q 642 134 609 174 q 670 57 670 100 q 644 -22 670 14 q 551 -70 612 -66 q 425 -80 490 -73 q 227 -94 313 -94 q 151 -91 189 -94 q 5 -65 77 -87 q -46 -35 -26 -57 q -72 4 -62 -19 q -81 47 -81 27 q -30 152 -81 114 q 37 175 0 175 q 72 170 56 175 q 191 151 126 153 q 182 275 182 213 q 190 475 182 376 l 205 670 q 208 750 208 719 q 208 795 208 781 q 57 807 125 799 q -24 846 8 814 q -57 926 -57 879 q -19 1017 -57 979 q 60 1050 14 1050 q 100 1047 66 1050 q 289 1035 209 1035 q 540 1073 433 1035 q 572 1080 557 1080 q 663 1042 625 1080 q 700 955 700 1005 q 665 872 700 907 q 613 841 643 850 q 452 802 534 814 q 452 749 452 784 q 448 663 452 715 q 433 490 442 598 m 635 1119 q 598 1029 635 1065 q 517 994 564 994 q 433 1024 469 994 q 373 1077 401 1050 q 366 1084 370 1081 q 318 1042 332 1055 q 304 1028 304 1029 q 222 996 267 996 q 209 996 216 996 q 133 1032 164 1002 q 96 1120 96 1069 q 136 1204 96 1168 q 302 1341 216 1282 q 365 1360 330 1360 q 430 1344 403 1360 q 524 1270 481 1313 q 593 1207 556 1236 q 625 1166 614 1190 q 635 1119 635 1142 m 518 1130 q 518 1130 518 1130 l 518 1130 z "},"Ï":{"ha":617,"x_min":-81,"x_max":700,"o":"m 433 490 q 428 436 433 490 q 423 304 423 382 q 434 164 423 225 q 555 174 536 174 q 642 134 609 174 q 670 57 670 100 q 644 -22 670 14 q 551 -70 612 -66 q 425 -80 490 -73 q 227 -94 313 -94 q 151 -91 189 -94 q 5 -65 77 -87 q -46 -35 -26 -57 q -72 4 -62 -19 q -81 47 -81 27 q -30 152 -81 114 q 37 175 0 175 q 72 170 56 175 q 191 151 126 153 q 182 275 182 213 q 190 475 182 376 l 205 670 q 208 750 208 719 q 208 795 208 781 q 57 807 125 799 q -24 846 8 814 q -57 926 -57 879 q -19 1017 -57 979 q 60 1050 14 1050 q 100 1047 66 1050 q 289 1035 209 1035 q 540 1073 433 1035 q 572 1080 557 1080 q 663 1042 625 1080 q 700 955 700 1005 q 665 872 700 907 q 613 841 643 850 q 452 802 534 814 q 452 749 452 784 q 448 663 452 715 q 433 490 442 598 m 363 1249 q 452 1286 400 1286 q 548 1240 511 1286 q 590 1173 579 1214 q 593 1142 593 1158 q 551 1050 593 1092 q 499 1016 529 1027 q 460 1009 480 1009 q 411 1020 434 1009 q 363 1055 382 1034 q 297 1015 338 1023 q 269 1010 282 1010 q 209 1027 237 1010 q 152 1097 167 1050 q 151 1107 151 1101 q 138 1160 138 1133 q 174 1244 138 1208 q 193 1260 182 1253 q 229 1280 209 1272 q 269 1287 248 1287 q 294 1285 278 1287 q 320 1278 311 1283 q 363 1249 343 1268 z "},"Ð":{"ha":773,"x_min":-138,"x_max":779,"o":"m 277 802 q 274 751 274 776 q 277 655 274 696 q 281 595 281 614 q 332 593 304 594 q 425 548 391 593 q 452 469 452 513 q 422 389 452 425 q 331 349 388 349 l 273 353 q 259 157 267 240 q 271 158 267 157 q 275 159 275 159 q 362 180 317 163 q 495 259 452 217 q 509 276 505 271 q 519 290 514 281 q 533 359 533 321 q 533 377 533 359 q 514 476 533 412 q 492 549 503 514 q 474 602 481 585 q 467 620 467 618 q 441 675 457 646 q 414 718 426 704 q 395 741 403 731 q 331 784 365 770 q 277 802 305 795 m 156 469 q 168 480 161 475 q 157 491 161 486 q 145 480 152 486 q 156 469 152 475 m 127 54 q 122 47 125 50 q 123 46 122 47 q 130 50 126 49 q 127 54 129 53 m 180 -81 q 117 -98 151 -98 q 85 -94 100 -98 q 31 -64 53 -85 q 4 -22 14 -46 q -19 50 -19 9 q 12 132 -19 98 q 28 319 23 214 q 29 329 28 321 q 31 351 30 336 q 9 348 22 350 q -15 346 -3 346 q -72 359 -45 346 q -102 381 -90 368 q -133 434 -123 403 q -137 467 -137 450 q -123 524 -137 495 q -100 556 -114 543 q -41 586 -75 581 q 37 598 4 593 q 33 662 35 625 q 31 743 31 699 q 53 916 31 846 q 53 929 53 922 q 62 978 53 955 q 129 1044 83 1027 q 198 1067 160 1067 q 263 1050 233 1067 q 388 1024 327 1043 q 526 949 464 1001 q 646 808 602 890 q 718 643 690 727 q 739 574 728 609 q 779 365 779 456 q 662 83 779 199 q 580 18 625 46 q 477 -35 534 -9 q 262 -85 362 -85 q 180 -81 228 -85 z "},"Ñ":{"ha":693,"x_min":-34,"x_max":727,"o":"m 534 129 q 534 155 534 138 q 533 205 534 171 q 530 288 532 240 q 490 274 513 274 q 472 277 480 274 q 534 129 510 174 m 533 85 l 533 85 l 533 85 m 165 741 q 127 787 146 764 q 127 728 127 757 q 165 741 144 741 m 91 966 q 109 964 103 966 q 115 963 115 963 q 186 941 152 963 q 233 871 224 917 q 348 728 296 796 q 441 591 400 659 l 468 804 q 483 1031 481 916 q 526 1123 483 1090 q 605 1150 562 1150 q 684 1123 648 1150 q 727 1031 727 1090 q 727 1029 727 1031 q 710 783 726 903 q 680 544 694 663 q 666 342 666 423 q 668 238 666 302 q 670 144 670 174 q 669 77 670 102 q 633 -3 666 30 q 576 -34 609 -26 q 544 -38 562 -38 q 503 -31 526 -38 q 460 -3 480 -23 q 444 18 452 5 q 386 125 410 69 q 345 232 362 182 q 262 415 302 342 q 237 457 250 437 q 237 456 237 457 q 251 268 240 362 q 274 77 262 174 q 274 64 274 71 q 235 -20 274 12 q 153 -53 197 -53 q 64 -14 98 -53 q 31 60 37 18 q 7 254 18 157 q -7 437 -4 351 q -9 556 -9 522 q -8 769 -9 590 q -34 838 -34 800 q 4 929 -34 891 q 44 956 22 947 q 91 966 66 966 m 427 937 q 312 978 363 937 q 269 1017 289 996 q 264 1020 267 1019 q 243 1004 252 1012 q 161 967 206 967 q 146 967 153 967 q 73 1004 103 974 q 35 1076 42 1034 q 34 1093 34 1085 q 71 1175 34 1139 q 214 1256 132 1237 q 264 1263 241 1263 q 304 1260 286 1263 q 389 1229 349 1253 q 425 1203 404 1221 q 473 1242 445 1230 q 517 1252 494 1252 q 609 1214 571 1252 q 643 1134 643 1180 q 610 1048 643 1086 q 564 994 579 1010 q 491 949 533 964 q 427 937 460 937 z "},"Ò":{"ha":758,"x_min":-61,"x_max":806,"o":"m 243 747 q 216 657 228 709 q 191 515 203 605 q 183 437 186 480 q 187 405 183 422 q 203 359 191 388 q 241 288 221 323 q 286 227 260 252 q 288 224 288 225 q 312 209 300 212 q 351 202 334 205 q 381 197 369 199 q 384 198 382 198 q 414 221 401 210 q 449 256 433 239 q 553 411 525 342 q 564 460 564 437 q 563 468 564 464 q 541 511 562 488 q 475 572 513 543 q 400 634 430 608 q 342 683 370 661 q 283 724 315 705 q 281 726 282 726 q 243 747 262 739 m -61 429 q -60 452 -61 441 q -16 732 -50 602 q -1 791 -9 758 q 61 920 19 865 q 134 977 91 958 q 224 996 178 996 q 250 994 236 996 q 434 917 340 983 q 503 865 471 891 q 561 816 533 841 q 604 780 589 791 q 620 766 618 769 q 677 717 655 736 q 709 688 700 697 q 764 616 742 655 q 804 495 799 556 q 806 464 806 479 q 755 277 806 370 q 701 186 727 222 q 600 60 647 107 q 463 -37 534 -5 q 365 -57 416 -57 q 270 -30 305 -57 q 233 -20 251 -26 q 167 9 198 -11 q 163 12 165 11 q 45 144 96 61 q -53 363 -31 258 q -61 429 -61 396 m 674 1042 q 656 979 674 1009 q 594 926 633 943 q 549 917 572 917 q 492 932 519 917 q 279 1066 381 989 q 246 1108 256 1084 q 236 1156 236 1133 q 273 1245 236 1210 q 353 1282 308 1282 q 438 1251 399 1282 q 609 1146 507 1196 q 642 1122 628 1137 q 674 1042 674 1090 m 548 1025 q 548 1025 548 1025 l 548 1025 z "},"Ó":{"ha":758,"x_min":-61,"x_max":806,"o":"m 243 747 q 216 657 228 709 q 191 515 203 605 q 183 437 186 480 q 187 405 183 422 q 203 359 191 388 q 241 288 221 323 q 286 227 260 252 q 288 224 288 225 q 312 209 300 212 q 351 202 334 205 q 381 197 369 199 q 384 198 382 198 q 414 221 401 210 q 449 256 433 239 q 553 411 525 342 q 564 460 564 437 q 563 468 564 464 q 541 511 562 488 q 475 572 513 543 q 400 634 430 608 q 342 683 370 661 q 283 724 315 705 q 281 726 282 726 q 243 747 262 739 m -61 429 q -60 452 -61 441 q -16 732 -50 602 q -1 791 -9 758 q 61 920 19 865 q 134 977 91 958 q 224 996 178 996 q 250 994 236 996 q 434 917 340 983 q 503 865 471 891 q 561 816 533 841 q 604 780 589 791 q 620 766 618 769 q 677 717 655 736 q 709 688 700 697 q 764 616 742 655 q 804 495 799 556 q 806 464 806 479 q 755 277 806 370 q 701 186 727 222 q 600 60 647 107 q 463 -37 534 -5 q 365 -57 416 -57 q 270 -30 305 -57 q 233 -20 251 -26 q 167 9 198 -11 q 163 12 165 11 q 45 144 96 61 q -53 363 -31 258 q -61 429 -61 396 m 553 1251 q 638 1282 593 1282 q 718 1246 684 1282 q 755 1156 755 1210 q 715 1069 755 1103 q 712 1066 713 1067 q 499 932 610 989 q 445 917 472 917 q 355 954 393 917 q 335 981 343 966 q 319 1043 319 1010 q 350 1123 319 1090 q 382 1146 363 1137 q 553 1251 484 1196 m 442 1024 q 444 1025 444 1024 l 442 1024 z "},"Ô":{"ha":758,"x_min":-61,"x_max":806,"o":"m 243 747 q 216 657 228 709 q 191 515 203 605 q 183 437 186 480 q 187 405 183 422 q 203 359 191 388 q 241 288 221 323 q 286 227 260 252 q 288 224 288 225 q 312 209 300 212 q 351 202 334 205 q 381 197 369 199 q 384 198 382 198 q 414 221 401 210 q 449 256 433 239 q 553 411 525 342 q 564 460 564 437 q 563 468 564 464 q 541 511 562 488 q 475 572 513 543 q 400 634 430 608 q 342 683 370 661 q 283 724 315 705 q 281 726 282 726 q 243 747 262 739 m -61 429 q -60 452 -61 441 q -16 732 -50 602 q -1 791 -9 758 q 61 920 19 865 q 134 977 91 958 q 224 996 178 996 q 250 994 236 996 q 434 917 340 983 q 503 865 471 891 q 561 816 533 841 q 604 780 589 791 q 620 766 618 769 q 677 717 655 736 q 709 688 700 697 q 764 616 742 655 q 804 495 799 556 q 806 464 806 479 q 755 277 806 370 q 701 186 727 222 q 600 60 647 107 q 463 -37 534 -5 q 365 -57 416 -57 q 270 -30 305 -57 q 233 -20 251 -26 q 167 9 198 -11 q 163 12 165 11 q 45 144 96 61 q -53 363 -31 258 q -61 429 -61 396 m 738 1048 q 701 959 738 994 q 620 924 667 924 q 536 954 572 924 q 476 1006 505 979 q 469 1013 473 1010 q 421 972 435 985 q 407 958 407 959 q 326 925 370 925 q 312 925 319 925 q 236 962 267 932 q 199 1050 199 998 q 239 1134 199 1097 q 406 1271 319 1211 q 468 1290 433 1290 q 533 1274 506 1290 q 627 1199 585 1242 q 696 1137 659 1165 q 728 1095 718 1119 q 738 1048 738 1072 m 621 1059 q 621 1059 621 1059 l 621 1059 z "},"Õ":{"ha":758,"x_min":-61,"x_max":815,"o":"m 243 747 q 216 657 228 709 q 191 515 203 605 q 183 437 186 480 q 187 405 183 422 q 203 359 191 388 q 241 288 221 323 q 286 227 260 252 q 288 224 288 225 q 312 209 300 212 q 351 202 334 205 q 381 197 369 199 q 384 198 382 198 q 414 221 401 210 q 449 256 433 239 q 553 411 525 342 q 564 460 564 437 q 563 468 564 464 q 541 511 562 488 q 475 572 513 543 q 400 634 430 608 q 342 683 370 661 q 283 724 315 705 q 281 726 282 726 q 243 747 262 739 m -61 429 q -60 452 -61 441 q -16 732 -50 602 q -1 791 -9 758 q 61 920 19 865 q 134 977 91 958 q 224 996 178 996 q 250 994 236 996 q 434 917 340 983 q 503 865 471 891 q 561 816 533 841 q 604 780 589 791 q 620 766 618 769 q 677 717 655 736 q 709 688 700 697 q 764 616 742 655 q 804 495 799 556 q 806 464 806 479 q 755 277 806 370 q 701 186 727 222 q 600 60 647 107 q 463 -37 534 -5 q 365 -57 416 -57 q 270 -30 305 -57 q 233 -20 251 -26 q 167 9 198 -11 q 163 12 165 11 q 45 144 96 61 q -53 363 -31 258 q -61 429 -61 396 m 598 922 q 483 963 534 922 q 439 1002 460 981 q 435 1005 438 1004 q 414 989 423 997 q 332 952 377 952 q 317 952 324 952 q 243 989 274 959 q 206 1061 213 1019 q 205 1078 205 1070 q 241 1160 205 1124 q 385 1241 302 1222 q 435 1248 412 1248 q 475 1245 457 1248 q 560 1214 519 1238 q 595 1188 575 1206 q 644 1227 616 1215 q 688 1237 665 1237 q 780 1199 742 1237 q 814 1119 814 1165 q 781 1034 814 1072 q 735 979 750 996 q 662 935 704 949 q 598 922 631 922 z "},"Ö":{"ha":758,"x_min":-61,"x_max":806,"o":"m 243 747 q 216 657 228 709 q 191 515 203 605 q 183 437 186 480 q 187 405 183 422 q 203 359 191 388 q 241 288 221 323 q 286 227 260 252 q 288 224 288 225 q 312 209 300 212 q 351 202 334 205 q 381 197 369 199 q 384 198 382 198 q 414 221 401 210 q 449 256 433 239 q 553 411 525 342 q 564 460 564 437 q 563 468 564 464 q 541 511 562 488 q 475 572 513 543 q 400 634 430 608 q 342 683 370 661 q 283 724 315 705 q 281 726 282 726 q 243 747 262 739 m -61 429 q -60 452 -61 441 q -16 732 -50 602 q -1 791 -9 758 q 61 920 19 865 q 134 977 91 958 q 224 996 178 996 q 250 994 236 996 q 434 917 340 983 q 503 865 471 891 q 561 816 533 841 q 604 780 589 791 q 620 766 618 769 q 677 717 655 736 q 709 688 700 697 q 764 616 742 655 q 804 495 799 556 q 806 464 806 479 q 755 277 806 370 q 701 186 727 222 q 600 60 647 107 q 463 -37 534 -5 q 365 -57 416 -57 q 270 -30 305 -57 q 233 -20 251 -26 q 167 9 198 -11 q 163 12 165 11 q 45 144 96 61 q -53 363 -31 258 q -61 429 -61 396 m 397 1194 q 486 1230 434 1230 q 582 1184 545 1230 q 624 1118 613 1158 q 627 1086 627 1103 q 585 994 627 1036 q 533 960 563 971 q 494 954 514 954 q 445 964 468 954 q 397 1000 416 978 q 331 959 372 967 q 302 955 316 955 q 243 971 271 955 q 186 1042 201 994 q 184 1051 184 1046 q 172 1104 172 1077 q 208 1188 172 1153 q 227 1204 216 1198 q 262 1224 243 1217 q 302 1232 282 1232 q 328 1230 312 1232 q 354 1222 345 1227 q 397 1194 377 1213 z "},"×":{"ha":526,"x_min":-41,"x_max":567,"o":"m 277 425 q 265 423 271 423 q 254 425 259 423 q 254 419 254 422 q 254 415 254 416 q 264 415 258 415 q 277 414 270 415 q 277 418 277 415 q 277 425 277 420 m 567 247 q 566 236 567 241 q 529 156 562 189 q 463 121 502 129 q 441 118 452 118 q 362 153 397 118 q 300 214 324 189 q 262 252 275 239 q 186 165 217 208 q 117 118 159 130 q 87 113 100 113 q 57 116 73 113 q 25 129 41 119 q 0 148 9 138 q -33 205 -23 171 q -37 232 -37 221 q -14 304 -37 274 q 83 415 28 361 q 22 458 54 438 q -31 521 -15 481 q -41 564 -41 543 q -27 618 -41 593 q -1 652 -18 636 q 38 677 15 669 q 81 686 61 686 q 142 669 114 686 q 218 617 189 640 q 266 579 248 594 q 359 658 281 591 q 437 689 393 689 q 457 686 446 689 q 529 648 499 678 q 563 566 563 614 q 524 477 563 514 q 477 439 505 461 q 446 412 450 416 q 473 385 453 404 q 512 347 494 365 q 532 328 530 330 q 567 247 567 293 z "},"Ø":{"ha":766,"x_min":-54,"x_max":812,"o":"m 571 460 q 570 468 571 464 q 548 511 568 488 q 546 513 547 511 q 544 515 545 514 q 454 358 499 435 q 369 201 410 281 q 389 197 378 199 q 391 198 389 198 q 420 221 408 210 q 456 256 439 239 q 560 411 532 342 q 571 460 571 437 m 250 747 q 225 668 235 709 q 205 566 216 627 q 193 478 195 505 q 191 448 191 452 q 190 433 190 444 q 197 393 190 416 q 267 519 227 449 q 357 677 308 590 q 334 695 350 682 q 303 717 317 708 q 288 726 289 726 q 250 747 269 739 m 206 178 q 198 176 201 176 q 194 176 195 176 q 203 163 199 170 q 206 178 205 171 m 515 690 q 510 720 510 704 q 510 724 510 722 q 503 723 506 724 q 510 692 510 709 q 510 690 510 692 q 515 690 513 690 m 212 123 q 210 126 212 125 q 210 123 210 125 q 212 123 212 123 m 612 1027 q 673 1010 644 1027 q 697 991 686 1002 q 731 906 731 958 q 718 849 731 876 q 663 735 682 773 q 715 689 704 700 q 770 616 747 656 q 811 495 806 556 q 812 464 812 479 q 762 277 812 370 q 708 186 734 222 q 606 60 654 107 q 469 -37 541 -5 q 372 -57 423 -57 q 332 -53 349 -57 q 275 -28 297 -46 l 263 -27 q 237 -98 248 -65 q 183 -170 221 -144 q 121 -189 155 -189 q 83 -182 100 -189 q 14 -127 39 -168 q -4 -66 -4 -98 q 3 -28 -4 -46 q 64 125 39 72 q 12 209 31 174 q -54 429 -54 331 q -53 452 -54 441 q -9 732 -45 589 q 5 791 -3 757 q 68 920 26 865 q 141 977 98 958 q 231 996 184 996 q 256 994 243 996 q 441 917 347 983 q 471 895 456 906 q 502 960 487 928 q 524 993 510 979 q 581 1024 547 1016 q 612 1027 597 1027 z "},"Ù":{"ha":671,"x_min":-56,"x_max":699,"o":"m -54 913 q -16 996 -54 963 q 71 1028 23 1028 q 157 989 123 1028 q 190 914 184 958 q 204 750 199 830 q 214 571 209 670 q 233 354 218 472 q 233 346 233 353 q 243 269 239 294 q 267 174 255 209 q 271 165 270 170 q 284 170 281 168 q 288 174 288 172 q 335 220 313 190 q 407 366 376 278 q 454 650 454 500 q 454 675 454 662 q 435 909 450 792 q 435 922 435 916 q 473 1005 435 971 q 559 1039 511 1039 q 646 998 612 1039 q 678 926 673 967 q 697 644 697 781 q 662 374 697 506 q 590 172 631 254 q 538 85 566 122 q 491 27 511 47 q 452 -8 471 7 q 350 -66 406 -45 q 266 -81 308 -81 q 122 -30 182 -81 q 60 43 84 3 q 60 46 60 45 q 7 205 19 123 q -17 393 -5 288 q -34 633 -28 499 q -54 898 -39 766 q -54 913 -54 906 m 553 1057 q 536 994 553 1024 q 473 941 513 958 q 429 932 452 932 q 372 947 399 932 q 159 1081 260 1004 q 125 1123 136 1099 q 115 1171 115 1147 q 152 1260 115 1225 q 233 1297 187 1297 q 317 1265 278 1297 q 488 1161 387 1211 q 521 1137 507 1152 q 553 1057 553 1105 m 427 1040 q 427 1040 427 1040 l 427 1040 z "},"Ú":{"ha":671,"x_min":-56,"x_max":699,"o":"m -54 913 q -16 996 -54 963 q 71 1028 23 1028 q 157 989 123 1028 q 190 914 184 958 q 204 750 199 830 q 214 571 209 670 q 233 354 218 472 q 233 346 233 353 q 243 269 239 294 q 267 174 255 209 q 271 165 270 170 q 284 170 281 168 q 288 174 288 172 q 335 220 313 190 q 407 366 376 278 q 454 650 454 500 q 454 675 454 662 q 435 909 450 792 q 435 922 435 916 q 473 1005 435 971 q 559 1039 511 1039 q 646 998 612 1039 q 678 926 673 967 q 697 644 697 781 q 662 374 697 506 q 590 172 631 254 q 538 85 566 122 q 491 27 511 47 q 452 -8 471 7 q 350 -66 406 -45 q 266 -81 308 -81 q 122 -30 182 -81 q 60 43 84 3 q 60 46 60 45 q 7 205 19 123 q -17 393 -5 288 q -34 633 -28 499 q -54 898 -39 766 q -54 913 -54 906 m 463 1293 q 547 1324 502 1324 q 627 1289 593 1324 q 665 1198 665 1252 q 624 1111 665 1145 q 621 1108 623 1109 q 408 974 519 1031 q 354 959 381 959 q 264 996 302 959 q 244 1023 252 1008 q 228 1085 228 1053 q 259 1165 228 1133 q 292 1188 273 1179 q 463 1293 393 1238 m 351 1066 q 353 1067 353 1066 l 351 1066 z "},"Û":{"ha":671,"x_min":-56,"x_max":699,"o":"m -54 913 q -16 996 -54 963 q 71 1028 23 1028 q 157 989 123 1028 q 190 914 184 958 q 204 750 199 830 q 214 571 209 670 q 233 354 218 472 q 233 346 233 353 q 243 269 239 294 q 267 174 255 209 q 271 165 270 170 q 284 170 281 168 q 288 174 288 172 q 335 220 313 190 q 407 366 376 278 q 454 650 454 500 q 454 675 454 662 q 435 909 450 792 q 435 922 435 916 q 473 1005 435 971 q 559 1039 511 1039 q 646 998 612 1039 q 678 926 673 967 q 697 644 697 781 q 662 374 697 506 q 590 172 631 254 q 538 85 566 122 q 491 27 511 47 q 452 -8 471 7 q 350 -66 406 -45 q 266 -81 308 -81 q 122 -30 182 -81 q 60 43 84 3 q 60 46 60 45 q 7 205 19 123 q -17 393 -5 288 q -34 633 -28 499 q -54 898 -39 766 q -54 913 -54 906 m 659 1104 q 623 1015 659 1050 q 541 979 589 979 q 457 1009 494 979 q 397 1062 426 1035 q 391 1069 395 1066 q 342 1027 357 1040 q 328 1013 328 1015 q 247 981 292 981 q 233 981 240 981 q 157 1017 189 987 q 121 1105 121 1054 q 160 1190 121 1153 q 327 1326 240 1267 q 389 1345 354 1345 q 454 1329 427 1345 q 548 1255 506 1298 q 617 1192 581 1221 q 649 1151 639 1175 q 659 1104 659 1127 m 543 1115 q 543 1115 543 1115 l 543 1115 z "},"Ü":{"ha":671,"x_min":-56,"x_max":699,"o":"m -54 913 q -16 996 -54 963 q 71 1028 23 1028 q 157 989 123 1028 q 190 914 184 958 q 204 750 199 830 q 214 571 209 670 q 233 354 218 472 q 233 346 233 353 q 243 269 239 294 q 267 174 255 209 q 271 165 270 170 q 284 170 281 168 q 288 174 288 172 q 335 220 313 190 q 407 366 376 278 q 454 650 454 500 q 454 675 454 662 q 435 909 450 792 q 435 922 435 916 q 473 1005 435 971 q 559 1039 511 1039 q 646 998 612 1039 q 678 926 673 967 q 697 644 697 781 q 662 374 697 506 q 590 172 631 254 q 538 85 566 122 q 491 27 511 47 q 452 -8 471 7 q 350 -66 406 -45 q 266 -81 308 -81 q 122 -30 182 -81 q 60 43 84 3 q 60 46 60 45 q 7 205 19 123 q -17 393 -5 288 q -34 633 -28 499 q -54 898 -39 766 q -54 913 -54 906 m 401 1222 q 490 1259 438 1259 q 586 1213 549 1259 q 628 1146 617 1187 q 631 1115 631 1131 q 589 1023 631 1065 q 537 989 567 1000 q 498 982 518 982 q 449 993 472 982 q 401 1028 420 1006 q 335 987 376 996 q 307 983 320 983 q 247 1000 275 983 q 190 1070 205 1023 q 189 1080 189 1074 q 176 1133 176 1105 q 212 1217 176 1181 q 231 1233 220 1226 q 267 1253 247 1245 q 307 1260 286 1260 q 332 1258 316 1260 q 358 1251 349 1256 q 401 1222 381 1241 z "},"Ý":{"ha":540,"x_min":-165,"x_max":742,"o":"m -28 951 l -37 967 l -39 968 l -28 951 m 172 27 q 164 230 164 132 q 168 445 164 328 q 164 452 167 448 q 84 567 114 507 q 30 685 54 627 q -26 785 5 743 q -102 849 -54 823 q -133 871 -119 859 q -164 951 -164 903 q -148 1015 -164 985 q -85 1069 -126 1053 q -43 1077 -65 1077 q 15 1062 -14 1077 q 154 951 99 1019 q 244 803 209 884 q 286 705 285 707 q 446 954 359 789 q 514 1072 492 1039 q 614 1128 549 1128 q 678 1112 648 1128 q 732 1050 716 1090 q 741 1008 741 1029 q 723 947 741 977 q 653 825 688 887 q 581 701 618 764 q 415 491 500 574 q 408 233 408 330 q 416 37 408 136 q 416 28 416 33 q 378 -56 416 -22 q 292 -90 340 -90 q 209 -54 243 -90 q 172 27 175 -19 m 614 993 l 628 1000 l 629 1001 l 614 993 m 281 529 q 277 529 279 529 q 281 525 278 528 q 281 529 281 528 m 468 1321 q 553 1352 507 1352 q 632 1317 598 1352 q 670 1226 670 1280 q 629 1139 670 1173 q 627 1137 628 1138 q 414 1002 525 1059 q 359 987 387 987 q 270 1024 308 987 q 250 1051 258 1036 q 233 1114 233 1081 q 264 1194 233 1161 q 297 1217 278 1207 q 468 1321 399 1267 m 357 1095 q 358 1096 358 1095 l 357 1095 z "},"Þ":{"ha":601,"x_min":-12,"x_max":677,"o":"m 601 787 q 675 635 675 738 q 652 534 675 598 q 511 251 593 366 q 408 134 460 178 q 321 79 365 98 q 332 40 328 53 q 335 27 335 27 q 340 -1 340 9 q 339 -18 340 -12 q 305 -88 336 -58 q 250 -121 282 -113 q 211 -126 232 -126 q 168 -117 190 -126 q 100 -37 115 -95 q 39 267 60 114 q 5 570 19 419 q -11 841 -8 708 q -12 920 -12 876 q 14 1025 -12 978 q 35 1055 23 1043 q 115 1086 68 1086 q 178 1070 148 1086 q 232 1006 216 1048 q 240 964 240 986 q 235 925 240 944 q 233 921 235 924 q 351 884 271 914 q 510 830 431 853 q 601 787 559 815 m 275 345 q 312 392 294 366 q 399 553 370 484 q 412 587 407 572 q 418 602 418 601 q 418 602 418 602 q 414 603 416 602 q 392 610 412 604 q 339 628 372 616 q 241 665 304 643 q 248 593 245 617 q 254 529 251 570 q 275 345 260 446 m 193 176 q 191 178 191 176 q 191 175 191 176 q 193 176 191 176 m 205 -8 q 205 -8 205 -8 q 205 -8 205 -8 z "},"ß":{"ha":836,"x_min":-81,"x_max":891,"o":"m -43 433 q -81 515 -81 467 q -49 603 -81 564 q 37 642 -16 642 q 144 628 60 642 q 214 836 172 736 q 260 928 233 883 q 388 1063 308 1005 q 549 1128 464 1118 q 589 1130 566 1130 q 646 1122 616 1130 q 760 1057 711 1105 q 831 932 810 1006 q 849 815 849 875 q 818 648 849 727 q 713 481 783 557 q 662 430 689 454 q 587 357 621 393 q 632 327 608 340 q 768 247 734 269 q 890 56 890 168 q 831 -64 890 -15 q 713 -130 779 -107 q 563 -155 640 -155 q 445 -140 506 -155 q 328 -94 384 -125 q 288 -58 302 -80 q 218 -80 255 -80 q 130 -41 164 -80 q 98 34 103 -9 q 88 213 88 123 q 98 389 88 302 q 50 396 66 395 q 33 397 34 397 q -43 433 -12 403 m 522 633 q 587 723 566 678 q 602 772 598 745 q 605 814 605 799 q 604 838 605 829 q 602 849 604 844 q 600 858 601 854 q 597 872 600 861 l 593 878 q 590 882 591 879 q 585 886 587 886 l 576 886 q 552 878 567 883 q 519 857 528 864 q 427 720 465 811 q 395 631 408 678 q 370 537 382 583 q 351 439 359 488 q 420 536 373 488 q 472 587 446 563 q 522 633 498 610 m 334 119 q 388 133 361 133 q 448 118 419 133 q 503 96 468 107 q 551 90 526 91 q 513 111 538 96 q 457 147 487 126 q 410 186 427 168 q 378 221 389 206 q 335 308 347 263 q 331 210 331 258 q 334 119 331 163 z "},"à":{"ha":674,"x_min":-26,"x_max":674,"o":"m 456 -41 q 304 -62 378 -62 q 132 -26 213 -62 q 33 52 69 3 q -26 236 -26 130 q -1 376 -26 308 q 28 452 11 411 q 66 522 46 492 q 104 569 87 552 q 138 600 122 586 q 239 640 182 631 q 315 647 277 647 q 430 636 366 647 q 461 631 446 635 q 547 663 498 663 q 632 625 598 663 q 667 549 662 593 q 674 429 674 490 q 670 297 674 368 q 663 127 663 175 q 664 62 663 80 q 665 39 665 43 q 623 -49 665 -18 q 544 -76 587 -76 q 465 -49 500 -76 q 456 -41 460 -45 m 232 308 q 220 267 225 288 q 216 236 216 245 q 217 218 216 227 q 224 199 218 210 q 230 197 225 198 q 236 195 235 195 q 312 183 274 183 q 420 208 369 183 q 429 382 429 317 q 415 389 425 385 q 332 403 397 399 q 309 403 321 403 q 283 401 288 403 q 279 400 279 400 q 232 308 256 372 m 521 487 q 537 476 533 479 q 536 496 536 487 q 521 487 529 491 m 528 114 q 517 106 524 111 q 528 99 522 103 q 528 114 528 106 m 606 724 q 589 662 606 692 q 526 609 566 625 q 481 600 505 600 q 425 614 452 600 q 212 749 313 671 q 178 791 189 766 q 168 838 168 815 q 205 928 168 892 q 286 964 240 964 q 370 933 331 964 q 541 829 439 879 q 574 804 560 819 q 606 724 606 773 m 480 708 q 480 708 480 708 l 480 708 z "},"á":{"ha":674,"x_min":-26,"x_max":730,"o":"m 456 -41 q 304 -62 378 -62 q 132 -26 213 -62 q 33 52 69 3 q -26 236 -26 130 q -1 376 -26 308 q 28 452 11 411 q 66 522 46 492 q 104 569 87 552 q 138 600 122 586 q 239 640 182 631 q 315 647 277 647 q 430 636 366 647 q 461 631 446 635 q 547 663 498 663 q 632 625 598 663 q 667 549 662 593 q 674 429 674 490 q 670 297 674 368 q 663 127 663 175 q 664 62 663 80 q 665 39 665 43 q 623 -49 665 -18 q 544 -76 587 -76 q 465 -49 500 -76 q 456 -41 460 -45 m 232 308 q 220 267 225 288 q 216 236 216 245 q 217 218 216 227 q 224 199 218 210 q 230 197 225 198 q 236 195 235 195 q 312 183 274 183 q 420 208 369 183 q 429 382 429 317 q 415 389 425 385 q 332 403 397 399 q 309 403 321 403 q 283 401 288 403 q 279 400 279 400 q 232 308 256 372 m 521 487 q 537 476 533 479 q 536 496 536 487 q 521 487 529 491 m 528 114 q 517 106 524 111 q 528 99 522 103 q 528 114 528 106 m 528 947 q 612 978 567 978 q 692 943 658 978 q 730 852 730 906 q 689 765 730 799 q 686 762 688 764 q 473 628 585 685 q 419 613 446 613 q 330 650 368 613 q 309 677 317 662 q 293 739 293 707 q 324 819 293 787 q 357 842 338 833 q 528 947 458 892 m 416 720 q 418 722 418 720 l 416 720 z "},"â":{"ha":674,"x_min":-26,"x_max":712,"o":"m 456 -41 q 304 -62 378 -62 q 132 -26 213 -62 q 33 52 69 3 q -26 236 -26 130 q -1 376 -26 308 q 28 452 11 411 q 66 522 46 492 q 104 569 87 552 q 138 600 122 586 q 239 640 182 631 q 315 647 277 647 q 430 636 366 647 q 461 631 446 635 q 547 663 498 663 q 632 625 598 663 q 667 549 662 593 q 674 429 674 490 q 670 297 674 368 q 663 127 663 175 q 664 62 663 80 q 665 39 665 43 q 623 -49 665 -18 q 544 -76 587 -76 q 465 -49 500 -76 q 456 -41 460 -45 m 232 308 q 220 267 225 288 q 216 236 216 245 q 217 218 216 227 q 224 199 218 210 q 230 197 225 198 q 236 195 235 195 q 312 183 274 183 q 420 208 369 183 q 429 382 429 317 q 415 389 425 385 q 332 403 397 399 q 309 403 321 403 q 283 401 288 403 q 279 400 279 400 q 232 308 256 372 m 521 487 q 537 476 533 479 q 536 496 536 487 q 521 487 529 491 m 528 114 q 517 106 524 111 q 528 99 522 103 q 528 114 528 106 m 712 745 q 675 655 712 690 q 594 620 642 620 q 510 650 547 620 q 450 703 479 675 q 444 709 448 707 q 395 668 410 681 q 381 654 381 655 q 300 621 345 621 q 286 621 293 621 q 210 658 241 628 q 174 746 174 694 q 213 830 174 793 q 380 967 293 907 q 442 986 407 986 q 507 970 480 986 q 601 895 559 939 q 670 833 633 861 q 702 791 692 815 q 712 745 712 768 m 595 755 q 595 755 595 755 l 595 755 z "},"ã":{"ha":674,"x_min":-26,"x_max":732,"o":"m 456 -41 q 304 -62 378 -62 q 132 -26 213 -62 q 33 52 69 3 q -26 236 -26 130 q -1 376 -26 308 q 28 452 11 411 q 66 522 46 492 q 104 569 87 552 q 138 600 122 586 q 239 640 182 631 q 315 647 277 647 q 430 636 366 647 q 461 631 446 635 q 547 663 498 663 q 632 625 598 663 q 667 549 662 593 q 674 429 674 490 q 670 297 674 368 q 663 127 663 175 q 664 62 663 80 q 665 39 665 43 q 623 -49 665 -18 q 544 -76 587 -76 q 465 -49 500 -76 q 456 -41 460 -45 m 232 308 q 220 267 225 288 q 216 236 216 245 q 217 218 216 227 q 224 199 218 210 q 230 197 225 198 q 236 195 235 195 q 312 183 274 183 q 420 208 369 183 q 429 382 429 317 q 415 389 425 385 q 332 403 397 399 q 309 403 321 403 q 283 401 288 403 q 279 400 279 400 q 232 308 256 372 m 521 487 q 537 476 533 479 q 536 496 536 487 q 521 487 529 491 m 528 114 q 517 106 524 111 q 528 99 522 103 q 528 114 528 106 m 517 618 q 401 659 453 618 q 358 699 378 677 q 354 701 357 700 q 332 685 342 693 q 251 648 296 648 q 236 648 243 648 q 162 685 193 655 q 125 757 132 715 q 123 774 123 766 q 160 856 123 821 q 304 937 221 918 q 353 944 331 944 q 393 941 376 944 q 479 910 438 935 q 514 884 494 902 q 563 924 534 911 q 606 933 583 933 q 699 895 661 933 q 732 815 732 861 q 700 730 732 768 q 654 675 669 692 q 581 631 623 646 q 517 618 549 618 z "},"ä":{"ha":674,"x_min":-26,"x_max":674,"o":"m 456 -41 q 304 -62 378 -62 q 132 -26 213 -62 q 33 52 69 3 q -26 236 -26 130 q -1 376 -26 308 q 28 452 11 411 q 66 522 46 492 q 104 569 87 552 q 138 600 122 586 q 239 640 182 631 q 315 647 277 647 q 430 636 366 647 q 461 631 446 635 q 547 663 498 663 q 632 625 598 663 q 667 549 662 593 q 674 429 674 490 q 670 297 674 368 q 663 127 663 175 q 664 62 663 80 q 665 39 665 43 q 623 -49 665 -18 q 544 -76 587 -76 q 465 -49 500 -76 q 456 -41 460 -45 m 232 308 q 220 267 225 288 q 216 236 216 245 q 217 218 216 227 q 224 199 218 210 q 230 197 225 198 q 236 195 235 195 q 312 183 274 183 q 420 208 369 183 q 429 382 429 317 q 415 389 425 385 q 332 403 397 399 q 309 403 321 403 q 283 401 288 403 q 279 400 279 400 q 232 308 256 372 m 521 487 q 537 476 533 479 q 536 496 536 487 q 521 487 529 491 m 528 114 q 517 106 524 111 q 528 99 522 103 q 528 114 528 106 m 426 861 q 514 898 463 898 q 610 852 574 898 q 652 785 642 826 q 655 754 655 770 q 613 662 655 704 q 562 628 591 639 q 522 621 543 621 q 473 632 496 621 q 426 667 445 646 q 359 627 400 635 q 331 623 345 623 q 271 639 300 623 q 214 709 229 662 q 213 719 213 713 q 201 772 201 745 q 236 856 201 821 q 255 872 244 865 q 291 892 271 884 q 331 899 311 899 q 357 897 340 899 q 382 890 373 895 q 426 861 406 880 z "},"å":{"ha":674,"x_min":-26,"x_max":674,"o":"m 456 -41 q 304 -62 378 -62 q 132 -26 213 -62 q 33 52 69 3 q -26 236 -26 130 q -1 376 -26 308 q 28 452 11 411 q 66 524 46 492 q 126 590 95 564 q 88 678 98 628 q 85 699 87 686 q 84 732 84 712 q 92 785 84 751 q 119 856 100 819 q 171 926 142 897 q 235 972 203 959 q 330 994 281 994 q 433 970 385 994 q 510 909 477 948 q 568 738 568 838 q 557 663 568 699 q 632 627 602 659 q 667 549 662 593 q 674 429 674 490 q 670 297 674 368 q 663 127 663 175 q 664 62 663 80 q 665 39 665 43 q 623 -49 665 -18 q 544 -76 587 -76 q 465 -49 500 -76 q 456 -41 460 -45 m 308 538 q 317 538 309 538 q 355 537 330 538 q 343 576 343 553 q 347 601 343 590 q 341 601 345 601 q 332 601 338 601 q 311 604 319 602 q 317 572 317 590 q 308 538 317 555 m 536 496 q 521 487 529 491 q 537 476 533 479 q 536 496 536 487 m 528 99 q 528 114 528 106 q 515 106 524 110 q 528 99 522 103 m 232 308 q 220 267 225 288 q 216 236 216 245 q 217 218 216 227 q 224 199 218 210 q 230 197 225 198 q 236 195 235 195 q 305 184 271 184 q 420 210 359 184 q 429 382 429 317 q 415 389 425 385 q 332 403 397 399 q 309 403 321 403 q 283 401 288 403 q 279 400 279 400 q 232 308 256 372 z "},"æ":{"ha":1089,"x_min":-26,"x_max":1124,"o":"m 232 308 q 220 267 225 288 q 216 236 216 245 q 217 218 216 227 q 224 199 218 210 q 230 197 225 198 q 236 195 235 195 q 312 183 274 183 q 422 209 370 183 q 427 298 425 255 q 429 382 429 340 q 415 389 425 385 q 332 403 397 399 q 309 403 321 403 q 283 401 288 403 q 279 400 279 400 q 232 308 256 372 m 528 113 q 521 109 524 110 q 517 106 518 107 q 528 99 522 103 l 528 113 m 598 479 q 544 506 564 479 q 521 487 534 494 q 544 469 538 476 q 564 423 564 450 q 564 371 564 404 q 562 291 564 338 q 557 195 560 244 q 595 208 574 208 q 598 208 597 208 q 566 307 575 254 q 564 320 564 313 q 585 366 564 347 q 598 378 591 373 q 578 423 578 399 q 585 452 578 438 q 598 479 591 467 m 897 240 q 834 236 868 236 q 739 239 783 236 q 789 201 760 216 q 807 195 800 197 q 814 195 808 195 q 825 193 819 194 q 850 200 842 197 q 867 210 857 203 q 897 240 879 221 m 608 647 q 811 715 699 715 q 917 694 865 715 q 1010 639 968 674 q 1082 543 1057 601 q 1105 450 1101 499 q 1105 437 1105 444 q 1050 309 1105 365 q 1032 293 1042 301 q 1084 263 1062 285 q 1116 213 1105 241 q 1123 178 1123 193 q 1100 107 1123 137 q 991 1 1054 45 q 818 -50 917 -50 q 656 -5 735 -50 q 623 -49 646 -31 q 544 -76 587 -76 q 465 -49 500 -76 q 456 -41 460 -45 q 304 -62 378 -62 q 132 -26 213 -62 q 33 52 69 3 q -26 236 -26 130 q -1 376 -26 308 q 28 452 11 411 q 66 522 46 492 q 104 569 87 552 q 138 600 122 586 q 239 640 182 631 q 315 647 277 647 q 430 636 366 647 q 461 631 446 635 q 545 663 498 663 q 608 647 581 663 z "},"ç":{"ha":513,"x_min":-34,"x_max":567,"o":"m 201 -262 q 201 -262 201 -262 q 201 -262 201 -262 m 449 438 q 416 439 449 438 q 307 415 362 439 q 240 376 256 391 q 222 357 228 365 q 212 319 212 342 q 217 283 212 301 q 245 240 227 254 q 343 208 289 208 q 372 210 358 208 q 397 213 385 213 q 454 199 427 213 q 484 178 472 191 q 515 125 506 156 q 519 92 519 109 q 506 35 519 64 q 461 -14 490 3 q 544 -126 528 -58 q 548 -167 548 -145 q 541 -216 548 -191 q 461 -334 519 -286 q 297 -411 385 -393 q 255 -415 271 -415 q 231 -415 239 -415 q 98 -351 146 -410 q 65 -267 65 -312 q 98 -186 65 -221 q 153 -152 121 -161 q 107 -65 118 -117 q 103 -27 103 -46 q 106 6 103 -8 q 110 26 110 20 q 109 35 110 33 q 109 38 109 38 q -15 202 20 100 q -34 315 -34 258 q -26 388 -34 351 q 58 540 -5 475 q 183 625 114 594 q 412 684 305 684 q 453 682 437 684 q 534 643 500 675 q 567 562 567 610 q 529 472 567 510 q 449 438 495 438 z "},"è":{"ha":609,"x_min":-47,"x_max":643,"o":"m 435 693 q 530 639 488 674 q 602 543 576 601 q 625 450 621 499 q 625 437 625 444 q 570 309 625 365 q 552 293 562 301 q 604 263 582 285 q 636 210 625 241 q 642 178 642 193 q 621 109 642 137 q 511 1 574 46 q 338 -50 437 -50 q 214 -24 275 -50 q 98 56 151 4 q 15 175 45 109 q -23 307 -15 241 q -39 336 -31 317 q -47 380 -47 355 q -26 452 -47 418 q 0 480 -15 469 q 122 643 38 579 q 217 696 167 675 q 326 716 270 716 q 435 693 382 716 m 103 366 q 118 378 111 373 q 109 391 113 384 q 96 378 103 384 q 103 366 100 373 m 416 240 q 354 236 388 236 q 259 239 302 236 q 309 201 278 216 q 327 195 320 197 q 334 194 328 195 q 345 193 343 193 q 369 199 361 195 q 387 210 377 203 q 416 240 399 221 m 602 780 q 585 718 602 747 q 522 665 562 681 q 477 655 500 655 q 420 670 448 655 q 208 804 309 727 q 174 846 184 822 q 164 894 164 871 q 201 983 164 948 q 281 1020 236 1020 q 366 989 327 1020 q 537 884 435 935 q 570 860 556 875 q 602 780 602 829 m 476 764 q 476 764 476 764 l 476 764 z "},"é":{"ha":609,"x_min":-47,"x_max":643,"o":"m 435 693 q 530 639 488 674 q 602 543 576 601 q 625 450 621 499 q 625 437 625 444 q 570 309 625 365 q 552 293 562 301 q 604 263 582 285 q 636 210 625 241 q 642 178 642 193 q 621 109 642 137 q 511 1 574 46 q 338 -50 437 -50 q 214 -24 275 -50 q 98 56 151 4 q 15 175 45 109 q -23 307 -15 241 q -39 336 -31 317 q -47 380 -47 355 q -26 452 -47 418 q 0 480 -15 469 q 122 643 38 579 q 217 696 167 675 q 326 716 270 716 q 435 693 382 716 m 103 366 q 118 378 111 373 q 109 391 113 384 q 96 378 103 384 q 103 366 100 373 m 416 240 q 354 236 388 236 q 259 239 302 236 q 309 201 278 216 q 327 195 320 197 q 334 194 328 195 q 345 193 343 193 q 369 199 361 195 q 387 210 377 203 q 416 240 399 221 m 414 989 q 498 1020 453 1020 q 578 985 544 1020 q 616 894 616 948 q 575 807 616 841 q 572 804 574 806 q 359 670 471 727 q 305 655 332 655 q 216 692 254 655 q 195 719 203 704 q 179 781 179 749 q 210 861 179 829 q 243 884 224 875 q 414 989 345 935 m 302 762 q 304 764 304 762 l 302 762 z "},"ê":{"ha":609,"x_min":-47,"x_max":652,"o":"m 435 693 q 530 639 488 674 q 602 543 576 601 q 625 450 621 499 q 625 437 625 444 q 570 309 625 365 q 552 293 562 301 q 604 263 582 285 q 636 210 625 241 q 642 178 642 193 q 621 109 642 137 q 511 1 574 46 q 338 -50 437 -50 q 214 -24 275 -50 q 98 56 151 4 q 15 175 45 109 q -23 307 -15 241 q -39 336 -31 317 q -47 380 -47 355 q -26 452 -47 418 q 0 480 -15 469 q 122 643 38 579 q 217 696 167 675 q 326 716 270 716 q 435 693 382 716 m 103 366 q 118 378 111 373 q 109 391 113 384 q 96 378 103 384 q 103 366 100 373 m 416 240 q 354 236 388 236 q 259 239 302 236 q 309 201 278 216 q 327 195 320 197 q 334 194 328 195 q 345 193 343 193 q 369 199 361 195 q 387 210 377 203 q 416 240 399 221 m 652 773 q 616 684 652 719 q 534 648 582 648 q 450 678 487 648 q 391 731 419 704 q 384 738 388 735 q 336 696 350 709 q 321 682 321 684 q 240 650 285 650 q 227 650 233 650 q 151 686 182 656 q 114 774 114 723 q 153 859 114 822 q 320 996 233 936 q 382 1015 347 1015 q 448 998 420 1015 q 541 924 499 967 q 610 861 574 890 q 642 820 632 844 q 652 773 652 796 m 536 784 q 536 784 536 784 l 536 784 z "},"ë":{"ha":609,"x_min":-47,"x_max":643,"o":"m 435 693 q 530 639 488 674 q 602 543 576 601 q 625 450 621 499 q 625 437 625 444 q 570 309 625 365 q 552 293 562 301 q 604 263 582 285 q 636 210 625 241 q 642 178 642 193 q 621 109 642 137 q 511 1 574 46 q 338 -50 437 -50 q 214 -24 275 -50 q 98 56 151 4 q 15 175 45 109 q -23 307 -15 241 q -39 336 -31 317 q -47 380 -47 355 q -26 452 -47 418 q 0 480 -15 469 q 122 643 38 579 q 217 696 167 675 q 326 716 270 716 q 435 693 382 716 m 103 366 q 118 378 111 373 q 109 391 113 384 q 96 378 103 384 q 103 366 100 373 m 416 240 q 354 236 388 236 q 259 239 302 236 q 309 201 278 216 q 327 195 320 197 q 334 194 328 195 q 345 193 343 193 q 369 199 361 195 q 387 210 377 203 q 416 240 399 221 m 381 903 q 469 940 418 940 q 566 894 529 940 q 608 827 597 868 q 610 796 610 812 q 568 704 610 746 q 517 670 547 681 q 477 663 498 663 q 429 674 452 663 q 381 709 400 688 q 315 669 355 677 q 286 665 300 665 q 227 681 255 665 q 170 751 184 704 q 168 761 168 755 q 156 814 156 787 q 191 898 156 863 q 210 914 199 907 q 246 934 227 926 q 286 941 266 941 q 312 939 296 941 q 338 932 328 937 q 381 903 361 922 z "},"ì":{"ha":312,"x_min":-102,"x_max":339,"o":"m 289 363 q 258 98 289 245 q 240 5 245 37 q 235 -27 235 -27 q 205 -85 228 -61 q 172 -109 191 -99 q 115 -122 144 -122 q 83 -118 99 -122 q 8 -57 31 -103 q -5 0 -5 -30 q 23 157 -5 33 q 42 277 37 216 q 45 330 45 312 q 43 425 45 347 q 53 532 43 477 q 83 591 57 567 q 115 614 96 605 q 172 628 144 628 q 205 624 189 628 q 256 594 236 614 q 279 562 271 579 q 292 503 292 533 q 289 474 292 490 q 286 447 286 458 q 289 363 286 435 m 338 724 q 320 662 338 692 q 258 609 297 625 q 213 600 236 600 q 156 614 183 600 q -57 749 45 671 q -90 791 -80 766 q -100 838 -100 815 q -64 928 -100 892 q 17 964 -28 964 q 102 933 62 964 q 273 829 171 879 q 305 804 292 819 q 338 724 338 773 m 212 708 q 212 708 212 708 l 212 708 z "},"í":{"ha":312,"x_min":-5,"x_max":492,"o":"m 289 363 q 258 98 289 245 q 240 5 245 37 q 235 -27 235 -27 q 205 -85 228 -61 q 172 -109 191 -99 q 115 -122 144 -122 q 83 -118 99 -122 q 8 -57 31 -103 q -5 0 -5 -30 q 23 157 -5 33 q 42 277 37 216 q 45 330 45 312 q 43 425 45 347 q 53 532 43 477 q 83 591 57 567 q 115 614 96 605 q 172 628 144 628 q 205 624 189 628 q 256 594 236 614 q 279 562 271 579 q 292 503 292 533 q 289 474 292 490 q 286 447 286 458 q 289 363 286 435 m 289 947 q 374 978 328 978 q 453 943 419 978 q 491 852 491 906 q 450 765 491 799 q 448 762 449 764 q 235 628 346 685 q 180 613 208 613 q 91 650 129 613 q 71 677 79 662 q 54 739 54 707 q 85 819 54 787 q 118 842 99 833 q 289 947 220 892 m 178 720 q 179 722 179 720 l 178 720 z "},"î":{"ha":312,"x_min":-95,"x_max":445,"o":"m 289 363 q 258 98 289 245 q 240 5 245 37 q 235 -27 235 -27 q 205 -85 228 -61 q 172 -109 191 -99 q 115 -122 144 -122 q 83 -118 99 -122 q 8 -57 31 -103 q -5 0 -5 -30 q 23 157 -5 33 q 42 277 37 216 q 45 330 45 312 q 43 425 45 347 q 53 532 43 477 q 83 591 57 567 q 115 614 96 605 q 172 628 144 628 q 205 624 189 628 q 256 594 236 614 q 279 562 271 579 q 292 503 292 533 q 289 474 292 490 q 286 447 286 458 q 289 363 286 435 m 444 703 q 407 613 444 648 q 326 578 373 578 q 241 608 278 578 q 182 661 210 633 q 175 667 179 665 q 127 626 141 639 q 113 612 113 613 q 31 579 76 579 q 18 579 24 579 q -58 616 -27 586 q -95 704 -95 652 q -56 788 -95 751 q 111 925 24 865 q 174 944 138 944 q 239 928 212 944 q 332 853 290 897 q 401 791 365 819 q 433 749 423 773 q 444 703 444 726 m 327 713 q 327 713 327 713 l 327 713 z "},"ï":{"ha":312,"x_min":-54,"x_max":403,"o":"m 289 363 q 258 98 289 245 q 240 5 245 37 q 235 -27 235 -27 q 205 -85 228 -61 q 172 -109 191 -99 q 115 -122 144 -122 q 83 -118 99 -122 q 8 -57 31 -103 q -5 0 -5 -30 q 23 157 -5 33 q 42 277 37 216 q 45 330 45 312 q 43 425 45 347 q 53 532 43 477 q 83 591 57 567 q 115 614 96 605 q 172 628 144 628 q 205 624 189 628 q 256 594 236 614 q 279 562 271 579 q 292 503 292 533 q 289 474 292 490 q 286 447 286 458 q 289 363 286 435 m 172 848 q 260 884 209 884 q 357 838 320 884 q 399 772 388 812 q 401 741 401 757 q 359 648 401 690 q 308 614 338 625 q 269 608 289 608 q 220 618 243 608 q 172 654 191 632 q 106 613 146 621 q 77 609 91 609 q 18 625 46 609 q -39 696 -24 648 q -41 705 -41 700 q -53 758 -53 731 q -18 842 -53 807 q 1 859 -9 852 q 37 878 18 871 q 77 886 57 886 q 103 884 87 886 q 129 876 119 882 q 172 848 152 867 z "},"ð":{"ha":726,"x_min":-34,"x_max":731,"o":"m 614 937 q 694 905 661 937 q 726 849 718 880 q 731 811 731 831 q 722 767 731 791 q 694 726 712 743 q 647 699 675 708 q 620 689 632 693 q 628 673 624 681 q 723 362 700 529 q 728 300 728 328 q 727 251 728 271 q 705 149 722 201 q 636 41 685 90 q 551 -19 600 4 q 394 -54 476 -54 q 236 -23 312 -54 q 68 95 138 18 q -26 254 -4 174 q -34 307 -34 279 q -33 328 -34 317 q -1 444 -27 387 q 79 544 27 503 q 175 597 123 579 q 151 627 160 609 q 134 690 134 656 q 165 770 134 738 q 192 790 178 783 q 214 803 206 798 q 168 840 187 826 q 140 863 148 853 q 107 917 115 886 q 102 947 102 933 q 105 977 102 960 q 118 1008 109 993 q 137 1035 127 1024 q 190 1066 159 1055 q 227 1072 208 1072 q 290 1051 262 1072 q 469 898 389 983 q 479 901 471 898 q 503 909 487 903 q 535 919 518 914 q 574 930 552 924 q 614 937 595 937 m 212 321 l 212 315 q 225 289 212 308 q 225 288 225 289 q 271 239 243 262 q 273 237 271 237 q 376 187 316 199 q 390 187 381 187 q 419 191 399 187 q 457 206 439 194 q 474 227 467 213 q 483 257 481 241 q 484 287 484 273 q 484 313 484 301 q 285 366 377 366 q 254 365 270 366 q 225 349 239 363 q 215 333 218 340 q 212 321 212 326 m 548 434 q 572 429 562 434 q 567 452 570 441 q 548 434 559 441 m 453 749 q 454 753 453 750 q 448 753 450 753 q 453 749 450 750 m 401 764 q 411 764 406 764 q 403 770 407 768 q 401 764 403 766 m 382 614 q 368 608 373 610 q 389 604 378 606 q 382 614 387 609 z "},"ñ":{"ha":564,"x_min":-20,"x_max":643,"o":"m 174 481 q 172 460 172 471 q 191 472 179 467 q 174 481 182 475 m 88 -1 q 88 -1 88 -1 l 88 -1 m 312 212 q 309 258 309 241 q 310 298 309 274 q 307 338 311 321 q 301 362 302 354 q 273 357 288 361 q 252 218 264 320 q 247 157 248 189 q 237 23 245 72 q 184 -95 221 -60 q 104 -127 153 -127 q 43 -110 72 -127 q -9 -49 8 -90 q -19 -3 -19 -27 q -7 52 -19 26 q 0 77 0 64 q 3 132 1 99 q 11 258 3 194 l 30 400 q 38 518 38 458 q 38 536 38 518 q 79 627 38 593 q 158 656 114 656 q 237 629 202 656 q 260 606 251 618 q 308 608 301 608 q 469 544 406 608 q 528 450 509 505 q 551 342 548 396 q 555 228 553 288 q 559 100 556 168 q 562 -39 562 31 q 518 -133 562 -100 q 440 -160 483 -160 q 362 -133 397 -160 q 319 -38 319 -100 q 312 212 319 52 m 426 605 q 311 646 362 605 q 267 685 288 663 q 263 688 266 686 q 241 671 251 680 q 160 635 205 635 q 145 635 152 635 q 71 671 102 642 q 34 743 41 701 q 33 761 33 753 q 69 842 33 807 q 213 924 130 905 q 262 930 240 930 q 302 928 285 930 q 388 897 347 921 q 423 871 403 888 q 472 910 444 898 q 515 920 492 920 q 608 882 570 920 q 642 802 642 848 q 609 716 642 754 q 563 662 578 678 q 490 617 532 632 q 426 605 458 605 z "},"ò":{"ha":742,"x_min":-33,"x_max":789,"o":"m 467 454 l 456 454 q 319 423 391 454 q 316 422 317 423 q 251 388 285 410 q 216 350 227 372 q 213 346 214 349 q 212 342 212 343 q 229 283 212 317 q 233 274 231 279 q 249 273 241 273 q 262 274 256 273 q 275 275 269 275 q 290 277 282 275 q 301 279 298 279 q 411 317 357 290 q 506 376 479 350 q 509 378 506 376 q 524 391 518 385 q 530 399 529 397 q 535 406 532 400 q 541 414 538 411 q 545 420 544 418 q 545 425 545 422 q 534 437 541 430 q 523 444 524 444 q 522 445 522 445 q 467 454 496 454 m 382 693 q 444 697 415 697 q 486 696 472 697 q 596 677 543 694 q 694 623 650 659 q 769 521 743 583 q 789 429 789 475 q 697 220 789 312 q 681 206 689 213 q 392 52 557 94 q 321 35 358 42 q 241 28 283 28 q 80 71 149 28 q 56 90 66 79 q 26 142 34 113 q 11 179 19 160 q -24 269 -15 233 q -33 335 -33 304 q -8 448 -33 396 q 62 545 19 505 q 212 644 127 606 q 382 693 296 681 m 719 766 q 701 704 719 734 q 639 651 678 667 q 594 642 617 642 q 537 656 564 642 q 324 791 426 713 q 291 833 301 808 q 281 880 281 857 q 317 970 281 935 q 398 1006 353 1006 q 483 975 444 1006 q 654 871 552 921 q 686 846 673 861 q 719 766 719 815 m 593 750 q 593 750 593 750 l 593 750 z "},"ó":{"ha":742,"x_min":-33,"x_max":789,"o":"m 467 454 l 456 454 q 319 423 391 454 q 316 422 317 423 q 251 388 285 410 q 216 350 227 372 q 213 346 214 349 q 212 342 212 343 q 229 283 212 317 q 233 274 231 279 q 249 273 241 273 q 262 274 256 273 q 275 275 269 275 q 290 277 282 275 q 301 279 298 279 q 411 317 357 290 q 506 376 479 350 q 509 378 506 376 q 524 391 518 385 q 530 399 529 397 q 535 406 532 400 q 541 414 538 411 q 545 420 544 418 q 545 425 545 422 q 534 437 541 430 q 523 444 524 444 q 522 445 522 445 q 467 454 496 454 m 382 693 q 444 697 415 697 q 486 696 472 697 q 596 677 543 694 q 694 623 650 659 q 769 521 743 583 q 789 429 789 475 q 697 220 789 312 q 681 206 689 213 q 392 52 557 94 q 321 35 358 42 q 241 28 283 28 q 80 71 149 28 q 56 90 66 79 q 26 142 34 113 q 11 179 19 160 q -24 269 -15 233 q -33 335 -33 304 q -8 448 -33 396 q 62 545 19 505 q 212 644 127 606 q 382 693 296 681 m 530 960 q 615 991 570 991 q 694 956 661 991 q 732 865 732 920 q 692 779 732 812 q 689 776 690 777 q 476 642 587 699 q 422 627 449 627 q 332 663 370 627 q 312 690 320 675 q 296 753 296 720 q 327 833 296 800 q 359 856 340 846 q 530 960 461 906 m 419 734 q 420 735 420 734 l 419 734 z "},"ô":{"ha":742,"x_min":-33,"x_max":796,"o":"m 467 454 l 456 454 q 319 423 391 454 q 316 422 317 423 q 251 388 285 410 q 216 350 227 372 q 213 346 214 349 q 212 342 212 343 q 229 283 212 317 q 233 274 231 279 q 249 273 241 273 q 262 274 256 273 q 275 275 269 275 q 290 277 282 275 q 301 279 298 279 q 411 317 357 290 q 506 376 479 350 q 509 378 506 376 q 524 391 518 385 q 530 399 529 397 q 535 406 532 400 q 541 414 538 411 q 545 420 544 418 q 545 425 545 422 q 534 437 541 430 q 523 444 524 444 q 522 445 522 445 q 467 454 496 454 m 382 693 q 444 697 415 697 q 486 696 472 697 q 596 677 543 694 q 694 623 650 659 q 769 521 743 583 q 789 429 789 475 q 697 220 789 312 q 681 206 689 213 q 392 52 557 94 q 321 35 358 42 q 241 28 283 28 q 80 71 149 28 q 56 90 66 79 q 26 142 34 113 q 11 179 19 160 q -24 269 -15 233 q -33 335 -33 304 q -8 448 -33 396 q 62 545 19 505 q 212 644 127 606 q 382 693 296 681 m 796 787 q 760 697 796 732 q 678 662 726 662 q 594 692 631 662 q 534 745 563 718 q 528 751 532 749 q 479 710 494 723 q 465 696 465 697 q 384 663 429 663 q 370 663 377 663 q 294 700 326 670 q 258 788 258 736 q 297 872 258 836 q 464 1009 377 949 q 526 1028 491 1028 q 591 1012 564 1028 q 685 937 643 981 q 754 875 718 903 q 786 833 776 857 q 796 787 796 810 m 680 798 q 680 798 680 798 l 680 798 z "},"õ":{"ha":742,"x_min":-33,"x_max":818,"o":"m 467 454 l 456 454 q 319 423 391 454 q 316 422 317 423 q 251 388 285 410 q 216 350 227 372 q 213 346 214 349 q 212 342 212 343 q 229 283 212 317 q 233 274 231 279 q 249 273 241 273 q 262 274 256 273 q 275 275 269 275 q 290 277 282 275 q 301 279 298 279 q 411 317 357 290 q 506 376 479 350 q 509 378 506 376 q 524 391 518 385 q 530 399 529 397 q 535 406 532 400 q 541 414 538 411 q 545 420 544 418 q 545 425 545 422 q 534 437 541 430 q 523 444 524 444 q 522 445 522 445 q 467 454 496 454 m 382 693 q 444 697 415 697 q 486 696 472 697 q 596 677 543 694 q 694 623 650 659 q 769 521 743 583 q 789 429 789 475 q 697 220 789 312 q 681 206 689 213 q 392 52 557 94 q 321 35 358 42 q 241 28 283 28 q 80 71 149 28 q 56 90 66 79 q 26 142 34 113 q 11 179 19 160 q -24 269 -15 233 q -33 335 -33 304 q -8 448 -33 396 q 62 545 19 505 q 212 644 127 606 q 382 693 296 681 m 602 632 q 487 673 538 632 q 444 712 464 690 q 439 715 442 713 q 418 699 427 707 q 336 662 381 662 q 321 662 328 662 q 248 699 278 669 q 210 770 217 728 q 209 788 209 780 q 245 869 209 834 q 389 951 307 932 q 439 958 416 958 q 479 955 461 958 q 564 924 524 948 q 600 898 579 916 q 648 937 620 925 q 692 947 669 947 q 784 909 746 947 q 818 829 818 875 q 785 743 818 781 q 739 689 754 705 q 666 644 708 659 q 602 632 635 632 z "},"ö":{"ha":742,"x_min":-33,"x_max":789,"o":"m 467 454 l 456 454 q 319 423 391 454 q 316 422 317 423 q 251 388 285 410 q 216 350 227 372 q 213 346 214 349 q 212 342 212 343 q 229 283 212 317 q 233 274 231 279 q 249 273 241 273 q 262 274 256 273 q 275 275 269 275 q 290 277 282 275 q 301 279 298 279 q 411 317 357 290 q 506 376 479 350 q 509 378 506 376 q 524 391 518 385 q 530 399 529 397 q 535 406 532 400 q 541 414 538 411 q 545 420 544 418 q 545 425 545 422 q 534 437 541 430 q 523 444 524 444 q 522 445 522 445 q 467 454 496 454 m 382 693 q 444 697 415 697 q 486 696 472 697 q 596 677 543 694 q 694 623 650 659 q 769 521 743 583 q 789 429 789 475 q 697 220 789 312 q 681 206 689 213 q 392 52 557 94 q 321 35 358 42 q 241 28 283 28 q 80 71 149 28 q 56 90 66 79 q 26 142 34 113 q 11 179 19 160 q -24 269 -15 233 q -33 335 -33 304 q -8 448 -33 396 q 62 545 19 505 q 212 644 127 606 q 382 693 296 681 m 525 890 q 613 926 562 926 q 709 880 673 926 q 751 814 741 854 q 754 783 754 799 q 712 690 754 732 q 661 656 690 667 q 621 650 642 650 q 572 661 595 650 q 525 696 544 674 q 458 655 499 663 q 430 651 444 651 q 370 667 399 651 q 313 738 328 690 q 312 747 312 742 q 300 800 300 773 q 335 884 300 849 q 354 901 343 894 q 390 920 370 913 q 430 928 410 928 q 456 926 439 928 q 481 918 472 924 q 525 890 505 909 z "},"÷":{"ha":762,"x_min":-41,"x_max":802,"o":"m 772 563 q 802 477 802 525 q 772 391 802 430 q 675 347 736 347 q 528 354 621 347 q 506 355 517 354 q 543 304 529 334 q 556 250 556 274 q 548 205 556 225 q 496 133 534 161 q 410 99 461 99 q 319 133 355 99 q 271 184 286 157 q 254 250 254 216 q 258 281 254 264 q 302 353 269 324 q 311 361 311 359 q 252 359 282 361 q 122 346 187 357 q 92 343 107 343 q 30 358 60 343 q -3 381 11 366 q -39 473 -39 418 q -24 538 -39 509 q 11 579 -11 563 q 62 604 34 598 q 208 621 141 618 q 306 624 275 624 q 343 624 336 624 q 311 650 324 635 q 273 692 286 667 q 254 757 254 724 q 258 789 254 773 q 302 861 269 833 l 309 867 q 342 889 323 882 q 368 898 361 897 q 392 902 374 899 q 408 903 399 903 q 434 900 418 903 q 460 892 450 897 q 475 884 471 887 q 511 859 492 878 q 543 811 530 840 q 556 758 556 783 q 548 713 556 734 q 496 642 534 670 q 467 621 483 629 q 548 616 496 620 q 637 612 600 613 q 674 612 674 612 q 772 563 736 609 m 419 247 q 415 254 418 251 q 407 258 411 255 q 399 256 403 258 q 391 250 393 252 q 399 243 395 247 q 407 236 404 239 q 415 241 411 240 q 419 247 419 244 m 407 766 q 399 765 403 766 q 392 760 395 761 q 408 745 401 754 q 415 750 412 749 q 419 755 419 753 q 415 762 418 760 q 407 766 411 764 z "},"ø":{"ha":742,"x_min":-33,"x_max":789,"o":"m 544 416 q 545 420 544 418 q 545 425 545 422 q 534 437 541 430 q 530 439 533 438 q 505 374 518 406 q 506 375 506 374 q 509 378 506 376 q 524 391 518 385 q 530 399 529 397 q 535 406 532 400 q 544 416 538 411 m 544 418 q 547 422 545 420 q 545 419 545 420 l 544 418 m 216 350 q 213 346 214 349 q 212 342 212 343 q 216 320 212 331 q 223 338 216 321 q 244 382 231 354 q 216 350 225 368 m 307 194 q 293 168 296 172 q 302 170 294 168 q 323 174 309 171 q 307 194 312 183 m 426 549 q 434 563 429 556 q 416 559 426 560 q 426 549 422 555 m 245 137 q 237 137 243 137 q 241 130 240 133 q 244 134 243 133 q 245 137 245 136 m 464 586 q 468 587 467 587 q 467 590 468 589 q 464 586 465 587 m 544 880 q 559 880 552 880 q 633 843 602 873 q 670 769 663 812 q 670 754 670 762 q 637 674 670 711 q 633 670 636 673 q 627 663 631 667 q 714 605 680 639 q 768 524 749 571 q 789 429 789 475 q 697 220 789 312 q 681 206 689 213 q 392 52 557 94 q 346 41 368 45 q 254 -81 300 -35 q 190 -136 224 -111 q 125 -156 161 -156 q 90 -151 107 -156 q 16 -92 39 -136 q 1 -34 1 -64 q 7 0 1 -18 q 57 69 19 42 q 69 79 62 73 q 26 142 35 103 q 11 179 19 160 q -24 269 -15 233 q -33 335 -33 304 q -8 448 -33 396 q 62 545 19 505 q 213 644 127 606 q 362 689 286 675 q 393 750 377 720 q 465 846 422 802 q 544 880 499 880 z "},"ù":{"ha":739,"x_min":-12,"x_max":768,"o":"m 564 206 q 595 198 582 206 q 583 302 587 254 q 556 206 574 247 q 564 206 560 206 m 681 572 q 689 562 685 568 q 711 490 711 526 q 709 475 711 481 q 764 28 712 267 q 766 4 766 15 q 731 -81 766 -46 q 674 -115 707 -106 q 635 -121 656 -121 q 593 -111 614 -121 q 526 -27 538 -88 q 521 0 524 -14 q 316 -62 427 -62 q 224 -50 267 -62 q 79 45 130 -24 q 14 180 33 106 q -8 328 -5 255 q -12 451 -12 438 q -12 464 -12 464 q 30 556 -12 522 q 109 583 65 583 q 187 556 152 583 q 232 467 231 524 q 234 359 233 411 q 244 264 235 307 q 247 252 244 263 q 267 201 252 222 q 270 197 269 198 q 281 189 277 191 q 317 183 297 183 q 362 190 338 183 q 439 283 419 210 q 452 345 449 313 q 458 414 456 377 q 465 488 460 450 q 499 579 467 547 q 518 594 509 587 q 587 614 551 614 q 681 572 639 614 m 612 613 q 594 551 612 581 q 532 498 571 514 q 487 488 510 488 q 430 503 457 488 q 217 637 319 560 q 184 680 194 655 q 174 727 174 704 q 210 817 174 781 q 291 853 245 853 q 376 822 336 853 q 547 718 445 768 q 579 693 566 708 q 612 613 612 662 m 486 597 q 486 597 486 597 l 486 597 z "},"ú":{"ha":739,"x_min":-12,"x_max":768,"o":"m 564 206 q 595 198 582 206 q 583 302 587 254 q 556 206 574 247 q 564 206 560 206 m 681 572 q 689 562 685 568 q 711 490 711 526 q 709 475 711 481 q 764 28 712 267 q 766 4 766 15 q 731 -81 766 -46 q 674 -115 707 -106 q 635 -121 656 -121 q 593 -111 614 -121 q 526 -27 538 -88 q 521 0 524 -14 q 316 -62 427 -62 q 224 -50 267 -62 q 79 45 130 -24 q 14 180 33 106 q -8 328 -5 255 q -12 451 -12 438 q -12 464 -12 464 q 30 556 -12 522 q 109 583 65 583 q 187 556 152 583 q 232 467 231 524 q 234 359 233 411 q 244 264 235 307 q 247 252 244 263 q 267 201 252 222 q 270 197 269 198 q 281 189 277 191 q 317 183 297 183 q 362 190 338 183 q 439 283 419 210 q 452 345 449 313 q 458 414 456 377 q 465 488 460 450 q 499 579 467 547 q 518 594 509 587 q 587 614 551 614 q 681 572 639 614 m 533 822 q 618 853 572 853 q 697 818 663 853 q 735 727 735 781 q 694 640 735 674 q 692 637 693 639 q 479 503 590 560 q 425 488 452 488 q 335 525 373 488 q 315 552 323 537 q 298 614 298 582 q 330 694 298 662 q 362 718 343 708 q 533 822 464 768 m 422 595 q 423 597 423 595 l 422 595 z "},"û":{"ha":739,"x_min":-12,"x_max":768,"o":"m 564 206 q 595 198 582 206 q 583 302 587 254 q 556 206 574 247 q 564 206 560 206 m 681 572 q 689 562 685 568 q 711 490 711 526 q 709 475 711 481 q 764 28 712 267 q 766 4 766 15 q 731 -81 766 -46 q 674 -115 707 -106 q 635 -121 656 -121 q 593 -111 614 -121 q 526 -27 538 -88 q 521 0 524 -14 q 316 -62 427 -62 q 224 -50 267 -62 q 79 45 130 -24 q 14 180 33 106 q -8 328 -5 255 q -12 451 -12 438 q -12 464 -12 464 q 30 556 -12 522 q 109 583 65 583 q 187 556 152 583 q 232 467 231 524 q 234 359 233 411 q 244 264 235 307 q 247 252 244 263 q 267 201 252 222 q 270 197 269 198 q 281 189 277 191 q 317 183 297 183 q 362 190 338 183 q 439 283 419 210 q 452 345 449 313 q 458 414 456 377 q 465 488 460 450 q 499 579 467 547 q 518 594 509 587 q 587 614 551 614 q 681 572 639 614 m 689 662 q 652 572 689 608 q 571 537 618 537 q 487 567 524 537 q 427 620 456 593 q 420 627 425 624 q 372 585 387 598 q 358 571 358 572 q 277 538 321 538 q 263 538 270 538 q 187 575 218 545 q 151 663 151 612 q 190 747 151 711 q 357 884 270 825 q 419 903 384 903 q 484 887 457 903 q 578 812 536 856 q 647 750 610 779 q 679 709 669 732 q 689 662 689 685 m 572 673 q 572 673 572 673 l 572 673 z "},"ü":{"ha":739,"x_min":-12,"x_max":768,"o":"m 564 206 q 595 198 582 206 q 583 302 587 254 q 556 206 574 247 q 564 206 560 206 m 681 572 q 689 562 685 568 q 711 490 711 526 q 709 475 711 481 q 764 28 712 267 q 766 4 766 15 q 731 -81 766 -46 q 674 -115 707 -106 q 635 -121 656 -121 q 593 -111 614 -121 q 526 -27 538 -88 q 521 0 524 -14 q 316 -62 427 -62 q 224 -50 267 -62 q 79 45 130 -24 q 14 180 33 106 q -8 328 -5 255 q -12 451 -12 438 q -12 464 -12 464 q 30 556 -12 522 q 109 583 65 583 q 187 556 152 583 q 232 467 231 524 q 234 359 233 411 q 244 264 235 307 q 247 252 244 263 q 267 201 252 222 q 270 197 269 198 q 281 189 277 191 q 317 183 297 183 q 362 190 338 183 q 439 283 419 210 q 452 345 449 313 q 458 414 456 377 q 465 488 460 450 q 499 579 467 547 q 518 594 509 587 q 587 614 551 614 q 681 572 639 614 m 431 779 q 519 815 468 815 q 616 769 579 815 q 658 703 647 743 q 661 671 661 688 q 618 579 661 621 q 567 545 597 556 q 528 538 548 538 q 479 549 502 538 q 431 585 450 563 q 365 544 406 552 q 336 540 350 540 q 277 556 305 540 q 220 627 235 579 q 218 636 218 631 q 206 689 206 662 q 241 773 206 738 q 260 789 250 783 q 296 809 277 802 q 336 817 316 817 q 362 814 346 817 q 388 807 378 812 q 431 779 411 798 z "},"ý":{"ha":609,"x_min":-49,"x_max":692,"o":"m 331 111 q 321 111 326 111 q 312 111 317 111 q 317 102 315 106 q 321 95 320 98 q 331 111 326 104 m 62 536 l 62 536 q 62 536 62 536 m 515 681 q 545 686 532 686 q 574 683 559 686 q 608 670 590 680 q 666 598 651 644 q 671 566 671 581 q 650 498 671 529 q 608 411 623 458 q 514 171 572 285 q 456 58 487 115 q 452 50 454 54 q 416 -31 452 4 q 395 -49 407 -41 q 290 -224 343 -136 q 180 -407 236 -313 q 160 -434 171 -423 q 79 -467 127 -467 q 15 -450 45 -467 q -39 -388 -23 -429 q -47 -346 -47 -368 q -30 -285 -47 -315 q 81 -98 27 -186 q 180 69 134 -11 q 77 267 129 163 q -31 481 26 370 q -46 536 -46 509 q -9 624 -46 586 q 16 643 3 635 q 80 661 46 661 q 160 629 127 661 q 182 598 172 616 q 267 433 233 500 q 319 328 300 366 q 347 397 334 362 q 387 512 368 450 q 446 629 407 574 q 515 681 472 669 m 488 947 q 573 978 528 978 q 652 943 618 978 q 690 852 690 906 q 650 765 690 799 q 647 762 648 764 q 434 628 545 685 q 380 613 407 613 q 290 650 328 613 q 270 677 278 662 q 254 739 254 707 q 285 819 254 787 q 317 842 298 833 q 488 947 419 892 m 377 720 q 378 722 378 720 l 377 720 z "},"þ":{"ha":669,"x_min":-7,"x_max":696,"o":"m 442 349 q 450 368 450 358 q 441 413 450 388 q 422 460 431 438 q 412 479 415 472 q 408 486 408 486 q 283 442 362 484 q 266 433 275 437 q 269 355 267 395 q 271 275 270 316 q 277 273 274 274 q 328 284 304 278 q 373 301 351 290 q 386 307 374 301 q 411 321 397 312 q 431 336 425 330 q 439 345 437 342 q 442 349 442 347 m 180 171 q 165 179 170 176 q 167 161 167 171 q 180 171 172 167 m 156 528 q 161 532 159 529 q 155 534 157 533 q 156 528 155 530 m 260 697 q 427 734 346 734 q 494 720 461 734 q 587 651 551 699 q 640 563 620 612 q 674 480 656 525 q 694 377 694 431 q 605 167 694 256 q 479 81 553 114 q 389 47 437 62 q 281 27 335 30 q 302 -385 289 -179 q 302 -397 302 -391 q 265 -479 302 -446 q 179 -513 228 -513 q 94 -475 127 -513 q 58 -399 64 -444 q 58 -395 58 -397 q 26 309 35 -41 q -5 1009 18 658 q -5 1016 -5 1013 q 31 1101 -5 1067 q 118 1135 68 1135 q 203 1097 170 1135 q 239 1021 233 1066 q 248 875 241 998 q 256 696 254 751 q 260 697 258 697 z "},"ÿ":{"ha":609,"x_min":-49,"x_max":671,"o":"m 331 111 q 321 111 326 111 q 312 111 317 111 q 317 102 315 106 q 321 95 320 98 q 331 111 326 104 m 62 536 l 62 536 q 62 536 62 536 m 515 681 q 545 686 532 686 q 574 683 559 686 q 608 670 590 680 q 666 598 651 644 q 671 566 671 581 q 650 498 671 529 q 608 411 623 458 q 514 171 572 285 q 456 58 487 115 q 452 50 454 54 q 416 -31 452 4 q 395 -49 407 -41 q 290 -224 343 -136 q 180 -407 236 -313 q 160 -434 171 -423 q 79 -467 127 -467 q 15 -450 45 -467 q -39 -388 -23 -429 q -47 -346 -47 -368 q -30 -285 -47 -315 q 81 -98 27 -186 q 180 69 134 -11 q 77 267 129 163 q -31 481 26 370 q -46 536 -46 509 q -9 624 -46 586 q 16 643 3 635 q 80 661 46 661 q 160 629 127 661 q 182 598 172 616 q 267 433 233 500 q 319 328 300 366 q 347 397 334 362 q 387 512 368 450 q 446 629 407 574 q 515 681 472 669 m 374 861 q 463 898 411 898 q 559 852 522 898 q 601 785 590 826 q 604 754 604 770 q 562 662 604 704 q 510 628 540 639 q 471 621 491 621 q 422 632 445 621 q 374 667 393 646 q 308 627 349 635 q 279 623 293 623 q 220 639 248 623 q 163 709 178 662 q 161 719 161 713 q 149 772 149 745 q 184 856 149 821 q 203 872 193 865 q 239 892 220 884 q 279 899 259 899 q 305 897 289 899 q 331 890 321 895 q 374 861 354 880 z "},"ı":{"ha":312,"x_min":-5,"x_max":293,"o":"m 289 363 q 258 98 289 245 q 240 5 245 37 q 235 -27 235 -27 q 205 -85 228 -61 q 172 -109 191 -99 q 115 -122 144 -122 q 83 -118 99 -122 q 8 -57 31 -103 q -5 0 -5 -30 q 23 157 -5 33 q 42 277 37 216 q 45 330 45 312 q 43 425 45 347 q 53 532 43 477 q 83 591 57 567 q 115 614 96 605 q 172 628 144 628 q 205 624 189 628 q 256 594 236 614 q 279 562 271 579 q 292 503 292 533 q 289 474 292 490 q 286 447 286 458 q 289 363 286 435 z "},"Ł":{"ha":597,"x_min":-145,"x_max":720,"o":"m 119 454 q 121 471 121 465 q 117 468 121 469 q 106 463 113 467 q 119 454 113 460 m 156 514 q 163 518 160 517 q 167 519 165 519 q 157 526 161 522 q 157 520 157 524 q 156 514 156 517 m 293 673 q 342 662 320 673 q 403 600 385 639 q 414 548 414 574 q 381 465 414 498 q 340 439 365 449 q 251 404 294 420 q 250 345 250 381 q 255 263 250 309 q 261 210 258 250 q 264 161 264 171 q 418 153 334 159 q 553 144 503 146 q 605 142 604 142 q 694 95 662 140 q 720 17 720 60 q 693 -61 720 -26 q 605 -102 661 -102 q 537 -99 601 -102 q 354 -87 473 -96 q 115 -79 235 -79 q 30 -45 64 -79 q -5 42 -5 -8 q 0 81 -5 61 q 20 119 5 102 q 22 147 22 134 q 20 172 22 160 q 8 288 9 269 q -18 282 -8 282 q -30 283 -27 282 q -115 326 -81 285 q -145 407 -145 359 q -95 503 -145 468 q -17 552 -45 537 q 27 575 11 567 q 39 644 33 606 q 62 849 52 722 q 69 966 66 907 q 114 1058 71 1024 q 193 1085 149 1085 q 273 1055 237 1085 q 312 968 312 1023 q 305 853 312 936 q 294 717 297 746 q 289 673 290 688 q 293 673 290 673 z "},"ł":{"ha":292,"x_min":-132,"x_max":427,"o":"m 142 476 q 145 490 144 483 q 133 483 140 486 q 142 476 138 480 m 170 525 q 176 529 172 528 q 171 533 174 532 q 170 525 171 529 m 283 685 q 307 686 294 686 q 355 675 334 686 q 416 613 399 652 q 427 562 427 587 q 395 479 427 511 q 353 452 378 463 q 298 431 315 437 q 275 423 281 425 q 262 206 270 313 q 250 37 255 99 q 245 -27 245 -26 q 206 -108 239 -75 q 125 -141 174 -141 q 35 -103 73 -141 q 1 -14 -3 -66 q 24 301 22 252 q -11 296 7 296 q -102 340 -66 296 q -130 418 -130 373 q -84 514 -130 479 q -81 515 -83 514 q -3 566 -30 552 q 38 587 23 581 q 39 684 39 636 q 24 1004 39 848 q 24 1016 24 1010 q 61 1098 24 1063 q 146 1133 98 1133 q 235 1092 201 1133 q 267 1017 263 1059 q 281 826 278 909 q 283 685 283 743 z "},"Œ":{"ha":1012,"x_min":-41,"x_max":1066,"o":"m 209 252 q 209 251 209 252 q 231 216 214 232 q 245 204 239 208 q 252 199 251 201 q 363 157 301 168 q 430 149 396 152 q 422 247 427 189 q 411 381 416 305 q 407 427 408 407 q 404 464 406 448 q 396 506 396 486 q 397 517 396 513 q 396 528 397 521 q 381 602 388 564 q 370 656 374 639 q 358 735 366 684 q 285 643 315 697 q 237 509 254 582 q 209 362 221 437 q 209 361 209 362 q 202 296 202 320 q 209 252 202 273 m 434 914 q 456 902 445 910 q 464 925 457 914 q 434 914 449 920 m 563 49 q 560 43 562 46 q 562 43 562 43 q 566 46 564 45 q 563 49 564 47 m 576 -92 q 517 -96 556 -96 q 446 -96 477 -96 q 366 -87 414 -95 q 95 14 201 -66 q 19 92 52 46 q -27 187 -14 138 q -41 288 -41 240 q -34 378 -41 336 q -20 464 -24 439 q 20 635 -5 549 q 95 799 45 720 q 241 958 155 895 q 430 1058 327 1021 q 487 1076 463 1072 q 610 1085 536 1085 q 789 1078 694 1085 q 947 1070 883 1072 q 1038 1028 1004 1070 q 1066 948 1066 993 q 1038 868 1066 903 q 945 826 1004 826 q 932 827 943 826 q 901 828 922 827 q 830 833 880 829 q 644 842 678 842 q 590 842 609 842 q 610 696 593 785 q 624 629 618 663 q 706 640 656 632 q 823 652 755 648 q 836 652 829 652 q 918 615 884 652 q 951 529 951 578 q 913 444 951 477 q 834 410 880 412 q 731 397 776 404 q 655 388 686 391 q 656 363 655 382 q 660 326 658 343 q 671 178 662 308 q 746 191 700 182 q 888 214 860 214 q 943 201 916 214 q 972 179 960 193 q 1004 126 994 157 q 1008 94 1008 110 q 994 37 1008 65 q 971 4 985 18 q 911 -26 947 -20 q 766 -52 837 -38 q 625 -77 696 -66 q 576 -92 604 -90 z "},"œ":{"ha":1195,"x_min":-33,"x_max":1229,"o":"m 684 423 q 694 461 684 439 q 678 463 686 461 q 681 446 680 454 q 682 435 682 438 q 682 425 682 435 q 681 407 682 414 q 675 384 677 389 q 667 362 669 363 q 650 332 661 346 q 647 328 648 331 q 670 323 659 327 q 690 366 670 347 q 704 378 697 373 q 684 423 684 399 m 1222 210 q 1227 178 1227 193 q 1207 109 1227 137 q 1097 1 1160 46 q 924 -50 1023 -50 q 799 -24 859 -50 q 685 54 735 4 q 613 152 642 98 q 392 52 511 83 q 321 35 358 42 q 241 28 283 28 q 80 71 149 28 q 56 90 66 79 q 26 142 34 113 q 11 179 19 160 q -24 269 -15 233 q -33 335 -33 304 q -8 448 -33 396 q 62 545 19 505 q 212 643 127 606 q 457 697 335 697 q 667 642 579 697 q 688 628 678 635 q 803 696 739 673 q 912 716 856 716 q 1021 693 968 716 q 1187 543 1141 648 q 1210 450 1206 500 q 1211 434 1211 442 q 1156 309 1211 365 q 1138 293 1147 301 q 1190 263 1168 285 q 1222 210 1211 241 m 467 454 l 456 454 q 319 423 391 454 q 316 422 317 423 q 251 388 285 410 q 216 350 227 372 q 213 346 214 349 q 212 342 212 343 q 229 283 212 317 q 233 274 231 279 q 249 273 241 273 q 262 274 256 273 q 275 275 269 275 q 290 277 282 275 q 301 279 298 279 q 411 317 357 290 q 506 376 479 350 q 509 378 506 376 q 524 391 518 385 q 530 399 529 397 q 535 405 532 400 q 543 416 538 410 l 545 425 q 534 437 541 430 q 526 443 529 441 q 523 445 524 445 q 522 445 522 445 q 467 454 496 454 m 1002 240 q 939 236 972 236 q 845 239 887 236 q 902 198 865 214 l 914 195 q 933 194 929 193 q 954 199 947 195 q 970 209 962 203 q 985 222 978 216 q 1002 240 997 235 z "},"Š":{"ha":571,"x_min":-76,"x_max":701,"o":"m 586 834 q 536 831 552 831 q 391 834 519 831 q 319 833 357 834 q 206 802 264 830 q 170 769 182 789 q 210 705 172 746 q 244 670 224 690 q 297 625 264 650 q 365 571 330 600 q 446 498 410 536 q 560 316 532 414 q 570 250 570 281 q 515 79 570 148 q 441 8 483 39 q 358 -45 400 -23 q 281 -87 316 -66 q 220 -104 251 -104 q 176 -96 198 -104 q 138 -72 153 -87 q 98 23 98 -31 q 157 123 98 90 q 224 160 191 144 q 312 217 286 191 q 321 227 316 221 q 327 243 327 233 q 315 275 326 259 q 277 324 298 301 q 273 327 275 324 q 211 383 245 355 q 138 441 176 411 q 55 515 88 481 q -4 583 22 548 q -60 686 -39 631 q -75 768 -75 727 q -69 821 -75 795 q 3 951 -54 895 q 113 1027 53 1000 q 114 1028 113 1028 q 235 1064 175 1054 q 340 1076 296 1074 q 399 1077 385 1077 q 518 1076 414 1077 q 565 1076 548 1076 q 586 1077 582 1077 q 674 1036 642 1077 q 701 958 701 1001 q 674 879 701 914 q 586 834 643 837 m 109 1284 q 145 1374 109 1339 q 146 1377 145 1375 q 227 1409 182 1409 q 311 1379 274 1409 q 370 1326 342 1354 q 377 1320 373 1322 q 425 1361 411 1348 q 439 1375 439 1374 q 521 1408 476 1408 q 534 1408 528 1408 q 610 1371 579 1401 q 647 1295 640 1340 q 647 1282 647 1289 q 609 1198 647 1234 q 444 1062 525 1120 q 437 1058 441 1061 q 376 1043 410 1043 q 313 1059 340 1043 q 220 1134 262 1090 q 151 1196 187 1168 q 119 1238 129 1214 q 109 1284 109 1261 z "},"š":{"ha":661,"x_min":-27,"x_max":688,"o":"m 500 515 q 500 515 500 515 l 500 515 m 433 172 q 385 184 412 182 q 320 186 357 186 q 201 195 254 186 q 225 174 209 182 q 321 155 266 155 q 408 164 361 155 q 433 172 420 167 m 444 423 q 361 441 411 441 q 290 431 321 441 q 375 427 332 429 q 458 416 418 425 q 444 423 450 419 m 688 161 q 621 8 688 75 q 514 -57 574 -39 q 407 -83 452 -77 q 335 -88 362 -88 q 290 -87 308 -88 q 76 -20 164 -80 q -9 71 24 15 q -26 132 -26 99 q -17 176 -26 153 q 11 216 -8 198 q 69 250 35 241 q -1 340 20 286 q -14 406 -14 373 q -3 469 -14 439 q 62 574 18 529 q 237 667 127 639 q 354 684 298 684 q 563 635 469 684 q 594 613 581 625 q 625 533 625 581 q 609 471 625 500 q 545 416 587 433 q 503 408 525 408 q 492 408 498 408 q 610 342 566 387 q 652 286 635 317 q 688 161 688 227 m 119 898 q 156 987 119 952 q 157 990 156 989 q 237 1023 193 1023 q 321 993 285 1023 q 381 940 353 967 q 388 933 384 936 q 436 975 422 962 q 450 989 450 987 q 532 1021 487 1021 q 545 1021 538 1021 q 621 984 590 1015 q 658 909 651 954 q 658 895 658 902 q 620 811 658 848 q 454 675 536 734 q 448 671 452 674 q 387 656 420 656 q 324 673 351 656 q 231 747 273 704 q 161 810 198 781 q 130 851 140 827 q 119 898 119 875 z "},"Ÿ":{"ha":540,"x_min":-165,"x_max":742,"o":"m -28 951 l -37 967 l -39 968 l -28 951 m 172 27 q 164 230 164 132 q 168 445 164 328 q 164 452 167 448 q 84 567 114 507 q 30 685 54 627 q -26 785 5 743 q -102 849 -54 823 q -133 871 -119 859 q -164 951 -164 903 q -148 1015 -164 985 q -85 1069 -126 1053 q -43 1077 -65 1077 q 15 1062 -14 1077 q 154 951 99 1019 q 244 803 209 884 q 286 705 285 707 q 446 954 359 789 q 514 1072 492 1039 q 614 1128 549 1128 q 678 1112 648 1128 q 732 1050 716 1090 q 741 1008 741 1029 q 723 947 741 977 q 653 825 688 887 q 581 701 618 764 q 415 491 500 574 q 408 233 408 330 q 416 37 408 136 q 416 28 416 33 q 378 -56 416 -22 q 292 -90 340 -90 q 209 -54 243 -90 q 172 27 175 -19 m 614 993 l 628 1000 l 629 1001 l 614 993 m 281 529 q 277 529 279 529 q 281 525 278 528 q 281 529 281 528 m 365 1207 q 453 1244 401 1244 q 549 1198 513 1244 q 591 1131 581 1172 q 594 1100 594 1116 q 552 1008 594 1050 q 500 974 530 985 q 461 967 481 967 q 412 978 435 967 q 365 1013 384 991 q 298 972 339 981 q 270 968 283 968 q 210 985 239 968 q 153 1055 168 1008 q 152 1065 152 1059 q 140 1118 140 1090 q 175 1202 140 1166 q 194 1218 183 1211 q 230 1238 210 1230 q 270 1245 250 1245 q 296 1243 279 1245 q 321 1236 312 1241 q 365 1207 345 1226 z "},"Ž":{"ha":723,"x_min":-34,"x_max":779,"o":"m 453 798 q 302 814 384 814 q 117 795 212 814 q 90 792 103 792 q 33 806 60 792 q 3 827 15 814 q -28 882 -20 850 q -33 914 -33 898 q -20 970 -33 943 q 3 1001 -11 987 q 62 1032 27 1027 q 301 1057 189 1057 q 384 1053 301 1057 q 703 958 564 1039 q 728 939 716 949 q 760 886 750 917 q 764 854 764 868 q 746 789 764 817 q 604 598 680 688 l 492 467 l 456 423 q 292 205 355 304 q 336 216 321 212 q 351 221 350 221 q 482 267 416 240 q 583 308 548 294 q 620 321 618 321 q 652 328 637 328 q 742 290 704 328 q 779 203 779 254 q 742 121 779 156 q 693 90 722 99 q 547 32 620 62 q 392 -20 475 1 q 220 -46 302 -46 q 37 1 119 -46 q 8 22 20 11 q -26 109 -26 57 q -12 164 -26 137 q 114 379 43 278 q 266 574 184 480 l 361 685 l 392 722 q 453 798 423 758 m 225 1271 q 262 1360 225 1325 q 263 1363 262 1362 q 343 1396 298 1396 q 427 1366 391 1396 q 487 1313 458 1340 q 494 1306 490 1309 q 542 1348 528 1335 q 556 1362 556 1360 q 637 1394 593 1394 q 651 1394 644 1394 q 726 1357 696 1388 q 764 1282 757 1326 q 764 1268 764 1275 q 726 1184 764 1221 q 560 1048 642 1107 q 553 1044 557 1047 q 492 1029 526 1029 q 430 1046 457 1029 q 336 1120 378 1077 q 267 1183 304 1154 q 235 1224 245 1200 q 225 1271 225 1248 z "},"ž":{"ha":636,"x_min":-27,"x_max":669,"o":"m 407 228 q 548 227 514 227 q 639 186 605 227 q 669 106 669 151 q 640 26 669 61 q 549 -16 606 -16 q 505 -16 519 -16 q 433 -16 491 -16 q 320 -15 376 -15 l 198 -16 q 87 -9 138 -16 q 12 27 42 -3 q -23 113 -23 64 q -16 155 -23 132 q 28 213 -4 189 q 126 300 81 252 q 240 406 176 354 q 65 429 153 410 q 5 460 30 437 q -18 496 -8 475 q -27 538 -27 517 q 26 644 -27 604 q 96 667 56 667 q 123 665 110 667 q 223 650 172 655 q 328 643 274 646 l 437 637 q 549 625 494 635 q 610 594 583 621 q 647 525 639 566 q 648 500 648 515 q 640 467 648 486 q 586 382 621 418 q 467 274 530 326 q 407 228 438 251 m 133 122 q 178 121 156 121 q 165 151 168 134 q 133 122 151 137 m 479 498 q 487 476 486 488 q 503 495 496 486 q 479 498 491 496 m 129 869 q 165 959 129 924 q 167 962 165 960 q 247 994 202 994 q 331 964 294 994 q 391 911 362 939 q 397 905 393 907 q 446 946 431 933 q 460 960 460 959 q 541 993 496 993 q 555 993 548 993 q 630 956 600 986 q 667 880 661 925 q 667 867 667 873 q 629 783 667 819 q 464 647 545 705 q 457 643 461 646 q 396 628 430 628 q 334 644 361 628 q 240 719 282 675 q 171 781 208 753 q 139 823 149 799 q 129 869 129 846 z "},"ˆ":{"ha":764,"x_min":113,"x_max":652,"o":"m 651 854 q 614 765 651 800 q 533 730 581 730 q 449 760 486 730 q 389 812 418 785 q 382 819 387 817 q 334 778 349 791 q 320 764 320 765 q 239 731 283 731 q 225 731 232 731 q 149 768 180 738 q 113 856 113 804 q 152 940 113 903 q 319 1077 232 1017 q 381 1096 346 1096 q 446 1080 419 1096 q 540 1005 498 1048 q 609 943 572 971 q 641 901 631 925 q 651 854 651 878 m 534 865 q 534 865 534 865 l 534 865 z "}}}
